<svg version="1.2" xmlns="http://www.w3.org/2000/svg" viewBox="0 0 702.64 414.17" width="703" height="415">
	<defs>
		<clipPath clipPathUnits="userSpaceOnUse" id="cp1">
			<path d="m0 0h702.64v414.17h-702.64z"/>
		</clipPath>
	</defs>
	<style>
		.s0 { fill: #cad510 } 
		.s1 { fill: none;stroke: #ffffff;stroke-miterlimit:10;stroke-width: 1.4 } 
		.s2 { fill: #d6c7a4 } 
	</style>
	<g id="section_groupe">
		<g id="Clip-Path" clip-path="url(#cp1)">
			<g>
				<path class="s0" d="m246.7 172.68l-1.29-55.29c-0.02-0.83 0.26-1.63 0.78-2.26l5.96-7.14c0.9-1.08 1.05-2.61 0.36-3.84l-4.19-7.55c-0.75-1.36-0.5-3.06 0.64-4.13l8.04-7.6c1.14-1.07 1.4-2.79 0.64-4.15l-11.51-20.5c-0.48-0.85-0.57-1.87-0.26-2.78l6.46-18.74h-0.01l-32.63-18.1c-1.92-1.06-4.33-0.06-4.93 2.05l-4.57 16c-0.83 2.88-4.7 3.37-6.22 0.78l-13.96-23.82c-0.72-1.23-2.14-1.88-3.55-1.63l-55.71 10.24c-1.77 0.33-3.49-0.78-3.92-2.52l-0.73-2.93c-0.45-1.79-2.25-2.9-4.06-2.5l-72.08 16.16c-0.91 0.2-1.71 0.77-2.18 1.58l-17.95 30.03c-0.32 0.53-0.49 1.13-0.49 1.75v21.5c0 2 1.7 3.56 3.68 3.4l71.16-5.65c3.7-0.3 5.13 4.71 1.84 6.42l-15.02 7.78c-2.55 1.32-2.41 5.03 0.24 6.16l14.15 6.06c3.76 1.61 2.03 7.25-1.99 6.48l-30.71-5.98c-1.39-0.28-2.47-1.38-2.71-2.79l-0.71-4.24c-0.47-2.87-4.11-3.86-5.97-1.63l-8.07 9.64c-1.28 1.54-0.97 3.85 0.68 4.99l3.98 2.75c0.97 0.67 1.52 1.78 1.46 2.96l-0.53 11.87c-0.13 3.06 3.52 4.73 5.74 2.62l9.66-9.11c1.21-1.15 3.06-1.24 4.38-0.26l22.86 17.15c0.82 0.62 1.33 1.59 1.36 2.62l0.51 17.25c0.05 1.96-1.55 3.56-3.5 3.51l-75.86-2.15c-1.36-0.04-2.62 0.74-3.19 1.99l-1.37 2.96c-0.75 1.65-0.1 3.58 1.49 4.43l22.55 11.99q0.75 0.4 1.6 0.4h8.22c1.33 0 2.54 0.76 3.09 1.96l21.92 46.9c0.59 1.26 0.35 2.75-0.6 3.77l-4.05 4.33c-1.78 1.9-0.86 5.01 1.67 5.64l25.75 6.37c1.24 0.31 2.56-0.11 3.39-1.07l14.3-16.41c1.22-1.4 3.33-1.57 4.76-0.37l11 9.23c1.57 1.32 3.96 0.95 5.07-0.78l3.66-5.77c1.34-2.1 4.4-2.11 5.74-0.03l17.96 27.91c0.42 0.66 1.07 1.15 1.82 1.4l49.93 16.12c1.66 0.54 3.45-0.26 4.16-1.86l5.07-11.39c0.36-0.82 1.02-1.46 1.85-1.78l19.18-7.62c1.23-0.48 2.07-1.66 2.15-2.98l1.08-20.84c0.07-1.47-0.8-2.82-2.16-3.35l-37.3-14.62c-1.1-0.44-1.9-1.41-2.11-2.57l-6.37-35.32c-0.32-1.78 0.79-3.5 2.55-3.92l37.9-9.17z"/>
				<path class="s1" d="m246.7 172.68l-1.29-55.29c-0.02-0.83 0.26-1.63 0.78-2.26l5.96-7.14c0.9-1.08 1.05-2.61 0.36-3.84l-4.19-7.55c-0.75-1.36-0.5-3.06 0.64-4.13l8.04-7.6c1.14-1.07 1.4-2.79 0.64-4.15l-11.51-20.5c-0.48-0.85-0.57-1.87-0.26-2.78l6.46-18.74h-0.01l-32.63-18.1c-1.92-1.06-4.33-0.06-4.93 2.05l-4.57 16c-0.83 2.88-4.7 3.37-6.22 0.78l-13.96-23.82c-0.72-1.23-2.14-1.88-3.55-1.63l-55.71 10.24c-1.77 0.33-3.49-0.78-3.92-2.52l-0.73-2.93c-0.45-1.79-2.25-2.9-4.06-2.5l-72.08 16.16c-0.91 0.2-1.71 0.77-2.18 1.58l-17.95 30.03c-0.32 0.53-0.49 1.13-0.49 1.75v21.5c0 2 1.7 3.56 3.68 3.4l71.16-5.65c3.7-0.3 5.13 4.71 1.84 6.42l-15.02 7.78c-2.55 1.32-2.41 5.03 0.24 6.16l14.15 6.06c3.76 1.61 2.03 7.25-1.99 6.48l-30.71-5.98c-1.39-0.28-2.47-1.38-2.71-2.79l-0.71-4.24c-0.47-2.87-4.11-3.86-5.97-1.63l-8.07 9.64c-1.28 1.54-0.97 3.85 0.68 4.99l3.98 2.75c0.97 0.67 1.52 1.78 1.46 2.96l-0.53 11.87c-0.13 3.06 3.52 4.73 5.74 2.62l9.66-9.11c1.21-1.15 3.06-1.24 4.38-0.26l22.86 17.15c0.82 0.62 1.33 1.59 1.36 2.62l0.51 17.25c0.05 1.96-1.55 3.56-3.5 3.51l-75.86-2.15c-1.36-0.04-2.62 0.74-3.19 1.99l-1.37 2.96c-0.75 1.65-0.1 3.58 1.49 4.43l22.55 11.99q0.75 0.4 1.6 0.4h8.22c1.33 0 2.54 0.76 3.09 1.96l21.92 46.9c0.59 1.26 0.35 2.75-0.6 3.77l-4.05 4.33c-1.78 1.9-0.86 5.01 1.67 5.64l25.75 6.37c1.24 0.31 2.56-0.11 3.39-1.07l14.3-16.41c1.22-1.4 3.33-1.57 4.76-0.37l11 9.23c1.57 1.32 3.96 0.95 5.07-0.78l3.66-5.77c1.34-2.1 4.4-2.11 5.74-0.03l17.96 27.91c0.42 0.66 1.07 1.15 1.82 1.4l49.93 16.12c1.66 0.54 3.45-0.26 4.16-1.86l5.07-11.39c0.36-0.82 1.02-1.46 1.85-1.78l19.18-7.62c1.23-0.48 2.07-1.66 2.15-2.98l1.08-20.84c0.07-1.47-0.8-2.82-2.16-3.35l-37.3-14.62c-1.1-0.44-1.9-1.41-2.11-2.57l-6.37-35.32c-0.32-1.78 0.79-3.5 2.55-3.92l37.9-9.17z"/>
				<path class="s2" d="m257.13 83.55l-8.06 7.61c-1.13 1.07-1.39 2.76-0.63 4.12l4.2 7.56c0.68 1.23 0.54 2.75-0.36 3.82l-5.96 7.16c-0.53 0.64-0.81 1.43-0.78 2.26l1.24 53.45c0.04 1.15 0.63 2.2 1.6 2.81l11.97 7.45c0.62 0.38 1.1 0.97 1.37 1.64l1.32 3.36c0.58 1.48 2.12 2.36 3.7 2.12l11.63-1.85c0.84-0.13 1.69 0.05 2.39 0.5l17.58 11.45c1.16 0.75 2.65 0.73 3.79-0.05l16.32-11.24c0.59-0.4 1.29-0.61 2-0.59l10.54 0.2c0.66 0.01 1.3 0.22 1.84 0.59l49.38 33.63c1.15 0.78 2.65 0.78 3.81 0.02l4.98-3.33c1.55-1.02 3.63-0.62 4.68 0.9l9.07 13.15c0.96 1.4 2.81 1.88 4.34 1.11l11.71-5.96c0.82-0.41 1.42-1.13 1.71-2l2.37-7.45c0.41-1.28 1.53-2.2 2.87-2.35l13.53-1.46c1.55-0.17 3.01 0.73 3.55 2.19l5.13 13.74c0.53 1.42 1.93 2.31 3.44 2.21l16.74-1.23c1-0.08 1.93-0.59 2.51-1.41l17.69-24.59q0.46-0.64 1.15-1.01c3.79-2.04 21.97-11.81 22.64-12.04 0.55-0.18 11.97 2.94 17.77 4.54 1.83 0.5 3.7-0.59 4.19-2.42l11.33-43.3q0.19-0.76 0.05-1.51l-2.93-14.99 0.02 0.28-11.45-34.34c-0.46-1.41-1.81-2.35-3.29-2.32l-11.8 0.24c-1 0.02-1.95 0.49-2.57 1.27l-6.77 8.41c-1.51 1.87-4.43 1.63-5.61-0.48l-14.87-26.6c-0.86-1.54-2.77-2.17-4.38-1.43l-71.24 32.71c-1.67 0.77-3.64 0.07-4.45-1.57l-52.37-105.33c-0.66-1.31-2.07-2.06-3.53-1.85l-53.98 7.76c-0.74 0.11-1.5-0.03-2.15-0.4l-15.16-8.55c-1.22-0.68-2.75-0.55-3.83 0.33l-9.49 7.79c-0.99 0.81-1.44 2.11-1.16 3.36l2.67 11.91c0.31 1.36-0.26 2.78-1.42 3.56l-14.32 9.64c-0.61 0.41-1.08 1.02-1.31 1.72l-6.09 17.67c-0.32 0.92-0.22 1.93 0.25 2.77l11.53 20.51c0.76 1.35 0.5 3.06-0.64 4.13z"/>
				<path class="s1" d="m257.13 84.6l-8.06 7.62c-1.13 1.07-1.39 2.76-0.63 4.12l4.2 7.56c0.68 1.23 0.54 2.75-0.36 3.82l-5.96 7.16c-0.53 0.64-0.81 1.43-0.78 2.26l1.24 53.45c0.04 1.14 0.63 2.2 1.6 2.81l11.97 7.45c0.62 0.38 1.1 0.97 1.37 1.64l1.32 3.36c0.58 1.48 2.12 2.36 3.7 2.12l11.63-1.85c0.84-0.13 1.69 0.05 2.39 0.5l17.58 11.45c1.16 0.75 2.65 0.73 3.79-0.05l16.32-11.24c0.59-0.4 1.29-0.61 2-0.59l10.54 0.2c0.66 0.01 1.3 0.22 1.84 0.59l49.38 33.63c1.15 0.78 2.65 0.78 3.81 0.02l4.98-3.33c1.55-1.03 3.63-0.62 4.68 0.9l9.07 13.15c0.96 1.4 2.81 1.88 4.34 1.1l11.71-5.95c0.82-0.41 1.42-1.13 1.71-2l2.37-7.45c0.41-1.28 1.53-2.21 2.87-2.35l13.53-1.47c1.55-0.16 3.01 0.74 3.55 2.2l5.13 13.74c0.53 1.42 1.93 2.31 3.44 2.2l16.74-1.22c1-0.08 1.93-0.59 2.51-1.41l17.69-24.59q0.46-0.64 1.15-1.01c3.79-2.04 21.97-11.81 22.64-12.04 0.55-0.18 11.97 2.94 17.77 4.54 1.83 0.5 3.7-0.59 4.19-2.42l11.33-43.3q0.19-0.76 0.05-1.51l-2.93-14.99 0.02 0.28-11.45-34.34c-0.46-1.41-1.81-2.36-3.29-2.32l-11.8 0.24c-1 0.02-1.95 0.49-2.57 1.27l-6.77 8.41c-1.51 1.87-4.43 1.63-5.61-0.48l-14.87-26.6c-0.86-1.54-2.77-2.17-4.38-1.43l-71.24 32.71c-1.67 0.77-3.64 0.07-4.45-1.57l-52.37-105.33c-0.66-1.31-2.07-2.06-3.53-1.85l-53.98 7.76c-0.74 0.11-1.5-0.03-2.15-0.4l-15.16-8.55c-1.22-0.69-2.75-0.55-3.83 0.33l-9.49 7.78c-0.99 0.82-1.44 2.12-1.16 3.37l2.67 11.9c0.31 1.37-0.26 2.79-1.42 3.57l-14.32 9.64c-0.61 0.41-1.08 1.02-1.31 1.72l-6.09 17.67c-0.32 0.92-0.22 1.93 0.25 2.77l11.53 20.5c0.76 1.36 0.5 3.07-0.64 4.13z"/>
				<path class="s2" d="m471.85 230.29l-0.03 0.04-10.26 35.35c-0.51 1.74 0.43 3.57 2.14 4.18l22.69 8.04c0.99 0.35 1.75 1.13 2.09 2.11l4.48 13.03c0.28 0.83 0.24 1.74-0.13 2.54l-5.3 11.5c-0.84 1.82 0.05 3.97 1.93 4.65l3.47 1.25c2.26 0.81 2.99 3.65 1.4 5.46l-13.28 15.22q-0.55 0.63-0.75 1.43l-3.49 14.2c-0.18 0.73-0.12 1.49 0.18 2.18l7.55 17.41c0.66 1.51 2.29 2.34 3.9 1.97l39.34-8.97c0.86-0.2 1.79-0.05 2.54 0.42l7.59 4.66c0.93 0.57 2.07 0.66 3.07 0.26l66.02-26.85c0.96-0.39 2.06-0.33 2.97 0.19l28.2 15.95c1.7 0.96 3.86 0.31 4.73-1.43l23.29-45.98c0.55-1.09 1.65-1.81 2.88-1.87l15.28-0.75c1.69-0.09 3.05-1.38 3.23-3.05l14.32-133.58c0.16-1.47-0.65-2.88-2-3.48l-29.37-13.22c-0.92-0.41-1.98-0.4-2.89 0.04l-25.51 12.34c-1.73 0.84-3.81 0.08-4.6-1.67l-21.84-48.46c-0.53-1.19-1.69-1.97-3-2.01l-41.16-1.44c-2.11-0.08-3.64-2.03-3.23-4.09l3.23-16.14c0.47-2.31-1.49-4.38-3.82-4.05l-22.84 3.18c-1.78 0.26-3.06 1.83-2.94 3.62l2.73 39.02q0.01 0.2 0.05 0.42l2.89 14.77q0.15 0.77-0.05 1.53l-11.33 43.28c-0.49 1.84-2.38 2.94-4.22 2.43-5.8-1.61-17.2-4.71-17.76-4.53-0.66 0.22-18.83 9.98-22.63 12.03q-0.69 0.37-1.15 1.02l-18.62 25.87z"/>
				<path class="s1" d="m471.85 230.29l-0.03 0.04-10.26 35.35c-0.51 1.74 0.43 3.57 2.14 4.18l22.69 8.04c0.99 0.35 1.75 1.13 2.09 2.11l4.48 13.03c0.28 0.83 0.24 1.74-0.13 2.54l-5.3 11.5c-0.84 1.82 0.05 3.97 1.93 4.65l3.47 1.25c2.26 0.81 2.99 3.65 1.4 5.46l-13.28 15.22q-0.55 0.63-0.75 1.43l-3.49 14.2c-0.18 0.73-0.12 1.49 0.18 2.18l7.55 17.41c0.66 1.51 2.29 2.34 3.9 1.97l39.34-8.97c0.86-0.2 1.79-0.05 2.54 0.42l7.59 4.66c0.93 0.57 2.07 0.66 3.07 0.26l66.02-26.85c0.96-0.39 2.06-0.33 2.97 0.19l28.2 15.95c1.7 0.96 3.86 0.31 4.73-1.43l23.29-45.98c0.55-1.09 1.65-1.81 2.88-1.87l15.28-0.75c1.69-0.09 3.05-1.38 3.23-3.05l14.32-133.58c0.16-1.47-0.65-2.88-2-3.48l-29.37-13.22c-0.92-0.41-1.98-0.4-2.89 0.04l-25.51 12.34c-1.73 0.84-3.81 0.08-4.6-1.67l-21.84-48.46c-0.53-1.19-1.69-1.97-3-2.01l-41.16-1.44c-2.11-0.08-3.64-2.03-3.23-4.09l3.23-16.14c0.47-2.31-1.49-4.38-3.82-4.05l-22.84 3.18c-1.78 0.26-3.06 1.83-2.94 3.62l2.73 39.02q0.01 0.2 0.05 0.42l2.89 14.77q0.15 0.77-0.05 1.53l-11.33 43.28c-0.49 1.84-2.38 2.94-4.22 2.43-5.8-1.61-17.2-4.71-17.76-4.53-0.66 0.22-18.83 9.98-22.63 12.03q-0.69 0.37-1.15 1.02l-18.62 25.87z"/>
				<path class="s0" d="m480.93 333.68l13.31-15.24c1.57-1.8 0.85-4.62-1.4-5.43l-3.5-1.27c-1.88-0.68-2.77-2.81-1.93-4.62l5.33-11.53c0.37-0.8 0.41-1.71 0.12-2.53l-4.48-13.04c-0.34-0.97-1.1-1.74-2.07-2.09l-22.73-8.06c-1.69-0.61-2.62-2.43-2.13-4.15l10.28-35.38 0.02-0.03-18.33 1.34c-1.51 0.11-2.9-0.78-3.43-2.2l-5.14-13.75c-0.54-1.45-2-2.36-3.55-2.19l-13.53 1.46c-1.33 0.15-2.47 1.07-2.87 2.35l-2.37 7.46c-0.28 0.87-0.89 1.59-1.7 2l-11.71 5.95c-1.51 0.77-3.37 0.3-4.34-1.1l-9.06-13.16c-1.05-1.53-3.14-1.93-4.69-0.9l-4.98 3.32c-1.16 0.76-2.66 0.76-3.8-0.02l-49.38-33.62c-0.55-0.37-1.19-0.57-1.85-0.59l-10.54-0.22c-0.71-0.01-1.41 0.19-1.99 0.6l-16.33 11.23c-1.14 0.79-2.63 0.8-3.78 0.05l-17.59-11.44c-0.71-0.46-1.56-0.64-2.38-0.51l-11.65 1.85c-1.58 0.26-3.12-0.62-3.7-2.12l-1.32-3.35c-0.27-0.68-0.74-1.26-1.37-1.64l-13.52-8.43-37.91 9.17c-1.75 0.42-2.87 2.14-2.54 3.91l6.37 35.33c0.21 1.17 1.01 2.13 2.11 2.56l37.31 14.63c1.36 0.53 2.23 1.87 2.15 3.33l-1.08 20.86c-0.08 1.32-0.91 2.48-2.14 2.98l-19.18 7.62c-0.83 0.32-1.49 0.96-1.85 1.77l-5.69 12.81c-0.39 0.89-0.39 1.89 0 2.77l8.2 18.19c0.75 1.68 2.7 2.45 4.39 1.75l15.87-6.57c3.35-1.39 6.25 2.72 3.84 5.41l-1.78 1.98c-1.44 1.6-1.05 4.11 0.8 5.2l14.95 8.77c1.36 0.8 3.08 0.57 4.17-0.57l12.89-13.36c1.66-1.72 4.53-1.24 5.53 0.93l2.78 5.97c0.9 1.95-0.2 4.24-2.29 4.74l-11.47 2.76c-1.97 0.48-3.08 2.55-2.39 4.46l6.99 19.36c0.21 0.58 0.25 1.21 0.13 1.83l-5.94 29.41c-0.42 2.1 1.19 4.06 3.34 4.06h5.07c1.98 0 3.55-1.68 3.39-3.66l-1.65-21.02c-0.18-2.33 1.98-4.14 4.24-3.56l19.94 5.21c2.24 0.58 4.4-1.18 4.25-3.48-0.46-7.73-1.15-22.18 0.31-20.47 1.53 1.79 7.25 13.13 9.74 18.14 0.7 1.39 2.25 2.14 3.77 1.8l25.99-5.71c0.96-0.21 1.98 0 2.76 0.6l6.61 4.96c1.5 1.13 1.81 3.26 0.68 4.76l-9.7 12.85c-0.89 1.17-2.43 1.64-3.82 1.16l-17.95-6.12c-2.88-0.98-5.49 2.03-4.14 4.74l6.27 12.54c0.58 1.16 1.75 1.88 3.04 1.88h52.55q0.6 0 1.17 0.21l7.63 2.8c3.57 1.31 2.62 6.58-1.18 6.58-2.11 0-3.7 1.91-3.34 3.98l1.46 8.42c0.28 1.63 1.69 2.82 3.34 2.82h21.66c1.03 0 1.99-0.47 2.64-1.26l7.24-8.94c0.97-1.2 2.65-1.6 4.05-0.94l15.81 7.27c1.53 0.7 3.33 0.2 4.25-1.2l24.03-36.09c0.63-0.96 0.75-2.18 0.28-3.23l-7.94-18.33c-0.29-0.68-0.36-1.44-0.18-2.16l3.5-14.21q0.19-0.81 0.74-1.42"/>
				<path class="s1" d="m480.93 333.68l13.31-15.24c1.57-1.8 0.85-4.62-1.4-5.43l-3.5-1.27c-1.88-0.68-2.77-2.81-1.93-4.62l5.33-11.53c0.37-0.8 0.41-1.71 0.12-2.53l-4.48-13.04c-0.34-0.97-1.1-1.74-2.07-2.09l-22.73-8.06c-1.69-0.61-2.62-2.43-2.13-4.15l10.28-35.38 0.02-0.03-18.33 1.34c-1.51 0.11-2.9-0.78-3.43-2.2l-5.14-13.75c-0.54-1.45-2-2.36-3.55-2.19l-13.53 1.46c-1.33 0.15-2.47 1.07-2.87 2.35l-2.37 7.46c-0.28 0.87-0.89 1.59-1.7 2l-11.71 5.95c-1.51 0.77-3.37 0.3-4.34-1.1l-9.06-13.16c-1.05-1.53-3.14-1.93-4.69-0.9l-4.98 3.32c-1.16 0.76-2.66 0.76-3.8-0.02l-49.38-33.62c-0.55-0.37-1.19-0.57-1.85-0.59l-10.54-0.22c-0.71-0.01-1.41 0.19-1.99 0.6l-16.33 11.23c-1.14 0.79-2.63 0.8-3.78 0.05l-17.59-11.44c-0.71-0.46-1.56-0.64-2.38-0.51l-11.65 1.85c-1.58 0.26-3.12-0.62-3.7-2.12l-1.32-3.35c-0.27-0.68-0.74-1.26-1.37-1.64l-13.52-8.43-37.91 9.17c-1.75 0.42-2.87 2.14-2.54 3.91l6.37 35.33c0.21 1.17 1.01 2.13 2.11 2.56l37.31 14.63c1.36 0.53 2.23 1.87 2.15 3.33l-1.08 20.86c-0.08 1.32-0.91 2.48-2.14 2.98l-19.18 7.62c-0.83 0.32-1.49 0.96-1.85 1.77l-5.69 12.81c-0.39 0.89-0.39 1.89 0 2.77l8.2 18.19c0.75 1.68 2.7 2.45 4.39 1.75l15.87-6.57c3.35-1.39 6.25 2.72 3.84 5.41l-1.78 1.98c-1.44 1.6-1.05 4.11 0.8 5.2l14.95 8.77c1.36 0.8 3.08 0.57 4.17-0.57l12.89-13.36c1.66-1.72 4.53-1.24 5.53 0.93l2.78 5.97c0.9 1.95-0.2 4.24-2.29 4.74l-11.47 2.76c-1.97 0.48-3.08 2.55-2.39 4.46l6.99 19.36c0.21 0.58 0.25 1.21 0.13 1.83l-5.94 29.41c-0.42 2.1 1.19 4.06 3.34 4.06h5.07c1.98 0 3.55-1.68 3.39-3.66l-1.65-21.02c-0.18-2.33 1.98-4.14 4.24-3.56l19.94 5.21c2.24 0.58 4.4-1.18 4.25-3.48-0.46-7.73-1.15-22.18 0.31-20.47 1.53 1.79 7.25 13.13 9.74 18.14 0.7 1.39 2.25 2.14 3.77 1.8l25.99-5.71c0.96-0.21 1.98 0 2.76 0.6l6.61 4.96c1.5 1.13 1.81 3.26 0.68 4.76l-9.7 12.85c-0.89 1.17-2.43 1.64-3.82 1.16l-17.95-6.12c-2.88-0.98-5.49 2.03-4.14 4.74l6.27 12.54c0.58 1.16 1.75 1.88 3.04 1.88h52.55q0.6 0 1.17 0.21l7.63 2.8c3.57 1.31 2.62 6.58-1.18 6.58-2.11 0-3.7 1.91-3.34 3.98l1.46 8.42c0.28 1.63 1.69 2.82 3.34 2.82h21.66c1.03 0 1.99-0.47 2.64-1.26l7.24-8.94c0.97-1.2 2.65-1.6 4.05-0.94l15.81 7.27c1.53 0.7 3.33 0.2 4.25-1.2l24.03-36.09c0.63-0.96 0.75-2.18 0.28-3.23l-7.94-18.33c-0.29-0.68-0.36-1.44-0.18-2.16l3.5-14.21q0.19-0.81 0.74-1.42z"/>
			</g>
		</g>
	</g>
</svg>