<?xml version="1.0" encoding="UTF-8"?>
<svg id="Calque_2" data-name="Calque 2" xmlns="http://www.w3.org/2000/svg" viewBox="0 0 570.79 457.66">
  <defs>
    <style>
      .cls-1 {
        fill: #d6c7a4;
      }

      .cls-2 {
        fill: #4c5859;
      }

      .cls-3 {
        fill: #fff;
      }

      .cls-4 {
        fill: #cad510;
      }
    </style>
  </defs>
  <g id="services">
    <g>
      <g>
        <path class="cls-2" d="M340.75,329.23l.17.76c.3,1.32-.8,2.54-2.15,2.37l-4.11-.53c-.52-.07-1.05.08-1.46.41l-8.05,6.44c-.7.56-.93,1.52-.55,2.34l5.59,12.11c.4.86.12,1.89-.67,2.42l-1.55,1.06c-1.25.86-1.08,2.76.3,3.38l12.26,5.53c.63.28,1.35.21,1.92-.18l4.03-2.81c.71-.5,1.66-.46,2.34.08l11.52,9.3c.61.49,1.46.57,2.15.2l29.85-16.17c.41-.22.89-.29,1.34-.19l29.13,6.33c.31.07.6.21.84.41l20.11,16.94c.29.24.64.4,1.01.44h0c2.42.31,2.19,3.88-.24,3.88h-4.71c-.46,0-.91-.17-1.26-.47l-20.26-17.28c-.28-.24-.63-.4-1-.45l-21.92-2.98c-.37-.05-.75,0-1.09.17l-13.44,6.28c-.72.34-1.16,1.08-1.12,1.87l.85,15.28c.04.73-.33,1.42-.96,1.79l-7.92,4.63c-1.45.85-1.22,3.01.38,3.53l26,8.53c.34.11.64.31.87.58l27.53,32.04c.18.21.41.38.66.5l41.16,19.06c.5.23,1.08.24,1.59.02l8.04-3.45c.89-.38,1.36-1.35,1.12-2.28l-6.75-25.96c-.24-.91.21-1.86,1.06-2.25l8.67-4.05c1.23-.58,2.66.26,2.77,1.61l1.68,21.5c.11,1.42,1.65,2.24,2.9,1.55l9.86-5.53c.61-.34.99-.98.99-1.69.01-3.82.1-16.05.66-16.33l15.39-7.69c.66-.33,1.46-.26,2.05.19l14.69,11.13c.76.57,1.81.52,2.51-.13l4.72-4.42c.87-.81.81-2.21-.12-2.95l-16.26-12.87c-.92-.73-.99-2.09-.16-2.91l9.49-9.36c.5-.49.69-1.21.52-1.88l-3.57-13.59c-.24-.93-1.13-1.54-2.09-1.44l-6.48.69c-.67.07-1.33-.21-1.75-.74l-8.71-11.21c-.77-.99-.42-2.43.71-2.96l20.04-9.36c.21-.1.43-.16.66-.18l35.89-3.08c1.15-.1,1.96-1.16,1.75-2.29l-3.49-18.99c-.14-.78-.75-1.4-1.53-1.56l-26.29-5.26c-.75-.15-1.35-.73-1.52-1.48l-2.47-10.88c-.28-1.22.65-2.38,1.9-2.38h20.4c.82,0,1.55-.52,1.83-1.29l.41-1.14c.34-.95-.1-2.01-1.02-2.43l-20.29-9.26c-.51-.23-.9-.68-1.06-1.22l-9.88-33.73s-.02-.07-.03-.1l-4.87-13.78c-.27-.77-.99-1.28-1.8-1.3l-59.46-1.12c-.4,0-.8.11-1.14.34l-112.42,76.8c-.25.17-.45.39-.6.66l-5.73,10.21c-.38.68-.49,1.47-.32,2.22Z"/>
        <path class="cls-3" d="M469.1,457.66c-.37,0-.74-.08-1.08-.24l-41.16-19.06c-.34-.16-.63-.38-.87-.66l-27.53-32.04c-.16-.18-.36-.32-.59-.39l-26-8.53c-.98-.32-1.65-1.15-1.76-2.17-.11-1.02.37-1.98,1.26-2.49l7.92-4.63c.43-.25.68-.72.65-1.22l-.85-15.28c-.06-1.06.52-2.03,1.48-2.47l13.44-6.28c.45-.21.94-.29,1.44-.22l21.92,2.98c.49.07.95.27,1.32.59l20.27,17.28c.24.2.54.32.86.32h4.71c.92,0,1.28-.67,1.32-1.24s-.24-1.28-1.15-1.4c-.49-.06-.96-.26-1.34-.58l-20.11-16.94c-.16-.14-.36-.23-.57-.28l-29.13-6.33c-.31-.07-.63-.02-.91.13l-29.84,16.17c-.92.5-2.03.39-2.84-.26l-11.52-9.3c-.46-.37-1.11-.39-1.59-.06l-4.03,2.81c-.74.52-1.71.61-2.53.24l-12.26-5.53c-.86-.39-1.42-1.18-1.5-2.12-.08-.94.33-1.82,1.11-2.35l1.55-1.06c.53-.37.72-1.06.45-1.65l-5.59-12.11c-.5-1.08-.2-2.35.73-3.09l8.05-6.44c.54-.43,1.25-.63,1.94-.54l4.11.53c.43.06.85-.1,1.15-.42.29-.32.41-.76.31-1.18l-.17-.76c-.21-.91-.07-1.85.39-2.67l5.73-10.21c.19-.34.47-.64.79-.87l112.42-76.8c.44-.3.96-.46,1.5-.45l59.46,1.12c1.07.02,2.02.71,2.38,1.72l4.91,13.91,9.88,33.73c.11.37.37.67.72.83l20.29,9.26c1.21.55,1.8,1.96,1.35,3.21l-.41,1.14c-.37,1.02-1.34,1.7-2.42,1.7h-20.4c-.4,0-.78.18-1.03.5-.25.32-.35.72-.26,1.12l2.47,10.88c.12.51.52.9,1.03,1l26.29,5.26c1.04.21,1.83,1.02,2.03,2.06l3.49,18.99c.13.71-.05,1.45-.49,2.03-.44.58-1.1.94-1.83,1l-35.89,3.08c-.16.01-.31.05-.45.12l-20.04,9.36c-.37.17-.63.5-.73.89-.1.39,0,.8.24,1.12l8.71,11.21c.28.36.73.55,1.19.5l6.48-.69c1.27-.14,2.44.66,2.76,1.9l3.57,13.59c.23.89-.03,1.84-.68,2.49l-9.49,9.35c-.27.27-.41.63-.39,1.01.02.38.2.73.5.97l16.26,12.87c.59.47.94,1.16.97,1.91s-.27,1.47-.81,1.98l-4.72,4.42c-.92.86-2.31.93-3.31.17l-14.69-11.13c-.4-.31-.94-.35-1.39-.13l-15.19,7.6c-.28,1.16-.47,7.28-.5,15.87,0,.92-.51,1.78-1.31,2.23l-9.86,5.53c-.77.43-1.69.44-2.47.03-.78-.42-1.28-1.19-1.35-2.07l-1.68-21.5c-.03-.44-.27-.82-.65-1.04-.38-.22-.83-.24-1.23-.06l-8.67,4.05c-.58.27-.88.91-.72,1.53l6.75,25.96c.32,1.24-.3,2.51-1.48,3.01l-8.04,3.44c-.32.14-.67.21-1.01.21ZM395.09,363.2c-.19,0-.38.04-.56.12l-13.44,6.28c-.49.23-.79.73-.76,1.27l.85,15.28c.05.97-.43,1.87-1.27,2.36l-7.92,4.63c-.46.27-.7.75-.65,1.28.06.53.39.95.9,1.12l26,8.53c.45.15.84.41,1.15.77l27.53,32.04c.12.14.27.26.45.34l41.16,19.06c.34.16.73.16,1.08.02l8.04-3.44c.61-.26.92-.91.76-1.55l-6.75-25.96c-.31-1.2.28-2.45,1.4-2.98l8.67-4.05c.77-.36,1.66-.32,2.39.11.73.43,1.2,1.18,1.27,2.02l1.68,21.5c.04.46.29.85.7,1.06.41.22.87.21,1.27-.01l9.86-5.53c.41-.23.67-.67.68-1.14.06-16.41.54-16.65,1-16.89l15.39-7.69c.88-.44,1.92-.34,2.7.25l14.69,11.13c.51.39,1.23.35,1.7-.09l4.72-4.42c.28-.26.43-.64.42-1.02-.02-.39-.2-.74-.5-.98l-16.26-12.87c-.58-.46-.93-1.14-.97-1.88s.24-1.45.76-1.97l9.49-9.36c.34-.33.47-.82.35-1.28l-3.57-13.59c-.17-.64-.76-1.05-1.42-.98l-6.48.69c-.89.1-1.76-.27-2.31-.98l-8.71-11.21c-.48-.62-.65-1.42-.47-2.18.19-.76.7-1.39,1.41-1.73l20.04-9.36c.28-.13.57-.21.87-.23l35.89-3.08c.38-.03.71-.21.94-.52.23-.3.32-.67.25-1.04l-3.49-18.99c-.1-.54-.51-.95-1.04-1.06l-26.29-5.26c-.99-.2-1.78-.97-2-1.95l-2.47-10.88c-.17-.77,0-1.56.5-2.17.49-.62,1.22-.97,2.01-.97h20.4c.56,0,1.06-.35,1.24-.88l.41-1.14c.23-.64-.07-1.37-.7-1.65l-20.29-9.26c-.68-.31-1.19-.9-1.4-1.62l-9.88-33.73-4.89-13.85c-.18-.52-.67-.87-1.22-.88l-59.46-1.12c-.3-.01-.54.07-.77.23l-112.42,76.8c-.17.11-.31.27-.41.44l-5.73,10.21c-.3.54-.4,1.17-.26,1.78l.17.76c.19.82-.04,1.68-.6,2.3s-1.4.93-2.23.82l-4.11-.53c-.36-.05-.72.06-.99.28l-8.05,6.44c-.48.38-.63,1.03-.37,1.59l5.59,12.11c.53,1.14.16,2.49-.88,3.2l-1.55,1.06c-.4.27-.61.73-.57,1.21.04.48.33.89.77,1.09l12.26,5.53c.42.19.92.14,1.3-.12l4.03-2.81c.93-.65,2.2-.61,3.09.11l11.52,9.3c.42.34.99.39,1.46.13l29.84-16.17c.54-.29,1.17-.38,1.77-.25l29.13,6.33c.41.09.79.28,1.11.55l20.11,16.94c.2.16.43.27.69.3,1.57.2,2.32,1.52,2.25,2.71-.08,1.2-.98,2.41-2.57,2.41h-4.71c-.61,0-1.2-.22-1.67-.62l-20.26-17.28c-.19-.17-.43-.27-.68-.3l-21.92-2.98c-.06,0-.12-.01-.18-.01Z"/>
      </g>
      <g>
        <path class="cls-4" d="M191.42,143.68l-4.29-44.18c-.06-.65.12-1.32.52-1.87l4.51-6.2c.68-.94.71-2.16.08-3.07l-3.9-5.61c-.7-1.01-.58-2.38.29-3.32l6.19-6.7c.87-.94.99-2.31.28-3.32l-10.64-15.1c-.44-.62-.57-1.41-.36-2.15l4.23-15.18h0s-27.75-11.34-27.75-11.34c-1.63-.67-3.55.31-3.94,2l-2.91,12.86c-.53,2.32-3.69,3.04-5.08,1.14l-12.71-17.4c-.66-.9-1.86-1.29-3.01-.97l-45.56,12.67c-1.45.4-2.93-.32-3.37-1.65l-.74-2.23c-.45-1.37-1.99-2.08-3.47-1.61l-59.54,18.83c-.76.24-1.4.76-1.77,1.43l-14.1,25.41c-.25.45-.37.95-.35,1.44l.72,17.22c.07,1.6,1.56,2.7,3.23,2.4l59.82-10.88c3.1-.56,4.51,3.3,1.81,4.96l-12.31,7.57c-2.1,1.29-1.84,4.25.44,4.92l12.18,3.58c3.23.95,2.01,5.65-1.4,5.39l-26.17-2.03c-1.19-.09-2.15-.89-2.4-2l-.76-3.36c-.51-2.27-3.62-2.73-5.11-.77l-6.47,8.5c-1.03,1.36-.68,3.19.76,3.96l3.48,1.86c.84.45,1.35,1.3,1.35,2.25v9.67c0,2.5,3.16,3.52,4.98,1.6l7.84-8.28c.98-1.03,2.54-1.29,3.7-.6l20.06,11.77c.73.43,1.19,1.17,1.26,2l1.17,13.98c.13,1.59-1.16,3.05-2.82,3.19l-64.79,5.42c-1.17.1-2.22.86-2.67,1.93l-1.07,2.57c-.59,1.42.04,2.95,1.44,3.5l19.77,7.71c.43.17.91.23,1.39.17l7.05-.79c1.13-.13,2.19.39,2.72,1.32l20.66,36.7c.56.99.42,2.26-.36,3.2l-3.31,4.02c-1.45,1.76-.53,4.27,1.67,4.54l22.42,2.75c1.08.13,2.18-.34,2.86-1.23l11.51-15.1c.98-1.28,2.78-1.63,4.05-.78l9.83,6.59c1.41.95,3.43.4,4.29-1.15l2.84-5.15c1.03-1.87,3.64-2.18,4.89-.58l16.71,21.42c.4.51.97.86,1.62.98l43.36,8.44c1.44.28,2.92-.57,3.42-1.97l3.63-9.99c.26-.71.79-1.31,1.47-1.67l15.74-8.21c1.01-.53,1.65-1.58,1.63-2.68l-.35-17.28c-.02-1.21-.84-2.23-2.02-2.54l-32.22-8.4c-.95-.25-1.68-.97-1.92-1.9l-7.3-28.23c-.36-1.41.48-2.91,1.93-3.42l31.17-10.95h0Z"/>
        <path class="cls-3" d="M176.81,241.6c-.22,0-.45-.02-.67-.06l-43.36-8.44c-.8-.16-1.51-.59-2-1.21l-16.71-21.42c-.44-.56-1.12-.85-1.86-.79-.84.07-1.58.55-1.99,1.28l-2.84,5.15c-.51.92-1.39,1.59-2.41,1.84-.97.23-1.98.06-2.77-.47l-9.83-6.59c-.99-.67-2.43-.38-3.21.64l-11.51,15.1c-.82,1.07-2.13,1.64-3.44,1.47l-22.42-2.75c-1.23-.15-2.23-.91-2.68-2.03-.47-1.18-.24-2.5.61-3.53l3.31-4.02c.61-.75.73-1.73.3-2.5l-20.66-36.7c-.4-.71-1.23-1.1-2.1-1.01l-7.05.79c-.58.07-1.16,0-1.68-.21l-19.77-7.71c-.82-.32-1.46-.93-1.8-1.73-.35-.82-.34-1.74.01-2.59l1.07-2.57c.54-1.29,1.79-2.2,3.2-2.32l64.79-5.42c.64-.05,1.24-.35,1.67-.84.43-.48.63-1.07.58-1.67l-1.17-13.98c-.05-.64-.4-1.19-.96-1.52l-20.06-11.77c-.92-.54-2.15-.33-2.93.49l-7.84,8.28c-1.06,1.12-2.65,1.49-4.04.94-1.25-.5-2.02-1.63-2.02-2.97v-9.67c0-.72-.38-1.36-1.02-1.7l-3.48-1.86c-.84-.45-1.41-1.2-1.61-2.11-.21-.95.03-1.96.65-2.78l6.47-8.5c.88-1.15,2.35-1.7,3.75-1.4,1.27.28,2.2,1.18,2.48,2.41l.76,3.35c.19.85.91,1.44,1.84,1.51l26.17,2.03c1.51.12,2.39-.92,2.58-1.94.15-.83-.13-1.85-1.4-2.22l-12.18-3.58c-1.25-.37-2.13-1.37-2.29-2.63-.18-1.35.47-2.66,1.7-3.42l12.31-7.57c1.19-.73,1.28-1.86,1-2.6-.27-.71-1.05-1.46-2.37-1.22l-59.82,10.88c-1.01.18-2.03-.06-2.8-.67-.72-.57-1.13-1.4-1.17-2.32l-.72-17.22c-.03-.61.12-1.22.43-1.77l14.1-25.41c.45-.81,1.23-1.44,2.13-1.73l59.54-18.83c1.82-.57,3.69.31,4.25,2.01l.74,2.23c.33,1.01,1.47,1.55,2.6,1.24l45.56-12.67c1.39-.39,2.87.1,3.68,1.2l12.71,17.4c.49.67,1.3.96,2.18.78.71-.15,1.55-.67,1.79-1.69l2.91-12.86c.22-.97.87-1.81,1.79-2.29.94-.49,2.03-.55,2.99-.15l27.4,11.2,1.26-1.06-.53,1.94-4.23,15.18c-.16.56-.06,1.16.27,1.63l10.64,15.1c.88,1.25.75,2.94-.33,4.1l-6.19,6.7c-.67.73-.77,1.77-.24,2.54l3.9,5.61c.78,1.13.75,2.65-.08,3.8l-4.51,6.2c-.31.43-.45.94-.41,1.44l4.36,44.67-31.65,11.12c-1.14.4-1.81,1.58-1.53,2.67l7.3,28.23c.19.72.74,1.26,1.47,1.46l32.22,8.4c1.45.38,2.45,1.64,2.48,3.13l.35,17.28c.03,1.34-.74,2.62-1.96,3.25l-15.74,8.21c-.55.28-.96.75-1.17,1.32l-3.63,9.99c-.53,1.47-1.95,2.43-3.46,2.43ZM112.4,208.42c1.06,0,2.01.46,2.65,1.27l16.71,21.42c.3.39.75.66,1.25.76l43.36,8.44c1.14.22,2.31-.45,2.72-1.57l3.63-9.99c.31-.86.94-1.58,1.77-2.01l15.74-8.21c.8-.42,1.31-1.25,1.29-2.12l-.35-17.28c-.02-.93-.64-1.71-1.55-1.95l-32.22-8.4c-1.16-.3-2.07-1.21-2.37-2.35l-7.3-28.23c-.44-1.72.58-3.55,2.33-4.17l30.71-10.79-4.24-43.7c-.08-.81.15-1.62.64-2.3l4.51-6.2c.53-.73.55-1.65.07-2.35l-3.9-5.61c-.87-1.25-.73-2.94.34-4.1l6.19-6.7c.67-.73.76-1.77.23-2.53l-10.64-15.1c-.55-.78-.71-1.75-.45-2.68l4.08-14.64-27.24-11.14c-.62-.25-1.32-.21-1.94.11-.59.31-1.01.84-1.15,1.45l-2.91,12.86c-.3,1.34-1.36,2.35-2.75,2.64-1.35.28-2.67-.21-3.44-1.27l-12.71-17.4c-.5-.69-1.44-.99-2.34-.74l-45.56,12.67c-1.77.49-3.58-.41-4.13-2.05l-.74-2.23c-.34-1.05-1.52-1.58-2.69-1.21l-59.54,18.83c-.6.19-1.12.61-1.42,1.14l-14.1,25.41c-.19.35-.29.73-.27,1.11l.72,17.21c.02.55.27,1.05.7,1.39.48.38,1.13.54,1.79.42l59.82-10.88c1.94-.35,3.28.75,3.76,2,.49,1.28.21,3.05-1.51,4.11l-12.31,7.57c-.96.59-1.21,1.52-1.12,2.19.1.77.63,1.37,1.41,1.6l12.18,3.58c1.93.57,2.53,2.24,2.28,3.65-.29,1.6-1.73,3.12-3.9,2.96l-26.17-2.03c-1.46-.11-2.65-1.11-2.96-2.48l-.76-3.36c-.17-.76-.73-1.29-1.52-1.46-.93-.2-1.9.17-2.49.94l-6.47,8.5c-.4.52-.55,1.16-.42,1.76.12.55.47,1.01.98,1.28l3.48,1.86c1.04.56,1.68,1.63,1.68,2.8v9.67c0,.82.46,1.5,1.23,1.81.91.36,1.96.11,2.67-.64l7.84-8.28c1.18-1.24,3.06-1.54,4.47-.71l20.06,11.77c.91.54,1.48,1.44,1.57,2.49l1.17,13.98c.08.94-.24,1.87-.89,2.6-.65.73-1.54,1.18-2.5,1.26l-64.79,5.42c-.94.08-1.79.69-2.15,1.55l-1.07,2.57c-.23.54-.23,1.12-.02,1.62.2.48.6.85,1.1,1.05l19.77,7.71c.34.13.71.18,1.09.14l7.05-.79c1.38-.16,2.69.49,3.33,1.64l20.66,36.7c.69,1.22.52,2.76-.42,3.9l-3.31,4.02c-.56.68-.71,1.52-.41,2.27.28.7.89,1.15,1.67,1.25l22.42,2.75c.87.1,1.74-.27,2.29-.99l11.51-15.09c1.19-1.56,3.34-1.96,4.9-.92l9.83,6.59c.51.34,1.14.45,1.78.29.69-.17,1.27-.61,1.61-1.23l2.84-5.15c.61-1.11,1.73-1.83,2.98-1.93.1,0,.2-.01.3-.01Z"/>
        <path class="cls-1" d="M194.91,72.51l-6.2,6.71c-.87.94-.99,2.31-.29,3.31l3.91,5.62c.63.91.61,2.13-.07,3.07l-4.51,6.21c-.4.55-.58,1.21-.52,1.86l4.14,42.71c.09.92.65,1.72,1.5,2.12l10.41,4.91c.54.25.97.68,1.24,1.2l1.3,2.59c.58,1.15,1.91,1.72,3.21,1.37l9.58-2.58c.68-.18,1.4-.12,2.02.19l15.34,7.61c1.01.5,2.25.34,3.14-.39l12.79-10.6c.46-.38,1.02-.61,1.61-.67l8.73-.81c.55-.05,1.09.05,1.57.3l43.11,22.52c1,.52,2.24.39,3.13-.34l3.86-3.15c1.19-.98,2.94-.85,3.92.29l8.46,9.78c.9,1.04,2.46,1.25,3.65.48l9.16-5.91c.63-.41,1.08-1.05,1.24-1.77l1.36-6.23c.23-1.07,1.08-1.92,2.17-2.16l10.95-2.44c1.25-.28,2.51.31,3.08,1.43l5.3,10.58c.55,1.09,1.76,1.68,2.99,1.45l13.57-2.56c.81-.15,1.52-.65,1.93-1.37l12.32-21.34c.21-.36.5-.67.84-.91,2.9-1.97,16.76-11.41,17.28-11.64.43-.2,9.92,1.24,14.73,1.99,1.52.23,2.94-.8,3.16-2.3l5.23-35.14c.06-.4.03-.81-.1-1.19l-3.67-11.45.04.21-12.13-25.71c-.5-1.05-1.64-1.67-2.82-1.52l-9.37,1.19c-.8.1-1.51.54-1.95,1.2l-4.69,7.1c-1.05,1.59-3.41,1.65-4.53.11l-14.09-19.36c-.82-1.12-2.39-1.44-3.62-.74l-54.73,31.54c-1.29.75-2.95.37-3.73-.85L270.12,1.84c-.61-.95-1.81-1.41-2.96-1.13l-43.11,10.35c-.6.14-1.22.1-1.77-.13l-12.82-5.34c-1.03-.43-2.26-.2-3.09.57l-7.26,6.77c-.76.71-1.05,1.75-.75,2.7l2.87,8.98c.33,1.03-.05,2.18-.95,2.88l-11.14,8.69c-.48.37-.82.88-.98,1.44l-3.99,14.31c-.21.75-.08,1.53.36,2.15l10.65,15.11c.71,1,.59,2.37-.28,3.31"/>
        <path class="cls-3" d="M328.36,177.89c-.96,0-1.91-.4-2.57-1.16l-8.46-9.78c-.76-.88-2.12-.97-3.05-.21l-3.86,3.15c-1.09.89-2.59,1.05-3.82.41l-43.11-22.52c-.37-.19-.79-.28-1.22-.23l-8.73.81c-.47.04-.9.22-1.27.53l-12.79,10.6c-1.08.9-2.58,1.08-3.81.47l-15.34-7.61c-.48-.24-1.04-.29-1.58-.14l-9.58,2.58c-1.57.42-3.23-.29-3.93-1.69l-1.3-2.59c-.2-.4-.53-.72-.94-.91l-10.41-4.91c-1.05-.5-1.74-1.48-1.85-2.62l-4.14-42.71c-.08-.8.15-1.62.64-2.29l4.51-6.21c.53-.72.55-1.64.07-2.34l-3.91-5.62c-.87-1.25-.73-2.94.34-4.1l6.2-6.71c.67-.73.76-1.76.22-2.53l-10.65-15.11c-.55-.78-.71-1.75-.45-2.68l3.99-14.31c.19-.69.62-1.32,1.2-1.77l11.14-8.69c.7-.55.99-1.41.74-2.2l-2.87-8.98c-.38-1.18-.03-2.47.92-3.35l7.26-6.77c1.01-.95,2.49-1.22,3.75-.69l12.82,5.34c.43.18.92.22,1.38.1L267.02.1c1.42-.34,2.88.22,3.63,1.4l49.71,77.2c.6.93,1.9,1.22,2.89.64l54.73-31.54c1.49-.86,3.44-.46,4.44.91l14.09,19.36c.41.56,1.06.86,1.76.86.72-.02,1.35-.36,1.74-.95l4.69-7.1c.54-.81,1.41-1.35,2.39-1.48l9.37-1.19c1.46-.19,2.85.57,3.47,1.87l12.08,25.58h.05s3.67,11.44,3.67,11.44c.15.47.19.98.12,1.47l-5.23,35.14c-.13.88-.6,1.67-1.33,2.2-.74.54-1.64.76-2.55.62-9.54-1.48-13.67-2-14.43-2h-.01c-.94.57-9.18,6.15-17.12,11.56-.27.18-.49.42-.65.7l-12.32,21.34c-.5.87-1.36,1.48-2.36,1.67l-13.57,2.56c-1.48.28-2.99-.45-3.66-1.79l-5.3-10.58c-.43-.86-1.41-1.32-2.38-1.1l-10.95,2.44c-.85.19-1.51.85-1.69,1.68l-1.36,6.23c-.19.88-.74,1.67-1.51,2.17l-9.16,5.91c-.58.38-1.24.56-1.9.56ZM315.72,164.98c.96,0,1.91.39,2.57,1.15l8.46,9.78c.69.8,1.92.96,2.84.37l9.16-5.91c.49-.32.84-.82.97-1.38l1.36-6.23c.29-1.31,1.32-2.34,2.65-2.64l10.95-2.44c1.53-.34,3.08.38,3.77,1.76l5.3,10.58c.42.84,1.37,1.29,2.31,1.12l13.57-2.56c.64-.12,1.18-.51,1.5-1.06l12.32-21.35c.25-.44.61-.83,1.03-1.11,5.04-3.43,16.82-11.45,17.37-11.7.26-.12.66-.3,15.09,1.94.58.09,1.15-.05,1.61-.39.46-.34.75-.82.83-1.38l5.23-35.14c.04-.3.02-.62-.07-.91l-3.6-11.16-12.13-25.71c-.38-.81-1.26-1.28-2.18-1.17l-9.37,1.19c-.62.08-1.17.42-1.51.93l-4.69,7.1c-.61.92-1.64,1.48-2.75,1.51-1.13.01-2.16-.49-2.8-1.37l-14.09-19.36c-.63-.86-1.86-1.11-2.8-.56l-54.73,31.54c-1.59.92-3.6.46-4.57-1.05L269.6,2.18c-.47-.73-1.39-1.08-2.29-.86l-43.11,10.35c-.72.17-1.49.11-2.16-.17l-12.82-5.34c-.8-.33-1.77-.15-2.42.45l-7.25,6.77c-.59.55-.81,1.33-.58,2.05l2.87,8.98c.41,1.27-.06,2.71-1.16,3.56l-11.14,8.69c-.37.29-.64.69-.76,1.12l-3.99,14.31c-.16.56-.06,1.15.27,1.62l10.65,15.11c.88,1.25.75,2.93-.33,4.1l-6.2,6.71c-.67.73-.77,1.77-.23,2.53l3.91,5.62c.78,1.12.75,2.65-.08,3.79l-4.51,6.21c-.31.43-.45.94-.4,1.44l4.14,42.71c.07.7.5,1.31,1.14,1.61l10.41,4.91c.66.31,1.2.84,1.53,1.48l1.3,2.59c.45.89,1.47,1.32,2.49,1.04l9.58-2.58c.83-.23,1.7-.14,2.46.23l15.34,7.61c.79.39,1.76.27,2.46-.31l12.79-10.6c.56-.46,1.23-.74,1.95-.81l8.73-.81c.66-.06,1.33.07,1.91.37l43.11,22.52c.78.41,1.74.3,2.45-.27l3.86-3.15c.65-.53,1.44-.79,2.22-.79Z"/>
        <path class="cls-1" d="M381.15,169.15l-.02.03-5.45,29.59c-.27,1.46.65,2.86,2.1,3.19l19.29,4.36c.83.19,1.53.75,1.89,1.52l4.8,10.19c.31.65.35,1.4.12,2.09l-3.36,9.94c-.53,1.58.39,3.25,2,3.63l2.95.69c1.93.45,2.78,2.71,1.64,4.35l-9.62,13.87c-.26.38-.43.81-.49,1.26l-1.66,12.13c-.08.62.03,1.25.34,1.79l7.77,13.73c.67,1.19,2.1,1.72,3.4,1.25l31.68-11.49c.7-.25,1.46-.22,2.13.09l6.68,3.09c.82.38,1.76.34,2.55-.1l51.36-28.79c.75-.42,1.64-.47,2.43-.14l24.51,10.28c1.48.62,3.16-.13,3.69-1.65l13.98-39.76c.33-.94,1.14-1.62,2.12-1.79l12.17-2.08c1.34-.23,2.3-1.4,2.26-2.77l-2.79-107.14c-.03-1.16-.81-2.18-1.93-2.53l-24.46-7.72c-.77-.24-1.6-.14-2.27.28l-18.91,11.83c-1.29.81-3.01.4-3.81-.9l-21.95-35.74c-.53-.87-1.53-1.38-2.56-1.3l-32.71,2.39c-1.68.12-3.08-1.25-2.93-2.89l1.1-12.73c.16-1.82-1.58-3.25-3.39-2.8l-17.82,4.38c-1.39.34-2.27,1.67-2.02,3.05l5.6,30.05c.02.11.05.22.08.32l3.62,11.29c.12.39.16.8.1,1.2l-5.23,35.12c-.22,1.51-1.65,2.55-3.18,2.31-4.82-.75-14.29-2.18-14.72-1.99-.52.24-14.37,9.66-17.27,11.64-.35.24-.64.55-.85.91l-12.97,22.47Z"/>
        <path class="cls-3" d="M405.88,283.56c-1.21,0-2.35-.64-2.98-1.74l-7.77-13.73c-.37-.65-.52-1.43-.42-2.18l1.66-12.13c.08-.55.28-1.08.6-1.53l9.62-13.87c.43-.62.52-1.37.25-2.06-.26-.68-.82-1.16-1.52-1.32l-2.95-.69c-.93-.22-1.74-.82-2.2-1.66-.47-.84-.56-1.86-.25-2.78l3.36-9.94c.18-.54.15-1.12-.09-1.63l-4.8-10.19c-.28-.6-.82-1.03-1.47-1.17l-19.29-4.36c-1.78-.4-2.91-2.12-2.58-3.92l5.47-29.69.07-.13,12.96-22.47c.26-.45.61-.82,1.04-1.12,5.04-3.43,16.82-11.45,17.36-11.69.26-.12.65-.3,15.07,1.94.58.09,1.15-.05,1.62-.4.46-.34.76-.83.84-1.39l5.23-35.12c.04-.31.02-.62-.07-.91l-3.62-11.29c-.04-.13-.08-.26-.1-.4l-5.6-30.05c-.32-1.69.77-3.35,2.48-3.77l17.82-4.38c1.06-.26,2.2,0,3.03.72.81.7,1.23,1.7,1.14,2.75l-1.1,12.73c-.05.58.16,1.16.58,1.58.44.45,1.05.68,1.69.63l32.71-2.39c1.27-.1,2.47.52,3.14,1.6l21.95,35.74c.3.49.77.83,1.34.96.56.13,1.13.04,1.61-.26l18.91-11.83c.83-.52,1.85-.64,2.79-.35l24.46,7.72c1.38.44,2.33,1.69,2.37,3.11l2.79,107.14c.04,1.69-1.12,3.12-2.78,3.4l-12.17,2.08c-.75.13-1.38.66-1.63,1.38l-13.98,39.76c-.32.9-.97,1.61-1.83,1.99-.86.38-1.81.39-2.69.03l-24.51-10.28c-.62-.26-1.3-.22-1.89.11l-51.36,28.79c-.96.54-2.13.58-3.12.13l-6.68-3.09c-.52-.24-1.11-.27-1.66-.07l-31.68,11.49c-.39.14-.79.21-1.18.21ZM381.72,169.41l-5.43,29.48c-.21,1.13.51,2.22,1.63,2.47l19.29,4.36c1.03.23,1.87.91,2.32,1.86l4.8,10.19c.38.8.43,1.71.14,2.56l-3.36,9.94c-.2.6-.15,1.23.16,1.77.3.54.79.91,1.39,1.05l2.95.69c1.1.26,2,1.04,2.41,2.09.41,1.07.27,2.28-.39,3.23l-9.62,13.87c-.2.29-.34.63-.39.99l-1.66,12.13c-.07.48.03.98.26,1.4l7.77,13.73c.52.93,1.64,1.33,2.65.97l31.68-11.49c.86-.31,1.79-.27,2.61.11l6.68,3.09c.63.29,1.37.26,1.98-.08l51.36-28.79c.92-.52,2.01-.58,2.98-.17l24.51,10.28c.55.23,1.15.23,1.7-.02.55-.24.96-.69,1.16-1.26l13.98-39.76c.41-1.15,1.4-1.99,2.6-2.2l12.17-2.08c1.04-.18,1.77-1.08,1.74-2.14l-2.79-107.14c-.02-.89-.62-1.68-1.5-1.95l-24.46-7.72c-.6-.19-1.24-.11-1.75.21l-18.91,11.83c-.76.48-1.67.63-2.56.42-.89-.21-1.64-.75-2.12-1.52l-21.95-35.74c-.41-.67-1.19-1.07-1.98-1l-32.71,2.39c-1,.08-1.97-.29-2.67-1-.68-.68-1.02-1.62-.93-2.57l1.1-12.73c.06-.64-.2-1.26-.7-1.69-.53-.46-1.23-.62-1.92-.45l-17.82,4.38c-1.06.26-1.74,1.28-1.55,2.32l5.6,30.05c.02.08.04.17.06.25l3.62,11.29c.15.47.19.98.12,1.48l-5.23,35.13c-.13.89-.61,1.67-1.34,2.21-.74.54-1.65.76-2.56.62-9.58-1.49-13.67-2-14.42-2-.94.57-9.18,6.15-17.12,11.55-.27.19-.5.43-.66.71l-12.93,22.41Z"/>
        <path class="cls-4" d="M397.38,252.63l9.64-13.9c1.13-1.64.29-3.88-1.63-4.33l-3-.7c-1.6-.37-2.52-2.04-1.99-3.6l3.37-9.97c.23-.69.19-1.43-.12-2.08l-4.8-10.2c-.36-.77-1.05-1.32-1.88-1.51l-19.31-4.37c-1.44-.33-2.36-1.72-2.09-3.17l5.46-29.6.02-.03-14.86,2.8c-1.22.23-2.44-.36-2.98-1.45l-5.3-10.59c-.56-1.12-1.83-1.71-3.07-1.43l-10.95,2.44c-1.08.24-1.93,1.09-2.17,2.16l-1.36,6.23c-.16.73-.6,1.36-1.24,1.77l-9.16,5.92c-1.19.77-2.75.56-3.65-.48l-8.46-9.78c-.98-1.14-2.73-1.26-3.92-.29l-3.86,3.16c-.89.73-2.13.86-3.13.34l-43.12-22.52c-.48-.25-1.02-.35-1.56-.3l-8.73.81c-.59.05-1.15.29-1.61.67l-12.8,10.6c-.89.74-2.13.89-3.14.39l-15.35-7.61c-.62-.3-1.33-.37-2.02-.19l-9.58,2.58c-1.3.35-2.63-.22-3.21-1.37l-1.3-2.59c-.26-.52-.7-.94-1.24-1.2l-11.76-5.55h0s-31.17,10.96-31.17,10.96c-1.44.51-2.29,2-1.92,3.41l7.3,28.24c.24.93.97,1.65,1.92,1.9l32.23,8.4c1.18.31,1.99,1.33,2.01,2.53l.35,17.29c.02,1.1-.61,2.15-1.62,2.68l-15.75,8.21c-.68.35-1.2.95-1.46,1.66l-4.08,11.23c-.28.78-.22,1.62.17,2.32l8.03,14.39c.74,1.33,2.44,1.78,3.84,1.01l13.07-7.12c2.75-1.5,5.46,1.64,3.58,4.14l-1.38,1.84c-1.12,1.49-.63,3.55,1.01,4.28l13.23,5.83c1.2.53,2.64.15,3.49-.91l10.04-12.51c1.29-1.6,3.73-1.49,4.72.21l2.74,4.71c.89,1.53.11,3.56-1.61,4.2l-9.51,3.49c-1.63.6-2.45,2.46-1.74,3.99l7.19,15.57c.22.47.3,1,.23,1.53l-3.11,25.56c-.22,1.84,1.28,3.34,3.11,3.11l4.32-.54c1.69-.21,2.9-1.82,2.64-3.48l-2.81-17.66c-.31-1.95,1.41-3.71,3.37-3.45l17.25,2.32c1.93.26,3.63-1.45,3.35-3.39-.93-6.47-2.52-18.53-1.17-17.25,1.42,1.35,7.03,10.28,9.49,14.24.68,1.1,2.05,1.57,3.31,1.13l21.47-7.5c.8-.28,1.66-.2,2.37.22l5.93,3.48c1.35.79,1.76,2.56.92,3.94l-7.2,11.84c-.66,1.08-1.92,1.64-3.13,1.39l-15.6-3.29c-2.5-.53-4.5,2.28-3.16,4.44l6.21,9.97c.57.92,1.62,1.41,2.71,1.27l44.33-5.56c.34-.04.67-.02,1,.05l6.63,1.56c3.1.73,2.73,5.3-.46,5.7-1.77.22-2.97,2.01-2.5,3.73l1.9,7c.37,1.35,1.65,2.21,3.05,2.04l18.22-2.31c.86-.11,1.64-.61,2.11-1.35l5.33-8.34c.72-1.12,2.09-1.63,3.32-1.23l13.84,4.48c1.33.43,2.79-.19,3.45-1.47l16.86-32.84c.44-.87.43-1.9-.04-2.73l-8.18-14.45c-.3-.54-.42-1.16-.34-1.78l1.66-12.14c.06-.45.23-.88.49-1.25"/>
        <path class="cls-3" d="M340.3,328.69c-1.53,0-2.87-1.01-3.28-2.52l-1.9-7c-.27-1-.09-2.07.49-2.94.58-.87,1.51-1.45,2.53-1.58,1.34-.17,2-1.24,2.05-2.22.04-.85-.36-1.94-1.65-2.25l-6.63-1.56c-.25-.06-.52-.07-.78-.04l-44.33,5.55c-1.34.17-2.61-.43-3.32-1.56l-6.21-9.97c-.75-1.21-.7-2.7.14-3.9.85-1.22,2.26-1.78,3.68-1.49l15.6,3.29c.95.2,1.94-.24,2.46-1.1l7.2-11.84c.33-.54.43-1.16.28-1.76-.14-.56-.49-1.03-.98-1.32l-5.93-3.48c-.55-.32-1.23-.38-1.85-.17l-21.48,7.5c-1.54.54-3.21-.03-4.05-1.39-4.25-6.84-7.44-11.7-8.85-13.49-.06,1.4.12,5.3,1.68,16.08.16,1.12-.21,2.23-1.02,3.04-.81.82-1.91,1.2-3.04,1.05l-17.25-2.32c-.73-.1-1.47.16-2,.71-.54.55-.78,1.29-.66,2.02l2.81,17.66c.15.97-.09,1.94-.7,2.75-.6.8-1.51,1.33-2.48,1.45l-4.32.54c-1.07.14-2.1-.21-2.84-.95-.75-.74-1.1-1.78-.97-2.85l3.11-25.56c.05-.41-.01-.82-.18-1.19l-7.19-15.57c-.4-.87-.42-1.88-.04-2.79.39-.95,1.17-1.69,2.13-2.05l9.51-3.49c.67-.25,1.2-.77,1.44-1.45.22-.62.17-1.3-.15-1.85l-2.74-4.71c-.35-.6-.96-.98-1.67-1.03-.78-.06-1.53.28-2.02.9l-10.04,12.51c-1.03,1.28-2.77,1.73-4.23,1.09l-13.23-5.83c-.93-.41-1.62-1.22-1.87-2.2-.27-1.04-.04-2.14.62-3.02l1.38-1.84c.82-1.08.5-2.17-.03-2.78-.52-.61-1.56-1.08-2.75-.43l-13.07,7.12c-1.71.94-3.77.38-4.69-1.26l-8.03-14.39c-.48-.85-.55-1.89-.21-2.83l4.08-11.23c.31-.86.94-1.57,1.76-2l15.75-8.21c.8-.42,1.3-1.24,1.29-2.11l-.35-17.29c-.02-.93-.64-1.71-1.54-1.94l-32.23-8.4c-1.16-.3-2.07-1.2-2.36-2.35l-7.3-28.24c-.44-1.72.58-3.54,2.32-4.16l30.69-10.78-.09-.64,12.81,6.04c.66.31,1.2.84,1.53,1.48l1.3,2.59c.45.89,1.47,1.32,2.49,1.04l9.58-2.58c.83-.22,1.7-.14,2.46.23l15.35,7.61c.79.39,1.75.27,2.46-.32l12.8-10.6c.56-.46,1.23-.74,1.95-.81l8.73-.81c.67-.06,1.33.07,1.91.37l43.12,22.52c.78.41,1.74.3,2.44-.27l3.86-3.16c1.45-1.18,3.59-1.02,4.79.36l8.46,9.78c.7.8,1.92.96,2.84.36l9.16-5.92c.49-.32.84-.82.97-1.38l1.36-6.23c.29-1.31,1.32-2.34,2.64-2.63l10.95-2.44c1.53-.34,3.08.38,3.77,1.76l5.3,10.59c.42.84,1.37,1.29,2.31,1.12l16.18-3.05-.63,1.11-5.44,29.5c-.21,1.12.5,2.2,1.61,2.45l19.31,4.37c1.02.23,1.86.91,2.31,1.85l4.8,10.2c.38.8.43,1.7.14,2.55l-3.37,9.97c-.2.59-.14,1.22.16,1.75.3.53.79.9,1.38,1.04l3,.7c1.09.25,1.99,1.03,2.39,2.08.41,1.06.26,2.26-.39,3.21l-9.64,13.9c-.2.29-.33.63-.38.98l-1.66,12.14c-.07.48.03.97.26,1.39l8.18,14.45c.58,1.02.6,2.27.06,3.32l-16.86,32.84c-.8,1.56-2.57,2.3-4.2,1.78l-13.84-4.48c-.97-.31-2.04.09-2.6.97l-5.33,8.34c-.58.9-1.51,1.5-2.56,1.63l-18.22,2.31c-.15.02-.3.03-.45.03ZM331.4,307.32c.27,0,.53.03.79.09l6.63,1.56c1.91.45,2.69,2.1,2.62,3.53-.08,1.46-1.09,3.14-3.14,3.4-.67.08-1.27.46-1.65,1.03-.38.57-.5,1.27-.32,1.91l1.9,7c.29,1.05,1.28,1.72,2.36,1.58l18.22-2.31c.68-.09,1.29-.48,1.66-1.07l5.33-8.34c.87-1.36,2.53-1.97,4.04-1.49l13.84,4.48c1.05.34,2.18-.15,2.7-1.16l16.86-32.84c.35-.68.34-1.48-.03-2.14l-8.18-14.45c-.37-.65-.52-1.42-.41-2.17l1.66-12.14c.07-.54.28-1.07.59-1.52l9.64-13.9c.43-.61.52-1.36.25-2.05-.26-.67-.81-1.15-1.51-1.31l-3-.7c-.93-.22-1.73-.82-2.19-1.65-.47-.84-.56-1.85-.25-2.76l3.37-9.97c.18-.53.15-1.11-.09-1.61l-4.8-10.2c-.28-.59-.81-1.02-1.45-1.16l-19.31-4.37c-1.77-.4-2.9-2.11-2.57-3.9l5.3-28.73-13.95,2.63c-1.49.28-2.99-.46-3.66-1.79l-5.3-10.59c-.43-.86-1.41-1.32-2.38-1.1l-10.95,2.44c-.85.19-1.51.85-1.69,1.68l-1.36,6.23c-.19.88-.74,1.67-1.51,2.17l-9.16,5.92c-1.44.93-3.36.68-4.46-.6l-8.46-9.78c-.75-.87-2.12-.97-3.05-.21l-3.86,3.16c-1.09.89-2.59,1.05-3.81.41l-43.12-22.52c-.37-.19-.79-.27-1.22-.23l-8.73.81c-.47.04-.9.22-1.27.53l-12.79,10.6c-1.08.9-2.58,1.08-3.81.47l-15.35-7.61c-.48-.24-1.04-.29-1.58-.14l-9.58,2.58c-1.57.42-3.22-.29-3.93-1.69l-1.3-2.59c-.2-.4-.53-.72-.94-.92l-11.53-5.44-30.94,10.87c-1.14.4-1.81,1.57-1.52,2.67l7.3,28.24c.19.72.73,1.26,1.47,1.45l32.23,8.4c1.45.38,2.45,1.63,2.48,3.13l.35,17.29c.03,1.34-.74,2.61-1.96,3.24l-15.75,8.21c-.54.28-.96.75-1.16,1.32l-4.08,11.23c-.22.61-.17,1.26.13,1.8l8.03,14.39c.58,1.03,1.89,1.37,3,.77l13.07-7.12c1.73-.94,3.4-.32,4.3.71.89,1.03,1.26,2.78.08,4.35l-1.38,1.84c-.43.58-.58,1.29-.41,1.95.16.63.58,1.11,1.17,1.37l13.23,5.83c.94.42,2.08.12,2.75-.73l10.04-12.51c.75-.94,1.91-1.45,3.09-1.36,1.13.08,2.1.69,2.66,1.65l2.74,4.71c.51.87.6,1.93.25,2.9-.37,1.02-1.16,1.82-2.18,2.2l-9.51,3.49c-.64.23-1.15.73-1.41,1.35-.25.59-.24,1.23.02,1.79l7.19,15.57c.27.58.37,1.22.29,1.87l-3.11,25.56c-.08.69.14,1.35.61,1.82.47.47,1.12.68,1.8.6l4.32-.54c.64-.08,1.24-.43,1.64-.96.4-.53.56-1.17.46-1.8l-2.81-17.66c-.18-1.13.19-2.25,1-3.09.82-.84,1.93-1.23,3.07-1.08l17.25,2.32c.72.09,1.45-.15,1.98-.69s.78-1.26.67-1.99c-2.49-17.24-1.64-17.68-1.08-17.97.12-.06.53-.23.96.18,1.43,1.35,6.62,9.58,9.59,14.36.53.85,1.59,1.21,2.58.87l21.48-7.5c.97-.34,2.02-.24,2.89.27l5.93,3.48c.78.46,1.34,1.2,1.56,2.09.23.92.08,1.88-.42,2.71l-7.2,11.84c-.8,1.31-2.32,1.99-3.79,1.68l-15.6-3.29c-1.1-.23-1.96.35-2.39.98-.43.61-.68,1.59-.1,2.52l6.21,9.97c.44.71,1.25,1.08,2.1.98l44.33-5.56c.15-.02.29-.03.44-.03Z"/>
      </g>
    </g>
    <path class="cls-3" d="M50.03,81.46c.79,0,1.44.65,1.44,1.44s-.65,1.44-1.44,1.44-1.44-.65-1.44-1.44.65-1.44,1.44-1.44M50.03,79.46c-1.9,0-3.44,1.54-3.44,3.44s1.54,3.44,3.44,3.44,3.44-1.54,3.44-3.44-1.54-3.44-3.44-3.44h0Z"/>
    <path class="cls-3" d="M93.36,192.08c.79,0,1.44.65,1.44,1.44s-.65,1.44-1.44,1.44-1.44-.65-1.44-1.44.65-1.44,1.44-1.44M93.36,190.08c-1.9,0-3.44,1.54-3.44,3.44s1.54,3.44,3.44,3.44,3.44-1.54,3.44-3.44-1.54-3.44-3.44-3.44h0Z"/>
    <path class="cls-3" d="M150.95,54.8c.79,0,1.44.65,1.44,1.44s-.65,1.44-1.44,1.44-1.44-.65-1.44-1.44.65-1.44,1.44-1.44M150.95,52.8c-1.9,0-3.44,1.54-3.44,3.44s1.54,3.44,3.44,3.44,3.44-1.54,3.44-3.44-1.54-3.44-3.44-3.44h0Z"/>
    <path class="cls-3" d="M203.67,242.35c.79,0,1.44.65,1.44,1.44s-.65,1.44-1.44,1.44-1.44-.65-1.44-1.44.65-1.44,1.44-1.44M203.67,240.35c-1.9,0-3.44,1.54-3.44,3.44s1.54,3.44,3.44,3.44,3.44-1.54,3.44-3.44-1.54-3.44-3.44-3.44h0Z"/>
    <path class="cls-3" d="M267.39,175.83c.79,0,1.44.65,1.44,1.44s-.65,1.44-1.44,1.44-1.44-.65-1.44-1.44.65-1.44,1.44-1.44M267.39,173.83c-1.9,0-3.44,1.54-3.44,3.44s1.54,3.44,3.44,3.44,3.44-1.54,3.44-3.44-1.54-3.44-3.44-3.44h0Z"/>
    <path class="cls-3" d="M300.02,270.17c.79,0,1.44.65,1.44,1.44s-.65,1.44-1.44,1.44-1.44-.65-1.44-1.44.65-1.44,1.44-1.44M300.02,268.17c-1.9,0-3.44,1.54-3.44,3.44s1.54,3.44,3.44,3.44,3.44-1.54,3.44-3.44-1.54-3.44-3.44-3.44h0Z"/>
    <path class="cls-3" d="M479.11,173.14c.79,0,1.44.65,1.44,1.44s-.65,1.44-1.44,1.44-1.44-.65-1.44-1.44.65-1.44,1.44-1.44M479.11,171.14c-1.9,0-3.44,1.54-3.44,3.44s1.54,3.44,3.44,3.44,3.44-1.54,3.44-3.44-1.54-3.44-3.44-3.44h0Z"/>
    <path class="cls-3" d="M452.43,367.05c.79,0,1.44.65,1.44,1.44s-.65,1.44-1.44,1.44-1.44-.65-1.44-1.44.65-1.44,1.44-1.44M452.43,365.05c-1.9,0-3.44,1.54-3.44,3.44s1.54,3.44,3.44,3.44,3.44-1.54,3.44-3.44-1.54-3.44-3.44-3.44h0Z"/>
    <path class="cls-3" d="M502.32,277.43c.79,0,1.44.65,1.44,1.44s-.65,1.44-1.44,1.44-1.44-.65-1.44-1.44.65-1.44,1.44-1.44M502.32,275.43c-1.9,0-3.44,1.54-3.44,3.44s1.54,3.44,3.44,3.44,3.44-1.54,3.44-3.44-1.54-3.44-3.44-3.44h0Z"/>
    <path class="cls-3" d="M369.32,356.68c.79,0,1.44.65,1.44,1.44s-.65,1.44-1.44,1.44-1.44-.65-1.44-1.44.65-1.44,1.44-1.44M369.32,354.68c-1.9,0-3.44,1.54-3.44,3.44s1.54,3.44,3.44,3.44,3.44-1.54,3.44-3.44-1.54-3.44-3.44-3.44h0Z"/>
    <path class="cls-3" d="M306.26,80.08c.79,0,1.44.65,1.44,1.44s-.65,1.44-1.44,1.44-1.44-.65-1.44-1.44.65-1.44,1.44-1.44M306.26,78.08c-1.9,0-3.44,1.54-3.44,3.44s1.54,3.44,3.44,3.44,3.44-1.54,3.44-3.44-1.54-3.44-3.44-3.44h0Z"/>
    <path class="cls-3" d="M258,67.91c.79,0,1.44.65,1.44,1.44s-.65,1.44-1.44,1.44-1.44-.65-1.44-1.44.65-1.44,1.44-1.44M258,65.91c-1.9,0-3.44,1.54-3.44,3.44s1.54,3.44,3.44,3.44,3.44-1.54,3.44-3.44-1.54-3.44-3.44-3.44h0Z"/>
    <path class="cls-3" d="M212.99,21.09c.79,0,1.44.65,1.44,1.44s-.65,1.44-1.44,1.44-1.44-.65-1.44-1.44.65-1.44,1.44-1.44M212.99,19.09c-1.9,0-3.44,1.54-3.44,3.44s1.54,3.44,3.44,3.44,3.44-1.54,3.44-3.44-1.54-3.44-3.44-3.44h0Z"/>
    <path class="cls-3" d="M435.26,61.04c.79,0,1.44.65,1.44,1.44s-.65,1.44-1.44,1.44-1.44-.65-1.44-1.44.65-1.44,1.44-1.44M435.26,59.04c-1.9,0-3.44,1.54-3.44,3.44s1.54,3.44,3.44,3.44,3.44-1.54,3.44-3.44-1.54-3.44-3.44-3.44h0Z"/>
    <path class="cls-3" d="M537.15,123.09c.79,0,1.44.65,1.44,1.44s-.65,1.44-1.44,1.44-1.44-.65-1.44-1.44.65-1.44,1.44-1.44M537.15,121.09c-1.9,0-3.44,1.54-3.44,3.44s1.54,3.44,3.44,3.44,3.44-1.54,3.44-3.44-1.54-3.44-3.44-3.44h0Z"/>
    <g>
      <path class="cls-3" d="M38.69,68.58h1.12c1.23,0,2.27.45,2.27,1.84,0,.55-.21,1.02-.67,1.32.81.2,1.29.93,1.29,1.74,0,1.35-1.09,1.89-2.43,1.89h-1.58v-6.79ZM39.44,71.57h.29c.86,0,1.58-.1,1.58-1.15s-.65-1.13-1.58-1.13h-.3v2.29ZM39.44,74.67h.76c.85,0,1.74-.21,1.74-1.24s-1.01-1.21-1.84-1.21h-.66v2.45Z"/>
      <path class="cls-3" d="M44.56,75.37h-.76v-6.79h.98c1.29,0,2.48.34,2.48,1.87,0,1.04-.66,1.78-1.7,1.87l2.16,3.04h-.93l-2.05-2.98h-.19v2.98ZM44.56,71.72h.23c.86,0,1.72-.16,1.72-1.22,0-1.12-.82-1.22-1.73-1.22h-.23v2.44Z"/>
      <path class="cls-3" d="M48.68,68.58h3.52v.7h-2.76v2.02h2.68v.7h-2.68v2.67h2.76v.7h-3.52v-6.79Z"/>
      <path class="cls-3" d="M56.56,69.91c-.27-.47-.59-.74-1.17-.74s-1.13.43-1.13,1.05c0,.58.6.85,1.06,1.06l.45.2c.88.39,1.63.83,1.63,1.91,0,1.19-.95,2.1-2.13,2.1-1.09,0-1.9-.7-2.12-1.76l.74-.21c.1.69.63,1.26,1.36,1.26s1.4-.56,1.4-1.32-.62-1.06-1.25-1.35l-.41-.18c-.79-.36-1.48-.77-1.48-1.74,0-1.05.89-1.73,1.9-1.73.76,0,1.4.39,1.76,1.05l-.6.39Z"/>
      <path class="cls-3" d="M60.32,75.37h-.76v-6.09h-1.64v-.7h4.05v.7h-1.66v6.09Z"/>
    </g>
    <g>
      <path class="cls-3" d="M133.72,63.73l2.47,5.7,2.48-5.7,1.38,7.18h-.77l-.87-4.59h-.02l-2.19,4.87-2.18-4.87h-.02l-.87,4.59h-.77l1.38-7.18Z"/>
      <path class="cls-3" d="M147.64,67.52c0,1.95-1.6,3.5-3.54,3.5s-3.54-1.55-3.54-3.5,1.6-3.52,3.54-3.52,3.54,1.58,3.54,3.52ZM141.32,67.51c0,1.53,1.24,2.81,2.78,2.81s2.78-1.28,2.78-2.81-1.22-2.81-2.78-2.81-2.78,1.27-2.78,2.81Z"/>
      <path class="cls-3" d="M149.42,70.91h-.76v-6.79h.98c1.29,0,2.48.34,2.48,1.87,0,1.04-.66,1.78-1.7,1.87l2.16,3.04h-.93l-2.05-2.98h-.19v2.98ZM149.42,67.26h.23c.86,0,1.72-.16,1.72-1.22,0-1.12-.82-1.22-1.73-1.22h-.23v2.44Z"/>
      <path class="cls-3" d="M154.3,70.21h1.87v.7h-2.63v-6.79h.76v6.09Z"/>
      <path class="cls-3" d="M157.93,68.98l-.82,1.93h-.83l3.13-7.11,3.05,7.11h-.84l-.8-1.93h-2.9ZM159.4,65.56l-1.16,2.72h2.3l-1.13-2.72Z"/>
      <path class="cls-3" d="M163.98,70.91h-.76v-6.79h.76v6.79Z"/>
      <path class="cls-3" d="M164.96,64.12h.86l1.39,2.56,1.39-2.56h.86l-1.84,3.28,2.01,3.51h-.86l-1.56-2.79-1.56,2.79h-.86l2.01-3.51-1.84-3.28Z"/>
    </g>
    <g>
      <path class="cls-3" d="M222.02,25.26h1.87v.7h-2.63v-6.79h.76v6.09Z"/>
      <path class="cls-3" d="M225.65,24.04l-.82,1.93h-.83l3.13-7.11,3.05,7.11h-.84l-.8-1.93h-2.9ZM227.12,20.61l-1.16,2.72h2.3l-1.13-2.72Z"/>
      <path class="cls-3" d="M230.97,18.89l5.29,5.55v-5.26h.76v7.09l-5.29-5.54v5.23h-.76v-7.08Z"/>
      <path class="cls-3" d="M238.48,18.89l5.29,5.55v-5.26h.76v7.09l-5.29-5.54v5.23h-.76v-7.08Z"/>
      <path class="cls-3" d="M246.71,25.96h-.76v-6.79h.76v6.79Z"/>
      <path class="cls-3" d="M254.82,22.58c0,1.95-1.6,3.5-3.54,3.5s-3.54-1.55-3.54-3.5,1.6-3.52,3.54-3.52,3.54,1.58,3.54,3.52ZM248.5,22.57c0,1.53,1.24,2.81,2.78,2.81s2.78-1.28,2.78-2.81-1.22-2.81-2.78-2.81-2.78,1.27-2.78,2.81Z"/>
      <path class="cls-3" d="M255.89,18.89l5.29,5.55v-5.26h.76v7.09l-5.29-5.54v5.23h-.76v-7.08Z"/>
    </g>
    <g>
      <path class="cls-3" d="M296.55,91.51c-.27-.47-.59-.74-1.17-.74s-1.13.43-1.13,1.05c0,.58.6.85,1.06,1.06l.45.2c.88.39,1.63.83,1.63,1.91,0,1.19-.95,2.1-2.13,2.1-1.09,0-1.9-.7-2.12-1.76l.74-.21c.1.69.63,1.26,1.36,1.26s1.4-.56,1.4-1.32-.62-1.06-1.25-1.35l-.41-.18c-.79-.36-1.48-.77-1.48-1.74,0-1.05.89-1.73,1.9-1.73.76,0,1.4.39,1.76,1.05l-.6.39Z"/>
      <path class="cls-3" d="M299.52,95.04l-.82,1.93h-.83l3.13-7.11,3.05,7.11h-.84l-.8-1.93h-2.9ZM300.98,91.62l-1.16,2.72h2.3l-1.13-2.72Z"/>
      <path class="cls-3" d="M305.57,96.97h-.76v-6.79h.76v6.79Z"/>
      <path class="cls-3" d="M306.99,89.89l5.29,5.55v-5.26h.76v7.09l-5.29-5.54v5.23h-.76v-7.08Z"/>
      <path class="cls-3" d="M316.25,96.97h-.76v-6.09h-1.64v-.7h4.05v.7h-1.66v6.09Z"/>
      <path class="cls-3" d="M319.33,94.47v.67h-1.85v-.67h1.85Z"/>
      <path class="cls-3" d="M320.02,90.18h1.12c1.23,0,2.27.45,2.27,1.84,0,.55-.21,1.02-.67,1.32.81.2,1.29.93,1.29,1.74,0,1.35-1.09,1.89-2.43,1.89h-1.58v-6.79ZM320.78,93.17h.29c.86,0,1.58-.1,1.58-1.15s-.65-1.13-1.58-1.13h-.3v2.29ZM320.78,96.27h.76c.85,0,1.74-.21,1.74-1.24s-1.01-1.21-1.84-1.21h-.66v2.45Z"/>
      <path class="cls-3" d="M325.89,96.97h-.76v-6.79h.98c1.29,0,2.48.34,2.48,1.87,0,1.04-.66,1.78-1.7,1.87l2.16,3.04h-.93l-2.05-2.98h-.19v2.98ZM325.89,93.32h.23c.86,0,1.72-.16,1.72-1.22,0-1.12-.82-1.22-1.73-1.22h-.23v2.44Z"/>
      <path class="cls-3" d="M330.78,96.97h-.76v-6.79h.76v6.79Z"/>
      <path class="cls-3" d="M332.16,90.18h3.52v.7h-2.76v2.02h2.68v.7h-2.68v2.67h2.76v.7h-3.52v-6.79Z"/>
      <path class="cls-3" d="M337.7,94.22c0,.5-.02,1.08.3,1.51.3.41.87.65,1.37.65s1.02-.23,1.33-.6c.36-.43.33-1.03.33-1.56v-4.04h.76v4.25c0,.74-.05,1.32-.59,1.88-.47.5-1.14.77-1.83.77-.64,0-1.3-.24-1.76-.69-.59-.57-.67-1.19-.67-1.96v-4.25h.76v4.04Z"/>
      <path class="cls-3" d="M348.31,91.67c-.54-.56-1.29-.9-2.07-.9-1.51,0-2.74,1.31-2.74,2.81s1.23,2.81,2.75,2.81c.77,0,1.51-.36,2.05-.9v.94c-.59.42-1.31.67-2.03.67-1.92,0-3.54-1.56-3.54-3.48s1.59-3.54,3.54-3.54c.76,0,1.42.22,2.03.67v.94Z"/>
    </g>
    <g>
      <path class="cls-3" d="M250.27,191.51h-.76v-6.79h1.12c.59,0,1.19.02,1.68.36.5.35.77.95.77,1.55,0,.55-.23,1.11-.65,1.46-.46.38-1.04.45-1.61.45h-.55v2.97ZM250.27,187.84h.5c.84,0,1.55-.25,1.55-1.22,0-1.11-.89-1.19-1.77-1.19h-.28v2.41Z"/>
      <path class="cls-3" d="M260.77,188.13c0,1.95-1.6,3.5-3.54,3.5s-3.54-1.55-3.54-3.5,1.6-3.52,3.54-3.52,3.54,1.58,3.54,3.52ZM254.46,188.12c0,1.53,1.24,2.81,2.78,2.81s2.78-1.28,2.78-2.81-1.22-2.81-2.78-2.81-2.78,1.27-2.78,2.81Z"/>
      <path class="cls-3" d="M261.84,184.43l5.29,5.55v-5.26h.76v7.09l-5.29-5.54v5.23h-.76v-7.08Z"/>
      <path class="cls-3" d="M271.11,191.51h-.76v-6.09h-1.64v-.7h4.05v.7h-1.66v6.09Z"/>
      <path class="cls-3" d="M274.31,191.51h-.76v-6.79h.76v6.79Z"/>
      <path class="cls-3" d="M277.81,189.9l1.94-5.18h.82l-2.75,7.19-2.75-7.19h.82l1.94,5.18Z"/>
      <path class="cls-3" d="M280.69,184.72h.87l1.73,3.02,1.73-3.02h.87l-2.22,3.87v2.92h-.76v-2.92l-2.22-3.87Z"/>
    </g>
    <g>
      <path class="cls-3" d="M193.64,235.2h1.87v.7h-2.63v-6.79h.76v6.09Z"/>
      <path class="cls-3" d="M202.99,232.51c0,1.95-1.6,3.5-3.54,3.5s-3.54-1.55-3.54-3.5,1.6-3.52,3.54-3.52,3.54,1.58,3.54,3.52ZM196.67,232.5c0,1.53,1.24,2.81,2.78,2.81s2.78-1.28,2.78-2.81-1.22-2.81-2.78-2.81-2.78,1.27-2.78,2.81Z"/>
      <path class="cls-3" d="M204.77,235.9h-.76v-6.79h.98c1.29,0,2.48.34,2.48,1.87,0,1.04-.66,1.78-1.7,1.87l2.16,3.04h-.93l-2.05-2.98h-.19v2.98ZM204.77,232.25h.23c.86,0,1.72-.16,1.72-1.22,0-1.12-.82-1.22-1.73-1.22h-.23v2.44Z"/>
      <path class="cls-3" d="M209.67,235.9h-.76v-6.79h.76v6.79Z"/>
      <path class="cls-3" d="M211.04,229.11h3.52v.7h-2.76v2.02h2.68v.7h-2.68v2.67h2.76v.7h-3.52v-6.79Z"/>
      <path class="cls-3" d="M215.89,228.82l5.29,5.55v-5.26h.76v7.09l-5.29-5.54v5.23h-.76v-7.08Z"/>
      <path class="cls-3" d="M225.15,235.9h-.76v-6.09h-1.64v-.7h4.05v.7h-1.66v6.09Z"/>
    </g>
    <g>
      <path class="cls-3" d="M284.9,262.79l1.94-5.18h.82l-2.75,7.19-2.75-7.19h.82l1.94,5.18Z"/>
      <path class="cls-3" d="M288.51,262.48l-.82,1.93h-.83l3.13-7.11,3.05,7.11h-.84l-.8-1.93h-2.9ZM289.98,259.05l-1.16,2.72h2.3l-1.13-2.72Z"/>
      <path class="cls-3" d="M293.83,257.33l5.29,5.55v-5.26h.76v7.09l-5.29-5.54v5.23h-.76v-7.08Z"/>
      <path class="cls-3" d="M301.34,257.33l5.29,5.55v-5.26h.76v7.09l-5.29-5.54v5.23h-.76v-7.08Z"/>
      <path class="cls-3" d="M308.8,257.61h3.52v.7h-2.76v2.02h2.68v.7h-2.68v2.67h2.76v.7h-3.52v-6.79Z"/>
      <path class="cls-3" d="M316.68,258.94c-.27-.47-.59-.74-1.17-.74s-1.13.43-1.13,1.05c0,.58.6.85,1.06,1.06l.45.2c.88.39,1.63.83,1.63,1.91,0,1.19-.95,2.1-2.13,2.1-1.09,0-1.9-.7-2.12-1.76l.74-.21c.1.69.63,1.26,1.36,1.26s1.4-.56,1.4-1.32-.62-1.06-1.25-1.35l-.41-.18c-.79-.36-1.48-.77-1.48-1.74,0-1.05.89-1.73,1.9-1.73.76,0,1.4.39,1.76,1.05l-.6.39Z"/>
    </g>
    <g>
      <path class="cls-3" d="M341.21,342.56c-.27-.47-.59-.74-1.17-.74s-1.13.43-1.13,1.05c0,.58.6.85,1.06,1.06l.45.2c.88.39,1.63.83,1.63,1.91,0,1.19-.95,2.1-2.13,2.1-1.09,0-1.9-.7-2.12-1.76l.74-.21c.1.69.63,1.26,1.36,1.26s1.4-.56,1.4-1.32-.62-1.06-1.25-1.35l-.41-.18c-.79-.36-1.48-.77-1.48-1.74,0-1.05.89-1.73,1.9-1.73.76,0,1.4.39,1.76,1.05l-.6.39Z"/>
      <path class="cls-3" d="M344.17,346.09l-.82,1.93h-.83l3.13-7.11,3.05,7.11h-.84l-.8-1.93h-2.9ZM345.64,342.67l-1.16,2.72h2.3l-1.13-2.72Z"/>
      <path class="cls-3" d="M350.22,348.02h-.76v-6.79h.76v6.79Z"/>
      <path class="cls-3" d="M351.64,340.94l5.29,5.55v-5.26h.76v7.09l-5.29-5.54v5.23h-.76v-7.08Z"/>
      <path class="cls-3" d="M360.91,348.02h-.76v-6.09h-1.64v-.7h4.05v.7h-1.66v6.09Z"/>
      <path class="cls-3" d="M363.98,345.52v.67h-1.85v-.67h1.85Z"/>
      <path class="cls-3" d="M364.72,340.94l5.29,5.55v-5.26h.76v7.09l-5.29-5.54v5.23h-.76v-7.08Z"/>
      <path class="cls-3" d="M373.2,346.09l-.82,1.93h-.83l3.13-7.11,3.05,7.11h-.84l-.8-1.93h-2.9ZM374.67,342.67l-1.16,2.72h2.3l-1.13-2.72Z"/>
      <path class="cls-3" d="M382.78,347.32v.7h-4.86l3.7-6.09h-3.23v-.7h4.49l-3.71,6.09h3.61Z"/>
      <path class="cls-3" d="M384.76,346.09l-.82,1.93h-.83l3.13-7.11,3.05,7.11h-.84l-.8-1.93h-2.9ZM386.23,342.67l-1.16,2.72h2.3l-1.13-2.72Z"/>
      <path class="cls-3" d="M390.81,348.02h-.76v-6.79h.76v6.79Z"/>
      <path class="cls-3" d="M392.94,348.02h-.76v-6.79h.98c1.29,0,2.48.34,2.48,1.87,0,1.04-.66,1.78-1.7,1.87l2.16,3.04h-.93l-2.05-2.98h-.19v2.98ZM392.94,344.37h.23c.86,0,1.72-.16,1.72-1.22,0-1.12-.82-1.22-1.73-1.22h-.23v2.44Z"/>
      <path class="cls-3" d="M397.07,341.23h3.52v.7h-2.76v2.02h2.68v.7h-2.68v2.67h2.76v.7h-3.52v-6.79Z"/>
    </g>
    <g>
      <path class="cls-3" d="M435.47,352.47l5.29,5.55v-5.26h.76v7.09l-5.29-5.54v5.23h-.76v-7.08Z"/>
      <path class="cls-3" d="M443.95,357.62l-.82,1.93h-.83l3.13-7.11,3.05,7.11h-.84l-.8-1.93h-2.9ZM445.42,354.2l-1.16,2.72h2.3l-1.13-2.72Z"/>
      <path class="cls-3" d="M449.27,352.47l5.29,5.55v-5.26h.76v7.09l-5.29-5.54v5.23h-.76v-7.08Z"/>
      <path class="cls-3" d="M458.53,359.54h-.76v-6.09h-1.64v-.7h4.05v.7h-1.66v6.09Z"/>
      <path class="cls-3" d="M460.96,352.76h3.52v.7h-2.76v2.02h2.68v.7h-2.68v2.67h2.76v.7h-3.52v-6.79Z"/>
      <path class="cls-3" d="M468.85,354.08c-.27-.47-.59-.74-1.17-.74s-1.13.43-1.13,1.05c0,.58.6.85,1.06,1.06l.45.2c.88.39,1.63.83,1.63,1.91,0,1.19-.95,2.1-2.13,2.1-1.09,0-1.9-.7-2.12-1.76l.74-.21c.1.69.63,1.26,1.36,1.26s1.4-.56,1.4-1.32-.62-1.06-1.25-1.35l-.41-.18c-.79-.36-1.48-.77-1.48-1.74,0-1.05.89-1.73,1.9-1.73.76,0,1.4.39,1.76,1.05l-.6.39Z"/>
    </g>
    <g>
      <path class="cls-3" d="M461.73,290.29c-.54-.56-1.29-.9-2.07-.9-1.51,0-2.74,1.31-2.74,2.81s1.23,2.81,2.75,2.81c.77,0,1.51-.36,2.05-.9v.94c-.59.42-1.31.67-2.03.67-1.92,0-3.54-1.56-3.54-3.48s1.59-3.54,3.54-3.54c.76,0,1.42.22,2.03.67v.94Z"/>
      <path class="cls-3" d="M467.27,291.56v-2.75h.76v6.79h-.76v-3.33h-3.47v3.33h-.76v-6.79h.76v2.75h3.47Z"/>
      <path class="cls-3" d="M470.45,293.67l-.82,1.93h-.83l3.13-7.11,3.05,7.11h-.84l-.8-1.93h-2.9ZM471.92,290.25l-1.16,2.72h2.3l-1.13-2.72Z"/>
      <path class="cls-3" d="M476.81,295.6h-.76v-6.09h-1.64v-.7h4.05v.7h-1.66v6.09Z"/>
      <path class="cls-3" d="M479.24,288.81h3.52v.7h-2.76v2.02h2.68v.7h-2.68v2.67h2.76v.7h-3.52v-6.79Z"/>
      <path class="cls-3" d="M485.06,293.67l-.82,1.93h-.83l3.13-7.11,3.05,7.11h-.84l-.8-1.93h-2.9ZM486.53,290.25l-1.16,2.72h2.3l-1.13-2.72Z"/>
      <path class="cls-3" d="M491.08,292.85c0,.5-.02,1.08.3,1.51.3.41.87.65,1.37.65s1.02-.23,1.33-.6c.36-.43.33-1.03.33-1.56v-4.04h.76v4.25c0,.74-.05,1.32-.59,1.88-.47.5-1.14.77-1.83.77-.64,0-1.3-.24-1.76-.69-.59-.57-.67-1.19-.67-1.96v-4.25h.76v4.04Z"/>
      <path class="cls-3" d="M496.5,288.81h1.12c1.23,0,2.27.45,2.27,1.84,0,.55-.21,1.02-.67,1.32.81.2,1.29.93,1.29,1.74,0,1.35-1.09,1.89-2.43,1.89h-1.58v-6.79ZM497.26,291.8h.29c.86,0,1.58-.1,1.58-1.15s-.65-1.13-1.58-1.13h-.3v2.29ZM497.26,294.89h.76c.85,0,1.74-.21,1.74-1.24s-1.01-1.21-1.84-1.21h-.66v2.45Z"/>
      <path class="cls-3" d="M502.37,295.6h-.76v-6.79h.98c1.29,0,2.48.34,2.48,1.87,0,1.04-.66,1.78-1.7,1.87l2.16,3.04h-.93l-2.05-2.98h-.19v2.98ZM502.37,291.95h.23c.86,0,1.72-.16,1.72-1.21,0-1.12-.82-1.22-1.73-1.22h-.23v2.44Z"/>
      <path class="cls-3" d="M507.27,295.6h-.76v-6.79h.76v6.79Z"/>
      <path class="cls-3" d="M509.66,293.67l-.82,1.93h-.83l3.13-7.11,3.05,7.11h-.84l-.8-1.93h-2.9ZM511.13,290.25l-1.16,2.72h2.3l-1.13-2.72Z"/>
      <path class="cls-3" d="M514.98,288.52l5.29,5.55v-5.26h.76v7.09l-5.29-5.54v5.23h-.76v-7.08Z"/>
      <path class="cls-3" d="M524.24,295.6h-.76v-6.09h-1.64v-.7h4.05v.7h-1.66v6.09Z"/>
    </g>
    <g>
      <path class="cls-3" d="M462.15,160.31l5.29,5.55v-5.26h.76v7.09l-5.29-5.54v5.23h-.76v-7.08Z"/>
      <path class="cls-3" d="M470.63,165.46l-.82,1.93h-.83l3.13-7.11,3.05,7.11h-.84l-.8-1.93h-2.9ZM472.1,162.04l-1.16,2.72h2.3l-1.13-2.72Z"/>
      <path class="cls-3" d="M475.95,160.31l5.29,5.55v-5.26h.76v7.09l-5.29-5.54v5.23h-.76v-7.08Z"/>
      <path class="cls-3" d="M485.21,167.39h-.76v-6.09h-1.64v-.7h4.05v.7h-1.66v6.09Z"/>
      <path class="cls-3" d="M487.64,160.6h3.52v.7h-2.76v2.02h2.68v.7h-2.68v2.67h2.76v.7h-3.52v-6.79Z"/>
      <path class="cls-3" d="M495.52,161.93c-.27-.47-.59-.74-1.17-.74s-1.13.43-1.13,1.05c0,.58.6.85,1.06,1.06l.45.2c.88.39,1.63.83,1.63,1.91,0,1.19-.95,2.1-2.13,2.1-1.09,0-1.9-.7-2.12-1.76l.74-.21c.1.69.63,1.26,1.36,1.26s1.4-.56,1.4-1.32-.62-1.06-1.25-1.35l-.41-.18c-.79-.36-1.48-.77-1.48-1.74,0-1.05.89-1.73,1.9-1.73.76,0,1.4.39,1.76,1.05l-.6.39Z"/>
    </g>
    <g>
      <path class="cls-3" d="M484.64,121.89v2.02h2.26v.7h-2.26v3.37h-.76v-6.79h3.09v.7h-2.33Z"/>
      <path class="cls-3" d="M494.92,124.59c0,1.95-1.6,3.5-3.54,3.5s-3.54-1.55-3.54-3.5,1.6-3.52,3.54-3.52,3.54,1.58,3.54,3.52ZM488.6,124.58c0,1.53,1.24,2.81,2.78,2.81s2.78-1.28,2.78-2.81-1.22-2.81-2.78-2.81-2.78,1.27-2.78,2.81Z"/>
      <path class="cls-3" d="M496.68,125.23c0,.5-.02,1.08.3,1.51.3.41.87.65,1.37.65s1.02-.23,1.33-.6c.36-.43.33-1.03.33-1.56v-4.04h.76v4.25c0,.74-.05,1.32-.59,1.88-.47.5-1.14.77-1.83.77-.64,0-1.3-.24-1.76-.69-.59-.57-.67-1.19-.67-1.96v-4.25h.76v4.04Z"/>
      <path class="cls-3" d="M508.42,124.56c.02.92-.08,1.67-.7,2.4-.62.72-1.57,1.13-2.51,1.13-1.91,0-3.49-1.58-3.49-3.49s1.58-3.53,3.54-3.53c1.19,0,2.15.53,2.87,1.47l-.55.51c-.57-.8-1.33-1.28-2.33-1.28-1.55,0-2.77,1.31-2.77,2.84,0,.72.29,1.4.79,1.92.5.5,1.22.86,1.93.86,1.18,0,2.42-.86,2.42-2.12h-2.02v-.7h2.83Z"/>
      <path class="cls-3" d="M509.49,121.18h3.52v.7h-2.76v2.02h2.68v.7h-2.68v2.67h2.76v.7h-3.52v-6.79ZM511.06,118.72l1.07,1.48-.45.25-1.38-1.39.76-.34Z"/>
      <path class="cls-3" d="M515.05,127.97h-.76v-6.79h.98c1.29,0,2.48.34,2.48,1.87,0,1.04-.66,1.78-1.7,1.87l2.16,3.04h-.93l-2.05-2.98h-.19v2.98ZM515.05,124.33h.23c.86,0,1.72-.16,1.72-1.22,0-1.12-.82-1.22-1.73-1.22h-.23v2.44Z"/>
      <path class="cls-3" d="M519.17,121.18h3.52v.7h-2.76v2.02h2.68v.7h-2.68v2.67h2.76v.7h-3.52v-6.79Z"/>
      <path class="cls-3" d="M527.06,122.51c-.27-.47-.59-.74-1.17-.74s-1.13.43-1.13,1.05c0,.58.6.85,1.06,1.06l.45.2c.88.39,1.63.83,1.63,1.91,0,1.19-.95,2.1-2.13,2.1-1.09,0-1.9-.7-2.12-1.76l.74-.21c.1.69.63,1.26,1.36,1.26s1.4-.56,1.4-1.32-.62-1.06-1.25-1.35l-.41-.18c-.79-.36-1.48-.77-1.48-1.74,0-1.05.89-1.73,1.9-1.73.76,0,1.4.39,1.76,1.05l-.6.39Z"/>
    </g>
    <g>
      <path class="cls-3" d="M439.91,76.05c-.27-.47-.59-.74-1.17-.74s-1.13.43-1.13,1.05c0,.58.6.85,1.06,1.06l.45.2c.88.39,1.63.83,1.63,1.91,0,1.19-.95,2.1-2.13,2.1-1.09,0-1.9-.7-2.12-1.76l.74-.21c.1.69.63,1.26,1.36,1.26s1.4-.56,1.4-1.32-.62-1.06-1.25-1.35l-.41-.18c-.79-.36-1.48-.76-1.48-1.74,0-1.05.89-1.73,1.9-1.73.76,0,1.4.39,1.76,1.05l-.6.39Z"/>
      <path class="cls-3" d="M442.88,79.59l-.82,1.93h-.83l3.13-7.11,3.05,7.11h-.84l-.8-1.93h-2.9ZM444.34,76.17l-1.16,2.72h2.3l-1.13-2.72Z"/>
      <path class="cls-3" d="M448.92,81.52h-.76v-6.79h.76v6.79Z"/>
      <path class="cls-3" d="M450.35,74.44l5.29,5.55v-5.26h.76v7.09l-5.29-5.54v5.23h-.76v-7.08Z"/>
      <path class="cls-3" d="M459.61,81.52h-.76v-6.09h-1.64v-.7h4.05v.7h-1.66v6.09Z"/>
      <path class="cls-3" d="M462.69,79.02v.67h-1.85v-.67h1.85Z"/>
      <path class="cls-3" d="M464.26,74.34l2.47,5.7,2.48-5.7,1.38,7.18h-.77l-.87-4.59h-.02l-2.19,4.87-2.18-4.87h-.02l-.87,4.59h-.77l1.38-7.18Z"/>
      <path class="cls-3" d="M472.46,79.59l-.82,1.93h-.83l3.13-7.11,3.05,7.11h-.84l-.8-1.93h-2.9ZM473.93,76.17l-1.16,2.72h2.3l-1.13-2.72Z"/>
      <path class="cls-3" d="M478.49,80.82h1.87v.7h-2.63v-6.79h.76v6.09Z"/>
      <path class="cls-3" d="M487.84,78.13c0,1.95-1.6,3.5-3.54,3.5s-3.54-1.55-3.54-3.5,1.6-3.52,3.54-3.52,3.54,1.58,3.54,3.52ZM481.52,78.12c0,1.53,1.24,2.81,2.78,2.81s2.78-1.28,2.78-2.81-1.22-2.81-2.78-2.81-2.78,1.27-2.78,2.81Z"/>
    </g>
    <g>
      <path class="cls-3" d="M240.27,59.06c.02.92-.08,1.67-.7,2.4-.62.72-1.57,1.13-2.51,1.13-1.91,0-3.49-1.58-3.49-3.49s1.58-3.53,3.54-3.53c1.19,0,2.15.53,2.87,1.47l-.55.51c-.57-.8-1.33-1.28-2.33-1.28-1.55,0-2.77,1.31-2.77,2.84,0,.72.29,1.4.79,1.92.5.5,1.22.86,1.93.86,1.18,0,2.42-.86,2.42-2.12h-2.02v-.7h2.83Z"/>
      <path class="cls-3" d="M242.08,59.73c0,.5-.02,1.08.3,1.51.3.41.87.65,1.37.65s1.02-.23,1.33-.6c.36-.43.33-1.03.33-1.56v-4.04h.76v4.25c0,.74-.05,1.32-.59,1.88-.47.5-1.14.77-1.83.77-.64,0-1.3-.24-1.76-.69-.59-.57-.67-1.19-.67-1.96v-4.25h.76v4.04Z"/>
      <path class="cls-3" d="M248.28,62.47h-.76v-6.79h.76v6.79Z"/>
      <path class="cls-3" d="M249.7,55.4l5.29,5.55v-5.26h.76v7.09l-5.29-5.54v5.23h-.76v-7.08Z"/>
      <path class="cls-3" d="M263.47,59.06c.02.92-.08,1.67-.7,2.4-.62.72-1.57,1.13-2.51,1.13-1.91,0-3.49-1.58-3.49-3.49s1.58-3.53,3.54-3.53c1.19,0,2.15.53,2.87,1.47l-.55.51c-.57-.8-1.33-1.28-2.33-1.28-1.55,0-2.77,1.31-2.77,2.84,0,.72.29,1.4.79,1.92.5.5,1.22.86,1.93.86,1.18,0,2.42-.86,2.42-2.12h-2.02v-.7h2.83Z"/>
      <path class="cls-3" d="M265.56,60.55l-.82,1.93h-.83l3.13-7.11,3.05,7.11h-.84l-.8-1.93h-2.9ZM267.02,57.13l-1.16,2.72h2.3l-1.13-2.72Z"/>
      <path class="cls-3" d="M271.71,55.3l2.47,5.7,2.48-5.7,1.38,7.18h-.77l-.87-4.59h-.02l-2.19,4.87-2.18-4.87h-.02l-.87,4.59h-.77l1.38-7.18Z"/>
      <path class="cls-3" d="M279.65,62.47h-.76v-6.79h1.12c.59,0,1.19.02,1.68.36.5.35.77.95.77,1.55,0,.55-.23,1.11-.65,1.46-.46.38-1.04.45-1.61.45h-.55v2.97ZM279.65,58.8h.5c.84,0,1.55-.25,1.55-1.22,0-1.11-.89-1.19-1.77-1.19h-.28v2.41Z"/>
    </g>
    <g>
      <path class="cls-3" d="M80.27,186.26c-.56.42-1.36.67-2.04.67-1.94,0-3.54-1.55-3.54-3.5s1.6-3.52,3.54-3.52,3.54,1.59,3.54,3.54c0,.95-.34,1.71-.98,2.4l1.02,1.04h-.96l-.57-.61ZM80.26,185.3c.5-.53.75-1.15.75-1.88,0-1.55-1.22-2.81-2.78-2.81s-2.78,1.27-2.78,2.81,1.24,2.81,2.78,2.81c.5,0,1.1-.19,1.51-.5l-1.64-1.65h.99l1.17,1.22Z"/>
      <path class="cls-3" d="M83.53,184.06c0,.5-.02,1.08.3,1.51.3.41.87.65,1.37.65s1.02-.23,1.33-.6c.36-.43.33-1.03.33-1.56v-4.04h.76v4.25c0,.74-.05,1.32-.59,1.88-.47.5-1.14.77-1.83.77-.64,0-1.3-.24-1.76-.69-.59-.57-.67-1.19-.67-1.96v-4.25h.76v4.04Z"/>
      <path class="cls-3" d="M89.73,186.81h-.76v-6.79h.76v6.79Z"/>
      <path class="cls-3" d="M91.99,179.63l2.47,5.7,2.48-5.7,1.38,7.18h-.77l-.87-4.59h-.02l-2.19,4.87-2.18-4.87h-.02l-.87,4.59h-.77l1.38-7.18Z"/>
      <path class="cls-3" d="M99.93,186.81h-.76v-6.79h1.12c.59,0,1.19.02,1.68.36.5.35.77.95.77,1.55,0,.55-.23,1.11-.65,1.46-.46.38-1.04.45-1.61.45h-.55v2.97ZM99.93,183.14h.5c.84,0,1.55-.25,1.55-1.22,0-1.11-.89-1.19-1.77-1.19h-.28v2.41Z"/>
      <path class="cls-3" d="M103.7,180.02h3.52v.7h-2.76v2.02h2.68v.7h-2.68v2.67h2.76v.7h-3.52v-6.79Z"/>
      <path class="cls-3" d="M109.26,186.81h-.76v-6.79h.98c1.29,0,2.48.34,2.48,1.87,0,1.04-.66,1.78-1.7,1.87l2.16,3.04h-.93l-2.05-2.98h-.19v2.98ZM109.26,183.16h.23c.86,0,1.72-.16,1.72-1.22,0-1.12-.82-1.22-1.73-1.22h-.23v2.44Z"/>
    </g>
  </g>
</svg>