<?xml version="1.0" encoding="UTF-8"?>
<svg id="Calque_2" data-name="Calque 2" xmlns="http://www.w3.org/2000/svg" viewBox="0 0 25 25">
  <defs>
    <style>
      .cls-1 {
        fill: #cbda00;
      }
    </style>
  </defs>
  <g id="footer">
    <g>
      <polygon class="cls-1" points="5.38 8.42 5.38 16.6 9.76 12.56 5.38 8.42"/>
      <path class="cls-1" d="M13.88,13.86c-.4.35-.89.53-1.38.53s-.98-.18-1.37-.53l-.34-.32-4.22,3.9h11.9l-4.24-3.91-.35.33Z"/>
      <polygon class="cls-1" points="19.62 16.56 19.62 8.5 15.28 12.55 19.62 16.56"/>
      <path class="cls-1" d="M12.92,12.8l5.61-5.24H6.55l5.55,5.25c.23.2.59.2.83,0Z"/>
      <path class="cls-1" d="M18.71,0H6.29C2.82,0,0,2.82,0,6.29v12.41c0,3.48,2.82,6.29,6.29,6.29h12.41c3.48,0,6.29-2.82,6.29-6.29V6.29c0-3.48-2.82-6.29-6.29-6.29ZM21.05,16.84c0,1.11-.9,2.02-2.01,2.02H5.96c-1.11,0-2.01-.91-2.01-2.02v-8.68c0-.58.25-1.13.68-1.52.37-.33.84-.51,1.33-.51h13.07c1.11,0,2.01.91,2.01,2.02v8.68Z"/>
    </g>
  </g>
</svg>