<?xml version="1.0" encoding="UTF-8"?>
<svg id="Calque_2" data-name="Calque 2" xmlns="http://www.w3.org/2000/svg" viewBox="0 0 25 25">
  <defs>
    <style>
      .cls-1 {
        fill: #cbda00;
      }
    </style>
  </defs>
  <g id="footer">
    <path class="cls-1" d="M18.71,0H6.29C2.82,0,0,2.82,0,6.29v12.41c0,3.48,2.82,6.29,6.29,6.29h12.41c3.48,0,6.29-2.82,6.29-6.29V6.29c0-3.48-2.82-6.29-6.29-6.29ZM19.55,18.2l-.62.62c-.81.81-1.9,1.27-3.01,1.27-.07,0-.14,0-.21,0-1.77-.09-4.5-.82-7.46-3.78-3.16-3.16-3.61-6.46-3.37-7.91.12-.71.46-1.37.98-1.9l.99-.99c.8-.8,2.19-.8,2.99,0l1.4,1.4c.82.83.82,2.17,0,2.99l-.95.96c.47.83,1.67,2.62,3.74,3.78l1.02-.98c.83-.79,2.15-.78,2.96.03l1.54,1.54c.83.82.83,2.17,0,2.99Z"/>
  </g>
</svg>