<?xml version="1.0" encoding="UTF-8"?>
<svg id="Calque_2" data-name="Calque 2" xmlns="http://www.w3.org/2000/svg" viewBox="0 0 73.02 203.42">
  <defs>
    <style>
      .cls-1 {
        fill: #4c5859;
      }

      .cls-2 {
        fill: none;
        stroke: #4c5859;
        stroke-miterlimit: 10;
        stroke-width: 3.15px;
      }
    </style>
  </defs>
  <g id="services">
    <g>
      <path class="cls-2" d="M71.44,101.71c0-9.91-4.13-18.85-10.76-25.21-4.18-4.01-4.17-10.79.01-14.8,6.79-6.52,10.96-15.75,10.74-25.96-.4-18.67-15.71-33.89-34.39-34.17C17.51,1.28,1.58,17.04,1.58,36.51c0,9.91,4.13,18.85,10.76,25.21,4.18,4.01,4.18,10.78,0,14.79-6.63,6.35-10.76,15.3-10.76,25.21s4.13,18.85,10.76,25.21c4.18,4.01,4.17,10.79-.01,14.8-6.79,6.52-10.96,15.75-10.74,25.96.4,18.67,15.71,33.89,34.39,34.17,19.54.3,35.47-15.46,35.47-34.93,0-9.91-4.13-18.85-10.76-25.21-4.18-4.01-4.18-10.78,0-14.79,6.63-6.35,10.76-15.3,10.76-25.21"/>
      <path class="cls-1" d="M56.25,111.01l-4.06-2.34c-.43-.25-.34-.88.13-1.01l2.78-.74c.87-.23,1.49-1.1,1.29-1.98-.21-.93-1.14-1.49-2.05-1.25l-6.71,1.8c-.42.11-.88.05-1.26-.17l-3.02-1.74c-1.1-.63-1.1-2.22,0-2.86l3.02-1.74c.38-.22.83-.28,1.26-.17l6.71,1.8c.14.04.29.06.43.06.76,0,1.45-.52,1.62-1.31.19-.88-.42-1.75-1.29-1.98l-2.78-.74c-.48-.13-.56-.77-.13-1.01l4.1-2.37c.63-.36,1.01-1.09.85-1.8-.27-1.16-1.52-1.64-2.46-1.1l-4.15,2.4c-.43.25-.94-.15-.81-.62l.75-2.81c.19-.7-.05-1.49-.67-1.88-1.01-.64-2.23-.09-2.52.96l-1.8,6.71c-.11.43-.39.79-.77,1.01l-3,1.74c-1.1.64-2.48-.16-2.48-1.43v-3.91c0-.44.18-.86.49-1.17l4.87-4.87c.52-.52.7-1.31.36-1.96-.56-1.05-1.89-1.2-2.66-.43l-2.11,2.11c-.35.35-.94.1-.94-.39v-4.25c0-.9-.68-1.72-1.58-1.76-.95-.04-1.73.71-1.73,1.66v4.35c0,.49-.6.74-.95.39l-2.06-2.06c-.52-.52-1.32-.7-1.96-.36-1.05.56-1.2,1.89-.43,2.66l4.91,4.91c.31.31.49.73.49,1.17v3.91c0,1.28-1.38,2.07-2.48,1.43l-3.38-1.95c-.38-.22-.66-.58-.78-1.01l-1.77-6.6c-.23-.87-1.1-1.49-1.98-1.29-.93.21-1.49,1.14-1.25,2.05l.77,2.88c.13.48-.38.87-.81.62l-3.77-2.18c-.81-.47-1.86-.17-2.3.67-.42.8-.05,1.8.74,2.25l3.68,2.12c.43.25.34.89-.13,1.01l-2.78.74c-.87.23-1.49,1.1-1.29,1.98.17.78.86,1.31,1.62,1.31.14,0,.29-.02.43-.06l6.71-1.8c.43-.11.88-.05,1.26.17l3.39,1.96c1.1.64,1.1,2.23,0,2.87l-3.39,1.95c-.38.22-.83.28-1.26.17l-6.71-1.8c-.91-.25-1.84.32-2.05,1.25-.19.88.42,1.75,1.29,1.98l2.78.74c.48.13.56.77.13,1.01l-3.68,2.12c-.78.45-1.15,1.43-.74,2.24.3.58.88.91,1.48.91.28,0,.57-.07.83-.22l3.77-2.18c.43-.25.94.15.81.62l-.75,2.8c-.2.73.07,1.55.73,1.93.28.16.57.23.85.23.73,0,1.4-.49,1.6-1.23l1.8-6.71c.11-.43.39-.79.77-1.01l3.37-1.95c1.11-.64,2.5.16,2.5,1.44v3.45c0,.44-.18.86-.49,1.18l-4.84,4.84c-.63.63-.74,1.66-.15,2.33.33.38.79.57,1.25.57.42,0,.85-.16,1.17-.49l2.11-2.11c.35-.35.94-.1.94.39v4.68c0,.91.68,1.72,1.58,1.76.95.04,1.73-.71,1.73-1.66v-4.79c0-.49.6-.74.94-.39l2.11,2.11c.32.32.75.49,1.17.49.46,0,.92-.19,1.25-.57.56-.64.46-1.73-.15-2.34l-4.84-4.84c-.31-.31-.49-.73-.49-1.17v-3.46c0-1.28,1.38-2.08,2.49-1.44l3,1.73c.38.22.66.58.77,1l1.8,6.71c.2.74.87,1.23,1.6,1.23.33,0,.68-.1.99-.33.57-.41.77-1.17.59-1.84l-.75-2.81c-.13-.47.38-.86.8-.62l4.16,2.4c.26.15.55.22.83.22.6,0,1.19-.33,1.48-.91.41-.8.04-1.78-.74-2.23"/>
      <path class="cls-1" d="M56.28,178.46c-2.14,3.78-8.92,4.32-12.45,2.84-.93-.39-2.3-1.06-3.55-2.05-1.03-.81-.75-2.39.47-2.86,1.14-.44,2.17-1.12,3.01-1.97.67-.68,1.5-1.17,2.39-1.5,3.68-1.38,6.71-1.43,8.26-.74.47.21,2.03,1.01,2.54,2.55.35,1.07.12,2.32-.67,3.73M34,172.01c-.42-.45-.76-.97-1-1.54-.25-.6-.39-1.26-.39-1.95,0-2.48,1.77-4.56,4.12-5.03.33-.07.66-.1,1.01-.1.24,0,.47.02.7.05,2.5.34,4.43,2.49,4.43,5.08,0,.4-.05.79-.14,1.17-.11.49-.29.94-.53,1.37-.88,1.55-2.55,2.6-4.46,2.6-1.48,0-2.81-.63-3.74-1.63M32.8,151.85c-.05-.51-.12-2.27.97-3.47.76-.83,1.96-1.25,3.57-1.25,4.34,0,8.15,5.64,8.6,9.44.13,1.1.22,2.81-.11,4.54-.24,1.24-1.73,1.73-2.71.92-.78-.65-1.68-1.16-2.65-1.5-.65-.22-1.26-.54-1.81-.94-3.78-2.79-5.69-5.85-5.87-7.74M29.42,169.95c.12.7.17,1.41.06,2.12-.67,4.43-2.37,7.42-3.9,8.46-.42.29-1.93,1.19-3.51.81-1.09-.26-2.04-1.11-2.82-2.53-2.09-3.81,1.02-9.86,4.13-12.08.9-.64,2.35-1.54,4.01-2.09,1.22-.4,2.42.7,2.12,1.94-.15.62-.23,1.27-.23,1.94,0,.49.04.97.13,1.43M46.19,168.52c0-.08,0-.17,0-.25-.01-.43.12-.86.4-1.18,2.49-2.84,3.11-7.07,2.66-10.9-.59-5.04-5.52-12.36-11.89-12.36-3.22,0-5.06,1.27-6.02,2.33-1.95,2.14-1.93,4.91-1.83,6.01.23,2.46,1.88,5.24,4.48,7.78.34.33.24.9-.18,1.12-.02.01-.04.02-.06.03-.3.16-.65.21-.98.12-3.81-1.04-8.01.48-11.28,2.82-4.13,2.95-8.18,10.79-5.11,16.37,1.55,2.82,3.54,3.82,4.94,4.16.54.13,1.07.19,1.57.19,2.12,0,3.84-.98,4.57-1.48,1.88-1.27,3.43-3.73,4.42-6.84.22-.68,1-.99,1.62-.63h.02c.42.26.76.64.93,1.1,1.31,3.46,4.62,6,8.11,7.47,1.53.64,3.49,1,5.56,1,4.26,0,8.95-1.53,11.06-5.27,1.59-2.81,1.38-5.02.94-6.39-.9-2.75-3.33-4.1-4.33-4.54-2.24-1.01-5.31.05-8.93.05-.38,0-.66-.38-.66-.69"/>
      <path class="cls-1" d="M39.57,168.52c0,1.01-.82,1.83-1.83,1.83s-1.83-.82-1.83-1.83.82-1.83,1.83-1.83,1.83.82,1.83,1.83"/>
      <path class="cls-1" d="M50.74,31.71c-.63-1-2.14-.51-2.11.67.04,1.59-.26,3.15-1.2,4.49-2.21,3.15-3.4-.98-3.75-3-.47-2.76-.23-5.6-.66-8.37-.75-4.75-2.91-9.08-6.32-12.27-1.03-.96-2.65,0-2.38,1.38,2.12,10.85-9.44,15.48-12.44,23.27-3.04,7.91.9,17.01,8.34,20.24,1.15.5,2.14-.96,1.28-1.87l-1.54-1.61c-4.32-6.07-3.59-13.2.11-19.03.48-.76,1.65-.33,1.52.56-.41,2.82-.25,6.62,3.48,8.78,2.14,1.24,4.62,2.03,6.52,3.61,2.27,1.9,3.26,4.97,2.44,7.57-.42,1.32.96,2.47,2.19,1.83,3.87-1.99,6.58-6.03,7.59-10.33,1.34-5.68-.11-11.19-3.07-15.91"/>
    </g>
  </g>
</svg>