<?xml version="1.0" encoding="UTF-8"?>
<svg id="Calque_2" data-name="Calque 2" xmlns="http://www.w3.org/2000/svg" viewBox="0 0 73.02 203.42">
  <defs>
    <style>
      .cls-1 {
        fill: #4b5859;
      }

      .cls-2 {
        fill: #4c5859;
      }

      .cls-3 {
        fill: none;
        stroke: #4b5859;
        stroke-miterlimit: 10;
        stroke-width: 3.15px;
      }
    </style>
  </defs>
  <g id="services">
    <path class="cls-3" d="M71.44,101.71c0-9.91-4.13-18.85-10.76-25.21-4.18-4.01-4.17-10.79.01-14.8,6.79-6.52,10.96-15.75,10.74-25.96-.4-18.67-15.71-33.89-34.39-34.17C17.51,1.28,1.58,17.04,1.58,36.51c0,9.91,4.13,18.85,10.76,25.21,4.18,4.01,4.18,10.78,0,14.79-6.63,6.35-10.76,15.3-10.76,25.21s4.13,18.85,10.76,25.21c4.18,4.01,4.17,10.79-.01,14.8-6.79,6.52-10.96,15.75-10.74,25.96.4,18.67,15.71,33.89,34.39,34.17,19.54.3,35.47-15.46,35.47-34.93,0-9.91-4.13-18.85-10.76-25.21-4.18-4.01-4.18-10.78,0-14.79,6.63-6.35,10.76-15.3,10.76-25.21"/>
    <path class="cls-1" d="M47.7,36.45h-22.31v-18.61c0-2.11,1.71-3.82,3.82-3.82h14.67c2.11,0,3.82,1.71,3.82,3.82v18.61ZM28.09,36.29h16.91v-18.44c0-.62-.5-1.12-1.12-1.12h-2l-1.43-2.14h-7.8l-1.21,2.14h-2.24c-.62,0-1.12.5-1.12,1.12v18.44Z"/>
    <path class="cls-1" d="M37.74,31.01h-2.23c-1.37,0-2.48-1.11-2.48-2.48v-3.79c-1.34-.03-2.42-1.13-2.42-2.48v-7.51c0-1.37,1.11-2.48,2.48-2.48h6.92c1.37,0,2.48,1.11,2.48,2.48v7.51c0,1.3-1,2.36-2.26,2.47v3.8c0,1.37-1.11,2.48-2.48,2.48ZM35.73,28.3h1.79v-3.79c0-1.3,1-2.36,2.26-2.47v-7.08h-6.48v7.08c1.34.03,2.42,1.13,2.42,2.48v3.79Z"/>
    <path class="cls-2" d="M25.36,28.19v9.78s-.04.42-.05,1.2h7.82c.63,0,1.15.51,1.15,1.15s-.51,1.15-1.15,1.15h-7.75c.04.73.11,1.56.23,2.48h7.53c.63,0,1.15.51,1.15,1.15s-.51,1.15-1.15,1.15h-7.2c.13.78.29,1.61.48,2.48h6.71c.63,0,1.15.51,1.15,1.15s-.51,1.15-1.15,1.15h-6.16c.21.8.45,1.63.72,2.48h5.44c.63,0,1.15.51,1.15,1.15s-.51,1.15-1.15,1.15h-4.66c.5,1.38,1.06,2.81,1.73,4.3h12.88s.66-1.67,1.48-4.3h-4.59c-.63,0-1.15-.51-1.15-1.15s.51-1.15,1.15-1.15h5.27c.22-.78.44-1.61.66-2.48h-5.93c-.63,0-1.15-.51-1.15-1.15s.51-1.15,1.15-1.15h6.46c.17-.81.34-1.64.49-2.48h-6.95c-.63,0-1.15-.51-1.15-1.15s.51-1.15,1.15-1.15h7.31c.11-.82.21-1.65.28-2.48h-7.59c-.63,0-1.15-.51-1.15-1.15s.51-1.15,1.15-1.15h7.73c.01-.4.02-.8.02-1.2v-9.78h-22.34ZM36.54,35.72c-3.47,0-6.37-2.46-7.06-5.72h2.64c.63,1.84,2.37,3.17,4.42,3.17s3.79-1.33,4.42-3.17h2.64c-.69,3.26-3.59,5.72-7.06,5.72Z"/>
    <circle class="cls-2" cx="36.54" cy="101.71" r="7.43"/>
    <g>
      <path class="cls-2" d="M51.52,118.26c-.4,0-.81-.15-1.11-.46-.62-.62-.62-1.61,0-2.23,3.7-3.7,5.74-8.62,5.74-13.86s-2.04-10.16-5.74-13.86c-.62-.62-.62-1.61,0-2.23s1.61-.62,2.23,0c4.3,4.3,6.66,10.01,6.66,16.09s-2.37,11.79-6.66,16.09c-.31.31-.71.46-1.11.46Z"/>
      <path class="cls-2" d="M46.38,113.12c-.4,0-.81-.15-1.11-.46-.62-.62-.62-1.61,0-2.23,2.33-2.33,3.61-5.43,3.61-8.72s-1.28-6.39-3.61-8.72c-.62-.62-.62-1.61,0-2.23.61-.62,1.61-.62,2.23,0,2.92,2.92,4.54,6.81,4.54,10.95s-1.61,8.02-4.54,10.95c-.31.31-.71.46-1.11.46Z"/>
      <path class="cls-2" d="M21.57,118.26c-.4,0-.81-.15-1.11-.46-4.3-4.3-6.66-10.01-6.66-16.09s2.37-11.79,6.66-16.09c.61-.62,1.61-.62,2.23,0s.62,1.61,0,2.23c-3.7,3.7-5.74,8.62-5.74,13.86s2.04,10.16,5.74,13.86c.62.62.62,1.61,0,2.23-.31.31-.71.46-1.11.46Z"/>
      <path class="cls-2" d="M26.71,113.12c-.4,0-.81-.15-1.11-.46-2.93-2.93-4.54-6.81-4.54-10.95s1.61-8.03,4.54-10.95c.62-.62,1.61-.62,2.23,0,.62.62.62,1.61,0,2.23-2.33,2.33-3.61,5.43-3.61,8.72s1.28,6.39,3.61,8.72c.62.62.62,1.61,0,2.23-.31.31-.71.46-1.11.46Z"/>
    </g>
    <path class="cls-1" d="M46.34,189.07h-19.59c-2.86,0-5.18-2.33-5.18-5.18v-34.58c0-2.86,2.33-5.18,5.18-5.18h19.59c2.86,0,5.18,2.33,5.18,5.18v34.58c0,2.86-2.33,5.18-5.18,5.18ZM26.75,147.28c-1.12,0-2.03.91-2.03,2.03v34.58c0,1.12.91,2.03,2.03,2.03h19.59c1.12,0,2.03-.91,2.03-2.03v-34.58c0-1.12-.91-2.03-2.03-2.03h-19.59Z"/>
    <path class="cls-1" d="M42.2,160.87h-11.31c-.5,0-.9-.4-.9-.9v-10.07c0-.5.4-.9.9-.9h11.31c.5,0,.9.4.9.9v10.07c0,.5-.4.9-.9.9ZM31.79,159.07h9.51v-8.27h-9.51v8.27Z"/>
    <path class="cls-1" d="M36.54,157.87c-1.62,0-2.93-1.32-2.93-2.93s1.32-2.93,2.93-2.93,2.93,1.32,2.93,2.93-1.32,2.93-2.93,2.93ZM36.54,153.81c-.62,0-1.13.51-1.13,1.13s.51,1.13,1.13,1.13,1.13-.51,1.13-1.13-.51-1.13-1.13-1.13Z"/>
    <path class="cls-1" d="M36.54,184.29c-1.62,0-2.93-1.32-2.93-2.93s1.32-2.93,2.93-2.93,2.93,1.32,2.93,2.93-1.32,2.93-2.93,2.93ZM36.54,180.23c-.62,0-1.13.51-1.13,1.13s.51,1.13,1.13,1.13,1.13-.51,1.13-1.13-.51-1.13-1.13-1.13Z"/>
    <path class="cls-1" d="M36.54,176.25c-.5,0-.9-.4-.9-.9v-11.12c0-.5.4-.9.9-.9s.9.4.9.9v11.12c0,.5-.4.9-.9.9Z"/>
    <path class="cls-1" d="M39.67,174.61c-.5,0-.9-.4-.9-.9v-7.97c0-.5.4-.9.9-.9s.9.4.9.9v7.97c0,.5-.4.9-.9.9Z"/>
    <path class="cls-1" d="M33.41,174.61c-.5,0-.9-.4-.9-.9v-7.97c0-.5.4-.9.9-.9s.9.4.9.9v7.97c0,.5-.4.9-.9.9Z"/>
    <path class="cls-1" d="M42.79,173.02c-.5,0-.9-.4-.9-.9v-4.88c0-.5.4-.9.9-.9s.9.4.9.9v4.88c0,.5-.4.9-.9.9Z"/>
    <path class="cls-1" d="M30.29,173.02c-.5,0-.9-.4-.9-.9v-4.88c0-.5.4-.9.9-.9s.9.4.9.9v4.88c0,.5-.4.9-.9.9Z"/>
  </g>
</svg>