<?xml version="1.0" encoding="UTF-8"?>
<svg id="Calque_2" data-name="Calque 2" xmlns="http://www.w3.org/2000/svg" viewBox="0 0 130.04 170.84">
  <defs>
    <style>
      .cls-1 {
        fill: #4b5859;
      }

      .cls-2 {
        fill: #4c5859;
      }
    </style>
  </defs>
  <g id="services">
    <path class="cls-1" d="M70.91,94.36c-5.24,0-10.43-1.96-14.37-5.9-.8-.8-.8-2.09,0-2.89s2.09-.8,2.89,0c6.42,6.42,17.02,6.25,23.63-.36.8-.8,2.09-.8,2.89,0,.19.19.33.4.43.62.33.75-4.29,5.49-6.47,6.52-2.85,1.34-5.93,2.01-8.99,2.01Z"/>
    <path class="cls-1" d="M100.73,85.55c2.31-4.4,4.2-9.54,5.64-15.4,6.65-.93,11.82-7.41,11.82-15.24,0-6.36-3.37-11.95-8.47-14.26-.87-19.29-16.72-34.84-36.47-35.85v-2.75c0-1.13-.92-2.04-2.04-2.04s-2.04.91-2.04,2.04v2.75c-19.6,1-35.36,16.33-36.45,35.42-5.14,1.85-8.4,7.46-8.4,14.7,0,7.83,5.17,14.32,11.82,15.25,5.03,20.19,15.28,31.84,29.87,34.03l5.21-3.71c-.53,0-1.06-.01-1.58-.04-14.92-.71-24.94-11.64-29.83-32.5-.01-.1-.04-.2-.07-.3-.26-.86-1.06-1.45-1.96-1.45-5.17,0-9.38-5.06-9.38-11.27,0-4.52,1.62-8.23,4.19-10.05-.05,1.49-.11,3.05.06,5.35v.32c0,.52.2,1.03.56,1.41,4.21,4.43,9.63,6.87,15.28,6.87,3.77,0,7.5-1.1,10.8-3.17l.69-.43c.08-.05.15-.1.22-.16,3.08-2.57,6.99-3.99,11.01-3.99s7.93,1.42,11.01,3.99c.08.06.16.12.24.17l.77.47c3.26,2.02,6.95,3.09,10.66,3.09,5.67,0,11.11-2.45,15.32-6.9.36-.38.56-.88.56-1.4v-.36c.19-2.27.17-3.46.12-4.59,2.57,2.06,4.22,5.57,4.22,9.39,0,6.22-4.21,11.27-9.38,11.27-.8,0-1.52.47-1.85,1.19-.08.17-.13.34-.16.52-1.4,6.09-3.25,11.33-5.54,15.72l3.56,1.93ZM36.73,42.31c0-18.46,15.46-33.49,34.47-33.49s34.47,15.02,34.47,33.49c0,1.22.05,2.06.09,2.8.01.19.02.37.03.55-8.16-4.72-20.95-7.57-34.59-7.57s-26.4,2.84-34.55,7.55c0-.23.02-.47.02-.7.03-.82.06-1.65.06-2.62ZM105.18,50.09c-3.25,2.97-7.22,4.59-11.3,4.59-2.99,0-5.86-.83-8.52-2.48l-.65-.4c-3.79-3.12-8.59-4.84-13.51-4.84s-9.72,1.72-13.52,4.85l-.57.36c-2.68,1.69-5.58,2.55-8.62,2.55-4.08,0-8.05-1.62-11.31-4.6,7.32-4.92,20.13-7.93,34.02-7.93s26.66,3,33.98,7.91Z"/>
    <circle class="cls-1" cx="56.22" cy="66.3" r="4.39"/>
    <circle class="cls-1" cx="86.04" cy="66.3" r="4.39"/>
    <path class="cls-1" d="M101.49,113.77c-1.35,0-2.62-.53-3.57-1.48h0l-12.06-12.06c-.95-.95-1.48-2.22-1.48-3.57s.53-2.62,1.48-3.57l3.41-3.41c.95-.95,2.22-1.48,3.57-1.48s2.62.53,3.57,1.48l12.06,12.06c.95.95,1.48,2.22,1.48,3.57s-.53,2.62-1.48,3.57l-3.41,3.41c-.95.95-2.22,1.48-3.57,1.48ZM92.84,90.52c-.73,0-1.41.28-1.92.8l-3.41,3.41c-.51.51-.8,1.2-.8,1.92s.28,1.41.8,1.92l12.06,12.06h0c1.03,1.03,2.82,1.03,3.84,0l3.41-3.41c.51-.51.8-1.2.8-1.92s-.28-1.41-.8-1.92l-12.06-12.06c-.51-.51-1.2-.8-1.92-.8Z"/>
    <path class="cls-1" d="M81.83,109.03c-.87,0-1.68-.34-2.29-.95l-2.06-2.06c-.61-.61-.95-1.42-.95-2.29s.34-1.68.95-2.29l.38-.38c1.22-1.22,3.36-1.22,4.58,0l2.06,2.06c.61.61.94,1.42.94,2.29s-.34,1.68-.94,2.29l-.38.38c-.61.61-1.42.94-2.29.94ZM80.15,102.46c-.24,0-.47.09-.64.26l-.38.38c-.17.17-.26.39-.26.64s.09.47.26.64l2.06,2.06h0c.34.34.94.34,1.27,0l.38-.38c.17-.17.26-.39.26-.64s-.09-.47-.26-.64l-2.06-2.06c-.17-.17-.39-.26-.64-.26Z"/>
    <path class="cls-1" d="M94.41,121.6c-.83,0-1.66-.32-2.29-.95l-2.06-2.06c-1.26-1.26-1.26-3.32,0-4.58l.38-.38c1.26-1.26,3.31-1.26,4.58,0l2.06,2.06c.61.61.94,1.42.94,2.29s-.34,1.68-.94,2.29l-.38.38c-.63.63-1.46.94-2.29.95ZM92.73,115.04c-.23,0-.46.09-.64.26l-.38.38c-.35.35-.35.92,0,1.27l2.06,2.06h0c.35.35.92.35,1.27,0l.38-.38c.17-.17.26-.39.26-.64s-.09-.47-.26-.64l-2.06-2.06c-.18-.18-.41-.26-.64-.26Z"/>
    <path class="cls-1" d="M81.08,117.07c-3.64-3.64-9.57-3.64-13.21,0-1.76,1.76-2.74,4.11-2.74,6.6s.97,4.84,2.74,6.6c1.82,1.82,4.21,2.73,6.6,2.73s4.78-.91,6.6-2.73c3.64-3.64,3.64-9.57,0-13.21ZM69.52,128.63c-1.32-1.32-2.05-3.08-2.05-4.95s.73-3.63,2.05-4.95c1.37-1.37,3.16-2.05,4.95-2.05s3.59.68,4.95,2.05c2.45,2.45,2.68,6.26.74,9l-4.87-4.87c-.46-.46-1.2-.46-1.65,0s-.46,1.2,0,1.65l4.87,4.87c-2.73,1.94-6.55,1.71-9-.74Z"/>
    <path class="cls-1" d="M128.87,156.72h-4.81c-.08-1.02-.52-1.99-1.27-2.7-.83-.79-1.95-1.22-3.09-1.15l-1.91.09v-1.42c0-.65-.52-1.17-1.17-1.17s-1.17.52-1.17,1.17v1.53l-13.35.63c-1.67.08-3.06,1.12-3.67,2.56-1.15-.29-2.54-.57-4.11-.74,1.83-3.33,4.95-6.69,6.6-8.34.63.35,1.32.54,2.02.54,1.01,0,2.02-.36,2.82-1.09l9.88-8.99,1.15,1.15c.23.23.53.34.83.34s.6-.11.83-.34c.46-.46.46-1.2,0-1.65l-1.07-1.07,1.41-1.29c.84-.77,1.34-1.86,1.37-3.01.02-1.03-.35-2.02-1.01-2.8l3.4-3.4c.46-.46.46-1.2,0-1.65s-1.2-.46-1.65,0l-3.4,3.4c-.78-.66-1.77-1.02-2.8-1.01-1.14.03-2.24.53-3,1.37l-1.28,1.41-1-1c-.46-.46-1.2-.46-1.65,0s-.46,1.2,0,1.65l1.08,1.08-8.99,9.88c-1.23,1.36-1.4,3.3-.56,4.83-1.88,1.89-5.57,5.88-7.48,9.83-4.7-.11-10.51.92-16.24,4.92-2.47,1.72-4.92,2.88-7.31,3.52-1.15-1.13-2.13-2.45-2.8-3.95-1.56-3.47-1.99-9.01,4.62-15.75,2.15,1.27,4.57,1.92,7,1.92,3.53,0,7.06-1.34,9.75-4.03l26.67-26.67c5.36-5.36,5.36-14.09,0-19.45l-11.18-11.18c-2.6-2.6-6.05-4.03-9.73-4.03s-7.13,1.43-9.73,4.03l-26.68,26.68c-2.6,2.6-4.03,6.06-4.03,9.74,0,2.34.59,4.59,1.68,6.59-1.07,1.14-3.29,3.7-5.15,7.19-3.37,6.31-3.93,12.59-1.59,18.17,2.91,6.97,7.31,11.48,12.72,13.05,1.43.42,2.91.62,4.41.62,1.12,0,2.25-.12,3.4-.35,3.23,2.75,7.49,4.5,11.59,4.5.28,0,.55,0,.83-.02,8.11-.47,11.46-7.67,13.28-13.03,0-.02.01-.03.02-.05,1.84.16,3.48.49,4.86.86.33,1.91,1.93,3.38,3.93,3.48l13.34.63v1.62c0,.65.52,1.17,1.17,1.17s1.17-.52,1.17-1.17v-1.51l1.91.09c.07,0,.13,0,.2,0,1.07,0,2.12-.42,2.9-1.16.74-.71,1.18-1.68,1.27-2.7h4.81c.64,0,1.17-.52,1.17-1.17s-.52-1.17-1.17-1.17ZM114.29,130.03c.17-.19.38-.22.49-.23.1-.01.32.02.51.2l1.17,1.17c.18.18.21.39.2.51,0,.11-.04.32-.23.5l-1.53,1.4-2.01-2.01,1.4-1.53ZM102.44,143.05l8.88-9.76,1.86,1.86-9.76,8.88c-.27.25-.69.24-.96-.02-.26-.26-.27-.68-.02-.96ZM59.06,114.24l26.68-26.68c1.83-1.83,4.25-2.83,6.84-2.83s5.01,1.01,6.84,2.83l11.18,11.18c3.77,3.77,3.77,9.9,0,13.67l-26.67,26.67c-3.78,3.78-9.93,3.78-13.71,0l-11.15-11.15c-1.83-1.83-2.84-4.26-2.84-6.84s1.01-5.02,2.84-6.85ZM60.44,163.83c-4.71-1.37-8.59-5.42-11.22-11.71-4.15-9.92,3.25-19.45,5.93-22.45.32.39.65.78,1.01,1.14l11.15,11.15c.27.27.55.51.83.75-7.63,7.97-6.33,14.72-4.83,18.07.56,1.24,1.32,2.41,2.23,3.49-1.76.16-3.47.03-5.11-.45ZM79.89,168.48c-2.9.16-6.47-.88-9.45-2.91,2.14-.76,4.3-1.89,6.46-3.39,4.89-3.42,9.79-4.49,13.97-4.53-2.55,7.19-5.95,10.55-10.99,10.84ZM102.28,158.58c-.37-.02-.66-.32-.66-.69s.29-.67.66-.69l13.18-.62v2.63l-13.18-.62ZM120.59,158.71c0,.26-.13.43-.21.5s-.25.18-.51.19l-2.07-.1v-2.85l2.07-.1h.03c.24,0,.4.12.48.19.08.08.21.24.21.5v1.66Z"/>
    <path class="cls-2" d="M34.39,136.42c-.3,0-.6-.11-.83-.34l-8.19-8.19c-.46-.46-.46-1.2,0-1.65s1.2-.46,1.65,0l8.19,8.19c.46.46.46,1.2,0,1.65-.23.23-.53.34-.83.34Z"/>
    <path class="cls-2" d="M37.16,133.65c-.3,0-.6-.11-.83-.34l-8.19-8.19c-.46-.46-.46-1.2,0-1.65s1.2-.46,1.65,0l8.19,8.19c.46.46.46,1.2,0,1.65-.23.23-.53.34-.83.34Z"/>
    <path class="cls-2" d="M40.42,127.62l-6.71-6.71c-2.56-2.56-6.57-2.74-9.38-.61l-15.77-15.77c-.6-.6-7.91-6.93-8.51-6.33-.6.6,5.4,7.59,6.01,8.19l16.09,16.09c-2.13,2.8-1.95,6.82.61,9.38l6.71,6.71c1.35,1.35,3.15,2.09,5.06,2.09s3.72-.74,5.06-2.09l.83-.83c1.35-1.35,2.09-3.15,2.09-5.06s-.74-3.72-2.09-5.06ZM38.36,135.68l-.83.83c-1.6,1.59-4.41,1.59-6,0l-6.71-6.71c-1.65-1.65-1.65-4.35,0-6l.83-.83c.83-.83,1.91-1.24,3-1.24s2.17.41,3,1.24l6.71,6.71c.8.8,1.24,1.86,1.24,3s-.44,2.2-1.24,3Z"/>
  </g>
</svg>