<?xml version="1.0" encoding="UTF-8"?>
<svg id="Calque_2" data-name="Calque 2" xmlns="http://www.w3.org/2000/svg" xmlns:xlink="http://www.w3.org/1999/xlink" viewBox="0 0 407 147">
  <defs>
    <style>
      .cls-1 {
        fill: none;
      }

      .cls-2 {
        fill: #4b5859;
      }

      .cls-3 {
        clip-path: url(#clippath-1);
      }

      .cls-4 {
        clip-path: url(#clippath-3);
      }

      .cls-5 {
        clip-path: url(#clippath-4);
      }

      .cls-6 {
        clip-path: url(#clippath-2);
      }

      .cls-7 {
        clip-path: url(#clippath-7);
      }

      .cls-8 {
        clip-path: url(#clippath-6);
      }

      .cls-9 {
        clip-path: url(#clippath-5);
      }

      .cls-10 {
        fill: #fff;
      }

      .cls-11 {
        fill: #cad510;
      }

      .cls-12 {
        clip-path: url(#clippath);
      }
    </style>
    <clipPath id="clippath">
      <rect class="cls-1" width="407" height="147"/>
    </clipPath>
    <clipPath id="clippath-1">
      <rect class="cls-1" width="407" height="147"/>
    </clipPath>
    <clipPath id="clippath-2">
      <rect class="cls-1" width="407" height="147"/>
    </clipPath>
    <clipPath id="clippath-3">
      <rect class="cls-1" width="407" height="147"/>
    </clipPath>
    <clipPath id="clippath-4">
      <rect class="cls-1" width="407" height="147"/>
    </clipPath>
    <clipPath id="clippath-5">
      <rect class="cls-1" width="407" height="147"/>
    </clipPath>
    <clipPath id="clippath-6">
      <rect class="cls-1" width="407" height="147"/>
    </clipPath>
    <clipPath id="clippath-7">
      <rect class="cls-1" width="407" height="147"/>
    </clipPath>
  </defs>
  <g id="sociétés">
    <g>
      <g class="cls-12">
        <path class="cls-2" d="M11.63,138.98v.48c0,3.29-2.24,5.82-5.47,5.82s-5.84-2.89-5.84-6.21,2.67-6.28,5.99-6.28c1.79,0,3.57.84,4.7,2.32l-1.01,1c-.83-1.18-2.22-1.95-3.63-1.95-2.59,0-4.61,2.18-4.61,4.86,0,2.51,1.99,4.89,4.49,4.89,1.79,0,3.73-1.61,3.79-3.56h-2.99v-1.37h4.58Z"/>
        <path class="cls-2" d="M22.61,138.71h.46c1.47,0,3.07-.29,3.07-2.19s-1.72-2.15-3.14-2.15h-.38v4.34ZM28.36,145.02h-1.75l-3.4-5.07h-.6v5.07h-1.44v-11.98h1.75c1.03,0,2.13.02,3.05.56.97.59,1.52,1.72,1.52,2.86,0,1.72-1.1,3.15-2.77,3.35l3.65,5.21Z"/>
        <path class="cls-2" d="M47.47,139.03c0-2.64-1.9-4.85-4.61-4.85s-4.61,2.21-4.61,4.85,2.11,4.85,4.61,4.85,4.61-2.11,4.61-4.85M48.91,139.03c0,3.56-2.71,6.25-6.05,6.25s-6.05-2.69-6.05-6.25,2.74-6.25,6.05-6.25,6.05,2.81,6.05,6.25"/>
        <path class="cls-2" d="M59.66,133.04v7.07c0,1.95.57,3.77,2.79,3.77s2.79-1.81,2.79-3.77v-7.07h1.44v7.58c0,2.64-1.58,4.66-4.23,4.66s-4.23-2.02-4.23-4.66v-7.58h1.44Z"/>
        <path class="cls-2" d="M78.23,138.66h.46c1.47,0,3.07-.29,3.07-2.19s-1.72-2.1-3.14-2.1h-.38v4.29ZM78.23,145.02h-1.44v-11.98h1.65c3.56,0,4.66,1.27,4.66,3.47,0,2.53-1.86,3.5-4.05,3.5h-.83v5.02Z"/>
      </g>
      <polygon class="cls-2" points="92.49 133.04 98.69 133.04 98.69 134.4 93.93 134.4 93.93 137.76 98.56 137.76 98.56 139.12 93.93 139.12 93.93 143.66 98.69 143.66 98.69 145.02 92.49 145.02 92.49 133.04"/>
      <path class="cls-2" d="M150.52,135.8l-2.05,4.85h4.11l-2.05-4.85ZM147.87,142.02l-1.32,3h-1.55l5.52-12.49,5.52,12.49h-1.55l-1.32-3h-5.3Z"/>
      <polygon class="cls-2" points="166.56 143.66 170.07 143.66 170.07 145.02 165.12 145.02 165.12 133.04 166.56 133.04 166.56 143.66"/>
      <polygon class="cls-2" points="180.58 143.66 184.09 143.66 184.09 145.02 179.14 145.02 179.14 133.04 180.58 133.04 180.58 143.66"/>
      <path class="cls-2" d="M197.45,135.8l-2.05,4.85h4.11l-2.05-4.85ZM194.79,142.02l-1.32,3h-1.55l5.52-12.49,5.52,12.49h-1.55l-1.32-3h-5.3Z"/>
      <polygon class="cls-2" points="211.9 132.47 220.58 141.89 220.58 133.04 222.02 133.04 222.02 145.52 213.35 136.09 213.35 145.02 211.9 145.02 211.9 132.47"/>
      <rect class="cls-2" x="232.14" y="133.04" width="1.44" height="11.98"/>
      <g class="cls-3">
        <path class="cls-2" d="M252.28,135.33c-.83-.76-1.96-1.18-3.05-1.18-2.59,0-4.57,2.24-4.57,4.89s1.96,4.86,4.54,4.86c1.13,0,2.22-.45,3.08-1.24v1.76c-.89.54-2.02.84-3.04.84-3.3,0-6.02-2.72-6.02-6.18s2.74-6.31,6.15-6.31c1.01,0,2.04.25,2.91.81v1.73Z"/>
      </g>
      <path class="cls-2" d="M304.42,129.51l-2.51,2.37-.67-.43,1.92-2.64,1.27.7ZM299.75,133.04h6.21v1.37h-4.76v3.35h4.63v1.37h-4.63v4.53h4.76v1.37h-6.21v-11.98Z"/>
      <polygon class="cls-2" points="315.71 132.47 324.39 141.89 324.39 133.04 325.83 133.04 325.83 145.52 317.15 136.09 317.15 145.02 315.71 145.02 315.71 132.47"/>
      <polygon class="cls-2" points="336 133.04 342.2 133.04 342.2 134.4 337.44 134.4 337.44 137.76 342.06 137.76 342.06 139.12 337.44 139.12 337.44 143.66 342.2 143.66 342.2 145.02 336 145.02 336 133.04"/>
      <g class="cls-6">
        <path class="cls-2" d="M353.54,138.71h.46c1.47,0,3.07-.29,3.07-2.19s-1.72-2.15-3.14-2.15h-.38v4.34ZM359.29,145.02h-1.75l-3.4-5.07h-.6v5.07h-1.44v-11.98h1.75c1.03,0,2.13.02,3.05.56.97.59,1.52,1.72,1.52,2.86,0,1.72-1.1,3.15-2.77,3.35l3.65,5.21Z"/>
        <path class="cls-2" d="M379.07,138.98v.48c0,3.29-2.24,5.82-5.47,5.82s-5.84-2.89-5.84-6.21,2.67-6.28,5.99-6.28c1.79,0,3.57.84,4.7,2.32l-1.01,1c-.83-1.18-2.22-1.95-3.63-1.95-2.59,0-4.61,2.18-4.61,4.86,0,2.51,1.99,4.89,4.49,4.89,1.79,0,3.73-1.61,3.79-3.56h-2.99v-1.37h4.58Z"/>
      </g>
      <rect class="cls-2" x="388.56" y="133.04" width="1.44" height="11.98"/>
      <polygon class="cls-2" points="400.28 133.04 406.49 133.04 406.49 134.4 401.72 134.4 401.72 137.76 406.35 137.76 406.35 139.12 401.72 139.12 401.72 143.66 406.49 143.66 406.49 145.02 400.28 145.02 400.28 133.04"/>
      <g class="cls-4">
        <path class="cls-11" d="M123.74,131.08h-.09c-.38,0-.69.32-.69.71v14.5c0,.39.31.71.69.71h.09c.38,0,.69-.32.69-.71v-14.5c0-.39-.31-.71-.69-.71"/>
        <path class="cls-11" d="M276.6,131.08h-.09c-.38,0-.69.32-.69.71v14.5c0,.39.31.71.69.71h.09c.38,0,.69-.32.69-.71v-14.5c0-.39-.31-.71-.69-.71"/>
      </g>
      <rect class="cls-2" width="300.58" height="111.18"/>
      <rect class="cls-10" x="301.6" y="1.78" width="103.71" height="107.56"/>
      <path class="cls-2" d="M303.29,3.53h100.33v104.05h-100.33V3.53ZM403.62.02h-103.71v111.07h107.1V.02h-3.39Z"/>
      <g class="cls-5">
        <path class="cls-2" d="M365.82,68.17v6.65c0,.47.05.92.15,1.36.1.44.2.86.29,1.27.49,1.22,1.19,2.22,2.09,2.97.9.76,1.95,1.14,3.12,1.14h19.31c.93,0,1.76-.28,2.5-.83.73-.55,1.37-1.27,1.91-2.14.64-.99.95-2.33.95-4.02,0-1.05-.23-2.04-.7-2.97-.47-.93-1.04-1.69-1.73-2.27-.93-.76-1.98-1.14-3.16-1.14h-24.75ZM401.29,30.47c1.42,0,2.63.58,3.64,1.75,1,1.17,1.51,2.6,1.51,4.29s-.5,3.13-1.51,4.33c-1,1.19-2.22,1.79-3.64,1.79h-30.04c-.93,0-1.77.28-2.53.83-.76.56-1.41,1.27-1.95,2.14-.64,1.11-.96,2.33-.96,3.67v6.65h24.75c1.13,0,2.19.15,3.2.44,1,.29,1.99.67,2.97,1.14,2.94,1.46,5.26,3.73,6.98,6.82.83,1.52,1.49,3.16,1.98,4.94.49,1.78.73,3.63.73,5.56,0,2.57-.42,5.02-1.25,7.35-.59,1.69-1.37,3.25-2.35,4.68-.98,1.43-2.1,2.64-3.38,3.63-2.55,2.16-5.51,3.24-8.89,3.24h-19.09c-2.2,0-4.26-.49-6.17-1.49-1.42-.7-2.73-1.63-3.93-2.8-1.2-1.17-2.21-2.51-3.05-4.02-1.81-3.03-2.72-6.56-2.72-10.58v-25.54c0-2.57.41-5.01,1.25-7.35.59-1.69,1.37-3.24,2.35-4.64.98-1.4,2.11-2.62,3.38-3.67,1.22-.99,2.56-1.76,4-2.32,1.44-.55,2.95-.83,4.52-.83h30.18Z"/>
        <path class="cls-2" d="M349.99,81.62h-27.61c-1.42,0-2.63-.6-3.64-1.79-1.01-1.19-1.51-2.64-1.51-4.33s.5-3.12,1.51-4.29c1-1.17,2.21-1.75,3.64-1.75h27.61c1.13,0,2.18-.38,3.16-1.14.74-.64,1.32-1.4,1.76-2.28.44-.88.66-1.89.66-3.06,0-1.57-.29-2.89-.88-3.94-.54-.93-1.21-1.66-2.02-2.19-.81-.52-1.7-.79-2.68-.79h-27.61c-1.42,0-2.64-.61-3.67-1.84-.98-1.05-1.47-2.48-1.47-4.29v-25.54c0-1.69.49-3.12,1.47-4.29,1.03-1.22,2.25-1.84,3.67-1.84h38.33c1.42,0,2.63.6,3.64,1.79,1,1.2,1.51,2.64,1.51,4.33s-.5,3.13-1.51,4.33c-1,1.2-2.21,1.79-3.64,1.79h-33.27v13.3h22.55c1.66,0,3.24.29,4.74.87,1.49.58,2.88,1.37,4.15,2.36,1.27,1.05,2.4,2.27,3.38,3.67.98,1.4,1.76,2.95,2.35,4.64.83,2.33,1.25,4.78,1.25,7.35,0,1.98-.25,3.86-.73,5.64-.49,1.78-1.15,3.43-1.98,4.94-.83,1.52-1.85,2.86-3.05,4.02-1.2,1.17-2.51,2.1-3.93,2.8-1.91.99-3.96,1.49-6.17,1.49"/>
      </g>
      <polygon class="cls-10" points="27.92 80.95 22.9 80.95 22.9 85.03 27.76 85.03 27.76 86.69 22.9 86.69 22.9 93.8 21.15 93.8 21.15 79.3 27.92 79.3 27.92 80.95"/>
      <path class="cls-10" d="M40.74,88.51l-2.49-5.87-2.49,5.87h4.97ZM41.46,90.17h-6.42l-1.6,3.64h-1.87l6.68-15.12,6.68,15.12h-1.87l-1.6-3.64Z"/>
      <g class="cls-9">
        <path class="cls-10" d="M59.38,79.97v2.1c-1.03-.95-2.26-1.42-3.69-1.42-1.55,0-2.85.58-3.92,1.74-1.07,1.16-1.6,2.56-1.6,4.18s.53,2.99,1.59,4.15c1.06,1.16,2.36,1.74,3.9,1.74,1.41,0,2.65-.5,3.73-1.5v2.14c-1.11.68-2.34,1.02-3.67,1.02-2,0-3.72-.72-5.15-2.17-1.43-1.45-2.14-3.22-2.14-5.31s.72-3.95,2.17-5.42c1.45-1.48,3.2-2.21,5.27-2.21,1.32,0,2.5.33,3.52.98"/>
      </g>
      <rect class="cls-10" x="64.5" y="79.3" width="1.74" height="14.5"/>
      <polygon class="cls-10" points="73.7 79.3 73.7 92.15 77.95 92.15 77.95 93.8 71.95 93.8 71.95 79.3 73.7 79.3"/>
      <rect class="cls-10" x="82.14" y="79.3" width="1.74" height="14.5"/>
      <polygon class="cls-10" points="93.36 80.95 93.36 93.8 91.61 93.8 91.61 80.95 88.29 80.95 88.29 79.3 96.68 79.3 96.68 80.95 93.36 80.95"/>
      <polygon class="cls-10" points="104.26 87.49 99.7 79.3 101.7 79.3 105.14 85.49 108.57 79.3 110.57 79.3 106.01 87.49 106.01 93.8 104.26 93.8 104.26 87.49"/>
      <polygon class="cls-10" points="129.9 94.11 125.7 84.22 125.67 84.22 124.04 93.8 122.24 93.8 125.09 78.68 129.9 90.11 134.7 78.68 137.56 93.8 135.76 93.8 134.13 84.22 134.09 84.22 129.9 94.11"/>
      <path class="cls-10" d="M149.89,88.51l-2.48-5.87-2.49,5.87h4.97ZM150.61,90.17h-6.42l-1.6,3.64h-1.87l6.68-15.12,6.68,15.12h-1.87l-1.6-3.64Z"/>
      <polygon class="cls-10" points="158.18 93.8 158.18 78.61 168.68 90.01 168.68 79.3 170.42 79.3 170.42 94.4 159.93 82.99 159.93 93.8 158.18 93.8"/>
      <path class="cls-10" d="M183.68,88.51l-2.48-5.87-2.49,5.87h4.97ZM184.41,90.17h-6.42l-1.6,3.64h-1.87l6.68-15.12,6.68,15.12h-1.87l-1.6-3.64Z"/>
      <g class="cls-8">
        <path class="cls-10" d="M199.34,86.49h5.55v.58c0,2.01-.62,3.69-1.86,5.03-1.24,1.34-2.82,2.01-4.77,2.01s-3.6-.75-4.99-2.24c-1.38-1.49-2.08-3.25-2.08-5.28s.71-3.88,2.12-5.37c1.42-1.49,3.13-2.23,5.13-2.23,1.1,0,2.15.25,3.16.74,1.01.5,1.85,1.18,2.53,2.07l-1.22,1.21c-.51-.72-1.16-1.29-1.95-1.72-.79-.43-1.61-.64-2.45-.64-1.56,0-2.88.57-3.96,1.72-1.08,1.15-1.62,2.54-1.62,4.16s.54,2.93,1.6,4.13c1.07,1.2,2.35,1.8,3.83,1.8,1.11,0,2.15-.43,3.1-1.29.95-.86,1.45-1.87,1.48-3.02h-3.62v-1.65Z"/>
      </g>
      <polygon class="cls-10" points="209.71 93.8 209.71 79.3 217.22 79.3 217.22 80.95 211.45 80.95 211.45 85.01 217.05 85.01 217.05 86.67 211.45 86.67 211.45 92.15 217.22 92.15 217.22 93.8 209.71 93.8"/>
      <polygon class="cls-10" points="229.03 94.11 224.84 84.22 224.8 84.22 223.17 93.8 221.37 93.8 224.23 78.68 229.03 90.11 233.84 78.68 236.69 93.8 234.89 93.8 233.26 84.22 233.22 84.22 229.03 94.11"/>
      <polygon class="cls-10" points="241.35 93.8 241.35 79.3 248.86 79.3 248.86 80.95 243.09 80.95 243.09 85.01 248.69 85.01 248.69 86.67 243.09 86.67 243.09 92.15 248.86 92.15 248.86 93.8 241.35 93.8"/>
      <polygon class="cls-10" points="253.94 93.8 253.94 78.61 264.44 90.01 264.44 79.3 266.18 79.3 266.18 94.4 255.68 82.99 255.68 93.8 253.94 93.8"/>
      <polygon class="cls-10" points="275.53 80.95 275.53 93.8 273.79 93.8 273.79 80.95 270.47 80.95 270.47 79.3 278.85 79.3 278.85 80.95 275.53 80.95"/>
      <g class="cls-7">
        <path class="cls-11" d="M59.89,43.77c-1.04,0-1.97.29-2.79.88-.61.45-1.11,1.03-1.52,1.75-.41.72-.62,1.48-.62,2.29,0,1.3.28,2.33.84,3.09.47.67,1.04,1.22,1.69,1.65.65.43,1.38.64,2.21.64h18.35c1.04,0,1.96-.29,2.76-.88.8-.58,1.37-1.23,1.72-1.95.35-.72.52-1.5.52-2.35v-5.11h-23.15ZM78.37,14.78c1.38,0,2.71.21,3.99.64,1.28.43,2.45,1.02,3.54,1.78,1.12.81,2.12,1.75,2.98,2.82.86,1.08,1.56,2.26,2.08,3.56.73,1.8,1.1,3.68,1.1,5.65v19.64c0,3.09-.8,5.81-2.4,8.14-.74,1.17-1.63,2.2-2.69,3.09-1.06.9-2.22,1.61-3.47,2.15-1.69.76-3.5,1.14-5.45,1.14h-18.16c-2.98,0-5.6-.83-7.85-2.49-1.12-.76-2.12-1.69-2.98-2.79-.87-1.1-1.56-2.3-2.08-3.6-.74-1.79-1.1-3.68-1.1-5.65,0-1.48.22-2.9.65-4.27.43-1.37,1.01-2.63,1.75-3.8,1.51-2.38,3.57-4.12,6.16-5.25.86-.36,1.74-.65,2.63-.87.89-.22,1.83-.34,2.82-.34h23.15v-5.11c0-.99-.28-1.93-.84-2.83-.48-.67-1.05-1.22-1.72-1.65-.67-.42-1.42-.64-2.24-.64h-26.53c-1.26,0-2.33-.46-3.21-1.38-.89-.92-1.33-2.03-1.33-3.33s.44-2.4,1.33-3.3c.89-.9,1.96-1.35,3.21-1.35h26.66Z"/>
        <path class="cls-11" d="M109.13,58.77v-2.69c0-1.3.44-2.41,1.33-3.33.89-.92,1.96-1.38,3.21-1.38s2.31.46,3.18,1.38c.86.92,1.3,2.03,1.3,3.33v2.69c0,1.3-.43,2.41-1.3,3.33-.87.92-1.93,1.38-3.18,1.38s-2.32-.46-3.21-1.38c-.89-.92-1.33-2.03-1.33-3.33"/>
        <path class="cls-11" d="M142.71,59.31c-3.2-2.2-5.72-5.07-7.56-8.61-1.84-3.54-2.76-7.33-2.76-11.37,0-2.64.35-5.12,1.04-7.43.69-2.31,1.66-4.43,2.92-6.36,1.25-1.97,2.76-3.71,4.51-5.21,1.75-1.5,3.69-2.7,5.8-3.6,2.9-1.3,5.94-1.95,9.15-1.95h16.02c1.25,0,2.32.46,3.21,1.38.89.92,1.33,2.03,1.33,3.33s-.44,2.41-1.33,3.33c-.89.92-1.96,1.38-3.21,1.38h-16.02c-1.51,0-2.94.22-4.28.67-1.34.45-2.59,1.08-3.76,1.88-1.99,1.39-3.54,3.17-4.67,5.35-1.12,2.18-1.69,4.52-1.69,7.03,0,1.52.22,2.98.65,4.37.43,1.39,1.04,2.69,1.82,3.9.78,1.21,1.71,2.29,2.79,3.23,1.08.94,2.27,1.7,3.57,2.29,1.73.76,3.59,1.14,5.58,1.14h16.02c1.25,0,2.32.46,3.21,1.38.89.92,1.33,2.03,1.33,3.33s-.44,2.41-1.33,3.33c-.89.92-1.96,1.38-3.21,1.38h-16.02c-2.51,0-4.83-.37-6.97-1.11-2.14-.74-4.18-1.76-6.13-3.06"/>
        <path class="cls-11" d="M193.66,58.77v-2.69c0-1.3.44-2.41,1.33-3.33.89-.92,1.96-1.38,3.21-1.38s2.31.46,3.18,1.38c.86.92,1.3,2.03,1.3,3.33v2.69c0,1.3-.43,2.41-1.3,3.33-.87.92-1.93,1.38-3.18,1.38s-2.32-.46-3.21-1.38c-.89-.92-1.33-2.03-1.33-3.33"/>
        <path class="cls-11" d="M255.21,35.94c.89.92,1.33,2.03,1.33,3.33s-.44,2.41-1.33,3.33c-.89.92-1.96,1.38-3.21,1.38h-22.96v14.86c0,1.3-.44,2.4-1.33,3.3-.89.9-1.96,1.35-3.21,1.35s-2.32-.45-3.21-1.35c-.89-.89-1.33-1.99-1.33-3.3V19.56c0-1.26.45-2.35,1.36-3.3.91-.94,1.97-1.41,3.18-1.41h30.29c1.25,0,2.31.46,3.18,1.38.87.92,1.3,2.03,1.3,3.33s-.43,2.41-1.3,3.33c-.86.92-1.92,1.38-3.18,1.38h-25.75v10.29h22.96c1.25,0,2.32.46,3.21,1.38"/>
      </g>
    </g>
  </g>
</svg>