<?xml version="1.0" encoding="UTF-8"?>
<svg id="Calque_2" data-name="Calque 2" xmlns="http://www.w3.org/2000/svg" xmlns:xlink="http://www.w3.org/1999/xlink" viewBox="0 0 406.67 141.76">
  <defs>
    <style>
      .cls-1 {
        fill: none;
      }

      .cls-2 {
        fill: #4b5859;
      }

      .cls-3 {
        clip-path: url(#clippath-1);
      }

      .cls-4 {
        clip-path: url(#clippath-3);
      }

      .cls-5 {
        clip-path: url(#clippath-4);
      }

      .cls-6 {
        clip-path: url(#clippath-2);
      }

      .cls-7 {
        fill: #fff;
      }

      .cls-8 {
        fill: #cad510;
      }

      .cls-9 {
        clip-path: url(#clippath);
      }
    </style>
    <clipPath id="clippath">
      <rect class="cls-1" width="406.67" height="141.76"/>
    </clipPath>
    <clipPath id="clippath-1">
      <rect class="cls-1" width="406.67" height="141.76"/>
    </clipPath>
    <clipPath id="clippath-2">
      <rect class="cls-1" width="406.67" height="141.76"/>
    </clipPath>
    <clipPath id="clippath-3">
      <rect class="cls-1" width="406.67" height="141.76"/>
    </clipPath>
    <clipPath id="clippath-4">
      <rect class="cls-1" width="406.67" height="141.76"/>
    </clipPath>
  </defs>
  <g id="sociétés">
    <g>
      <rect class="cls-2" width="300.33" height="107.11"/>
      <rect class="cls-7" x="301.35" y="1.71" width="103.63" height="103.63"/>
      <path class="cls-2" d="M303.04,3.4h100.24v100.25h-100.24V3.4ZM403.28.02h-103.63v107.01h107.01V.02h-3.38Z"/>
      <g class="cls-9">
        <path class="cls-8" d="M32.93,37.36c-.73,0-1.39.2-1.97.6-.43.31-.79.7-1.08,1.19-.29.49-.44,1.01-.44,1.56,0,.89.2,1.59.6,2.11.34.46.73.83,1.19,1.12.46.29.98.44,1.56.44h12.07c.74,0,1.38-.2,1.95-.6.57-.4,1-.92,1.31-1.56.06-.21.12-.44.18-.67.06-.23.09-.47.09-.71v-3.49h-15.47ZM45.1,17.58c.98,0,1.92.15,2.82.44.9.29,1.74.7,2.5,1.22.79.55,1.5,1.19,2.11,1.93.61.74,1.1,1.55,1.47,2.43.52,1.22.78,2.51.78,3.86v13.4c0,2.11-.57,3.96-1.7,5.55-.52.8-1.15,1.5-1.9,2.11-.75.61-1.57,1.1-2.46,1.47-1.19.52-2.48.78-3.86.78h-11.93c-2.11,0-3.96-.57-5.55-1.7-.8-.52-1.5-1.15-2.11-1.9-.61-.75-1.1-1.57-1.47-2.46-.52-1.22-.78-2.51-.78-3.86,0-1.01.15-1.98.46-2.92.31-.93.72-1.8,1.24-2.59,1.07-1.62,2.52-2.82,4.36-3.58.61-.24,1.23-.44,1.86-.6.63-.15,1.29-.23,2-.23h15.47v-3.49c0-.67-.2-1.32-.6-1.93-.34-.46-.74-.83-1.22-1.12-.47-.29-1-.44-1.58-.44h-18.77c-.89,0-1.65-.31-2.27-.94-.63-.63-.94-1.38-.94-2.27s.31-1.64.94-2.25c.63-.61,1.39-.92,2.27-.92h18.87Z"/>
        <path class="cls-8" d="M69.56,49.11c-1.62-1.07-2.82-2.52-3.58-4.36-.52-1.22-.78-2.51-.78-3.85v-20.11c0-.89.31-1.64.92-2.27.61-.63,1.36-.94,2.25-.94s1.64.32,2.27.94c.63.63.94,1.39.94,2.27v20.11c0,.67.2,1.33.6,1.97.31.49.73.86,1.26,1.12.53.26,1.08.39,1.63.39h15.74c.89,0,1.64.31,2.27.94.63.63.94,1.39.94,2.27s-.31,1.64-.94,2.27c-.63.63-1.39.94-2.27.94h-15.74c-1.04,0-2.02-.15-2.94-.46s-1.78-.72-2.57-1.24"/>
        <path class="cls-8" d="M108.12,49.11c-1.62-1.07-2.82-2.52-3.58-4.36-.52-1.22-.78-2.51-.78-3.85v-20.11c0-.89.31-1.64.92-2.27.61-.63,1.36-.94,2.25-.94s1.64.32,2.27.94c.63.63.94,1.39.94,2.27v20.11c0,.67.2,1.33.6,1.97.31.49.73.86,1.26,1.12.54.26,1.08.39,1.63.39h15.74c.89,0,1.64.31,2.27.94.63.63.94,1.39.94,2.27s-.31,1.64-.94,2.27c-.63.63-1.39.94-2.27.94h-15.74c-1.04,0-2.02-.15-2.94-.46s-1.78-.72-2.57-1.24"/>
        <path class="cls-8" d="M152.23,37.36c-.74,0-1.39.2-1.98.6-.43.31-.79.7-1.08,1.19-.29.49-.44,1.01-.44,1.56,0,.89.2,1.59.6,2.11.34.46.73.83,1.19,1.12.46.29.98.44,1.56.44h12.07c.74,0,1.38-.2,1.95-.6.57-.4,1-.92,1.31-1.56.06-.21.12-.44.18-.67.06-.23.09-.47.09-.71v-3.49h-15.47ZM164.39,17.58c.98,0,1.92.15,2.82.44.9.29,1.74.7,2.5,1.22.79.55,1.5,1.19,2.11,1.93.61.74,1.1,1.55,1.47,2.43.52,1.22.78,2.51.78,3.86v13.4c0,2.11-.57,3.96-1.7,5.55-.52.8-1.16,1.5-1.91,2.11-.75.61-1.57,1.1-2.45,1.47-1.19.52-2.48.78-3.86.78h-11.93c-2.11,0-3.96-.57-5.55-1.7-.8-.52-1.5-1.15-2.11-1.9-.61-.75-1.1-1.57-1.47-2.46-.52-1.22-.78-2.51-.78-3.86,0-1.01.15-1.98.46-2.92.31-.93.72-1.8,1.24-2.59,1.07-1.62,2.52-2.82,4.36-3.58.61-.24,1.23-.44,1.86-.6s1.29-.23,2-.23h15.47v-3.49c0-.67-.2-1.32-.6-1.93-.34-.46-.74-.83-1.22-1.12-.47-.29-1-.44-1.58-.44h-18.77c-.89,0-1.65-.31-2.27-.94-.63-.63-.94-1.38-.94-2.27s.31-1.64.94-2.25c.63-.61,1.38-.92,2.27-.92h18.87Z"/>
        <path class="cls-8" d="M211.53,47.6v-13.4c0-1.07-.15-2.09-.46-3.05-.3-.96-.73-1.86-1.28-2.69-1.13-1.68-2.63-2.92-4.5-3.72-.61-.24-1.26-.44-1.93-.6-.67-.15-1.36-.23-2.06-.23h-10.28v23.68c0,.89-.31,1.64-.94,2.27-.63.63-1.38.94-2.27.94s-1.64-.31-2.25-.94c-.61-.63-.92-1.38-.92-2.27v-26.85c0-.92.31-1.68.92-2.29.61-.61,1.36-.92,2.25-.92h13.5c1.74,0,3.4.25,4.96.76,1.56.5,3.01,1.2,4.36,2.09,1.35.89,2.53,1.95,3.56,3.19,1.02,1.24,1.86,2.62,2.5,4.15.86,2.05,1.28,4.21,1.28,6.47v13.4c0,.89-.32,1.64-.94,2.27-.63.63-1.38.94-2.27.94s-1.65-.31-2.27-.94c-.63-.63-.94-1.38-.94-2.27"/>
        <path class="cls-8" d="M229.11,47.6v-26.76c0-.89.31-1.64.94-2.27.63-.63,1.38-.94,2.27-.94s1.64.31,2.25.94c.61.63.92,1.39.92,2.27v26.76c0,.89-.31,1.64-.92,2.27-.61.63-1.36.94-2.25.94s-1.65-.31-2.27-.94c-.63-.63-.94-1.38-.94-2.27"/>
        <path class="cls-8" d="M253.81,47.96c-2.26-1.5-4.05-3.46-5.35-5.88-1.3-2.42-1.95-5-1.95-7.76,0-1.81.24-3.49.74-5.07.49-1.58,1.18-3.02,2.07-4.34.89-1.35,1.95-2.53,3.19-3.56,1.24-1.03,2.61-1.84,4.11-2.46,2.05-.89,4.21-1.33,6.47-1.33h11.34c.89,0,1.64.32,2.27.94.63.63.94,1.38.94,2.27s-.31,1.65-.94,2.27c-.63.63-1.38.94-2.27.94h-11.34c-1.07,0-2.08.15-3.03.46-.95.31-1.84.73-2.66,1.28-1.41.95-2.51,2.17-3.3,3.65-.8,1.48-1.19,3.08-1.19,4.8,0,1.04.15,2.04.46,2.98.31.95.74,1.84,1.29,2.66.55.83,1.21,1.56,1.97,2.2.76.64,1.61,1.16,2.52,1.56,1.22.52,2.54.78,3.95.78h11.34c.89,0,1.64.32,2.27.94.63.63.94,1.39.94,2.27s-.31,1.64-.94,2.27c-.63.63-1.38.94-2.27.94h-11.34c-1.77,0-3.42-.25-4.93-.76-1.52-.5-2.96-1.2-4.34-2.09"/>
        <path class="cls-7" d="M122.68,74.27c-1.41-1.25-3.35-1.93-5.2-1.93-4.42,0-7.79,3.69-7.79,8.05s3.35,8,7.74,8c1.93,0,3.79-.73,5.26-2.04v2.9c-1.52.89-3.45,1.39-5.18,1.39-5.62,0-10.28-4.47-10.28-10.17s4.68-10.38,10.49-10.38c1.73,0,3.48.42,4.97,1.33v2.85Z"/>
        <path class="cls-7" d="M134.26,89.12c0,.84-.68,1.52-1.52,1.52s-1.52-.68-1.52-1.52.68-1.52,1.52-1.52,1.52.71,1.52,1.52"/>
      </g>
      <polygon class="cls-7" points="150.13 85.09 155.98 70.5 158.68 70.5 150.13 91.26 141.55 70.5 144.24 70.5 150.13 85.09"/>
      <g class="cls-3">
        <path class="cls-7" d="M169,89.12c0,.84-.68,1.52-1.52,1.52s-1.52-.68-1.52-1.52.68-1.52,1.52-1.52,1.52.71,1.52,1.52"/>
        <path class="cls-7" d="M192.72,74.27c-1.41-1.25-3.35-1.93-5.2-1.93-4.42,0-7.79,3.69-7.79,8.05s3.35,8,7.74,8c1.93,0,3.79-.73,5.26-2.04v2.9c-1.52.89-3.45,1.39-5.18,1.39-5.62,0-10.28-4.47-10.28-10.17s4.68-10.38,10.49-10.38c1.73,0,3.48.42,4.97,1.33v2.85Z"/>
        <path class="cls-2" d="M11.62,134.04v.46c0,3.17-2.23,5.61-5.47,5.61s-5.83-2.79-5.83-5.99,2.66-6.05,5.99-6.05c1.79,0,3.57.81,4.7,2.24l-1.01.97c-.83-1.13-2.22-1.88-3.63-1.88-2.59,0-4.61,2.1-4.61,4.69,0,2.42,1.99,4.72,4.49,4.72,1.79,0,3.72-1.55,3.78-3.43h-2.99v-1.32h4.58Z"/>
        <path class="cls-2" d="M22.59,133.78h.46c1.47,0,3.06-.28,3.06-2.11s-1.72-2.07-3.14-2.07h-.38v4.18ZM28.34,139.86h-1.75l-3.4-4.89h-.6v4.89h-1.44v-11.55h1.75c1.03,0,2.13.01,3.05.54.97.57,1.52,1.65,1.52,2.76,0,1.65-1.1,3.03-2.77,3.23l3.64,5.02Z"/>
        <path class="cls-2" d="M47.43,134.09c0-2.54-1.9-4.67-4.61-4.67s-4.61,2.13-4.61,4.67,2.11,4.67,4.61,4.67,4.61-2.04,4.61-4.67M48.87,134.09c0,3.43-2.71,6.02-6.05,6.02s-6.05-2.59-6.05-6.02,2.74-6.02,6.05-6.02,6.05,2.71,6.05,6.02"/>
        <path class="cls-2" d="M59.61,128.31v6.81c0,1.88.57,3.63,2.79,3.63s2.79-1.74,2.79-3.63v-6.81h1.44v7.3c0,2.54-1.58,4.49-4.23,4.49s-4.23-1.95-4.23-4.49v-7.3h1.44Z"/>
        <path class="cls-2" d="M78.16,133.73h.46c1.47,0,3.06-.28,3.06-2.11s-1.72-2.02-3.14-2.02h-.38v4.14ZM78.16,139.86h-1.44v-11.55h1.65c3.55,0,4.66,1.22,4.66,3.34,0,2.44-1.85,3.37-4.04,3.37h-.83v4.84Z"/>
      </g>
      <polygon class="cls-2" points="92.41 128.31 98.61 128.31 98.61 129.63 93.85 129.63 93.85 132.86 98.47 132.86 98.47 134.18 93.85 134.18 93.85 138.54 98.61 138.54 98.61 139.86 92.41 139.86 92.41 128.31"/>
      <path class="cls-2" d="M150.4,130.98l-2.05,4.67h4.1l-2.05-4.67ZM147.75,136.97l-1.32,2.89h-1.55l5.51-12.04,5.51,12.04h-1.55l-1.32-2.89h-5.3Z"/>
      <polygon class="cls-2" points="166.42 138.54 169.93 138.54 169.93 139.86 164.98 139.86 164.98 128.31 166.42 128.31 166.42 138.54"/>
      <polygon class="cls-2" points="180.43 138.54 183.93 138.54 183.93 139.86 178.99 139.86 178.99 128.31 180.43 128.31 180.43 138.54"/>
      <path class="cls-2" d="M197.28,130.98l-2.05,4.67h4.1l-2.05-4.67ZM194.63,136.97l-1.32,2.89h-1.55l5.51-12.04,5.51,12.04h-1.55l-1.32-2.89h-5.3Z"/>
      <polygon class="cls-2" points="211.73 127.76 220.39 136.84 220.39 128.31 221.83 128.31 221.83 140.33 213.17 131.25 213.17 139.86 211.73 139.86 211.73 127.76"/>
      <rect class="cls-2" x="231.95" y="128.31" width="1.44" height="11.55"/>
      <g class="cls-6">
        <path class="cls-2" d="M252.07,130.52c-.83-.73-1.96-1.13-3.05-1.13-2.59,0-4.56,2.16-4.56,4.72s1.96,4.69,4.53,4.69c1.13,0,2.22-.43,3.08-1.2v1.7c-.89.52-2.02.81-3.03.81-3.29,0-6.02-2.62-6.02-5.96s2.74-6.08,6.14-6.08c1.01,0,2.04.24,2.91.78v1.67Z"/>
      </g>
      <path class="cls-2" d="M304.17,124.91l-2.51,2.28-.67-.41,1.92-2.54,1.27.67ZM299.5,128.31h6.2v1.32h-4.76v3.23h4.62v1.32h-4.62v4.37h4.76v1.32h-6.2v-11.55Z"/>
      <polygon class="cls-2" points="315.45 127.76 324.12 136.84 324.12 128.31 325.56 128.31 325.56 140.33 316.89 131.25 316.89 139.86 315.45 139.86 315.45 127.76"/>
      <polygon class="cls-2" points="335.72 128.31 341.92 128.31 341.92 129.63 337.16 129.63 337.16 132.86 341.78 132.86 341.78 134.18 337.16 134.18 337.16 138.54 341.92 138.54 341.92 139.86 335.72 139.86 335.72 128.31"/>
      <g class="cls-4">
        <path class="cls-2" d="M353.24,133.78h.46c1.47,0,3.06-.28,3.06-2.11s-1.71-2.07-3.14-2.07h-.38v4.18ZM358.99,139.86h-1.74l-3.4-4.89h-.6v4.89h-1.44v-11.55h1.74c1.03,0,2.13.01,3.05.54.96.57,1.52,1.65,1.52,2.76,0,1.65-1.1,3.03-2.77,3.23l3.64,5.02Z"/>
        <path class="cls-2" d="M378.75,134.04v.46c0,3.17-2.24,5.61-5.47,5.61s-5.83-2.79-5.83-5.99,2.67-6.05,5.99-6.05c1.79,0,3.57.81,4.7,2.24l-1.01.97c-.83-1.13-2.22-1.88-3.63-1.88-2.59,0-4.61,2.1-4.61,4.69,0,2.42,1.99,4.72,4.49,4.72,1.79,0,3.72-1.55,3.78-3.43h-2.99v-1.32h4.58Z"/>
      </g>
      <rect class="cls-2" x="388.24" y="128.31" width="1.44" height="11.55"/>
      <polygon class="cls-2" points="399.95 128.31 399.95 139.86 406.15 139.86 406.15 138.54 401.39 138.54 401.39 134.18 406.01 134.18 406.01 132.86 401.39 132.86 401.39 129.63 406.15 129.63 406.15 128.31 399.95 128.31"/>
      <g class="cls-5">
        <path class="cls-8" d="M123.64,126.43h-.09c-.38,0-.69.31-.69.69v13.96c0,.38.31.69.69.69h.09c.38,0,.68-.31.68-.69v-13.96c0-.38-.31-.69-.68-.69"/>
        <path class="cls-8" d="M276.37,126.43h-.09c-.38,0-.68.31-.68.69v13.96c0,.38.31.69.68.69h.09c.38,0,.68-.31.68-.69v-13.96c0-.38-.31-.69-.68-.69"/>
        <path class="cls-2" d="M365.67,65.8v6.41c0,.45.05.88.15,1.31.1.42.2.83.29,1.22.49,1.18,1.19,2.13,2.09,2.86.9.73,1.94,1.1,3.12,1.1h19.3c.93,0,1.76-.27,2.5-.8.73-.53,1.37-1.22,1.91-2.07.64-.95.95-2.25.95-3.88,0-1.01-.23-1.97-.7-2.87-.47-.9-1.04-1.63-1.73-2.19-.93-.73-1.98-1.1-3.15-1.1h-24.73ZM401.11,29.48c1.42,0,2.63.56,3.63,1.68,1,1.12,1.5,2.5,1.5,4.13s-.5,3.02-1.5,4.17c-1,1.15-2.21,1.73-3.63,1.73h-30.01c-.93,0-1.77.27-2.53.8-.76.53-1.41,1.22-1.95,2.07-.64,1.07-.95,2.25-.95,3.54v6.4h24.73c1.12,0,2.19.14,3.19.42,1,.28,1.99.65,2.97,1.1,2.93,1.4,5.26,3.6,6.97,6.57.83,1.46,1.49,3.05,1.98,4.76.49,1.71.73,3.5.73,5.35,0,2.47-.42,4.83-1.25,7.08-.59,1.63-1.37,3.13-2.35,4.51-.98,1.38-2.1,2.54-3.37,3.5-2.54,2.08-5.5,3.12-8.88,3.12h-19.08c-2.2,0-4.25-.48-6.16-1.43-1.42-.67-2.73-1.57-3.92-2.7-1.2-1.12-2.21-2.42-3.05-3.88-1.81-2.92-2.71-6.32-2.71-10.2v-24.61c0-2.47.42-4.83,1.25-7.08.59-1.63,1.37-3.12,2.35-4.47.98-1.35,2.1-2.53,3.38-3.54,1.22-.95,2.56-1.7,4-2.23,1.44-.53,2.95-.8,4.51-.8h30.16Z"/>
        <path class="cls-2" d="M349.85,78.76h-27.59c-1.42,0-2.63-.58-3.63-1.73-1-1.15-1.51-2.54-1.51-4.17s.5-3.01,1.51-4.13c1-1.12,2.21-1.68,3.63-1.68h27.59c1.12,0,2.18-.36,3.15-1.1.74-.62,1.32-1.35,1.76-2.19.44-.84.66-1.82.66-2.95,0-1.52-.3-2.78-.88-3.79-.54-.9-1.21-1.6-2.02-2.11-.81-.5-1.7-.76-2.68-.76h-27.59c-1.42,0-2.64-.59-3.67-1.77-.98-1.01-1.47-2.39-1.47-4.13v-24.61c0-1.63.49-3.01,1.47-4.13,1.03-1.18,2.25-1.77,3.67-1.77h38.3c1.42,0,2.63.58,3.63,1.73,1,1.15,1.51,2.54,1.51,4.17s-.5,3.02-1.51,4.17c-1,1.15-2.21,1.73-3.63,1.73h-33.24v12.81h22.53c1.66,0,3.24.28,4.73.84,1.49.56,2.87,1.32,4.14,2.28,1.27,1.01,2.4,2.19,3.38,3.54.98,1.35,1.76,2.84,2.35,4.47.83,2.25,1.25,4.61,1.25,7.08,0,1.91-.25,3.72-.73,5.44-.49,1.72-1.15,3.3-1.98,4.76-.83,1.46-1.85,2.75-3.05,3.88-1.2,1.12-2.51,2.02-3.93,2.7-1.91.96-3.96,1.43-6.16,1.43"/>
      </g>
    </g>
  </g>
</svg>