<?xml version="1.0" encoding="UTF-8"?>
<svg id="Calque_2" data-name="Calque 2" xmlns="http://www.w3.org/2000/svg" xmlns:xlink="http://www.w3.org/1999/xlink" viewBox="0 0 702.64 414.17">
  <defs>
    <style>
      .cls-1, .cls-2, .cls-3 {
        fill: none;
      }

      .cls-4 {
        fill: #d6c7a4;
      }

      .cls-5, .cls-6 {
        fill: #4b5859;
      }

      .cls-2 {
        stroke-width: 3.58px;
      }

      .cls-2, .cls-3 {
        stroke: #fff;
        stroke-miterlimit: 10;
      }

      .cls-3 {
        stroke-width: 1.43px;
      }

      .cls-6 {
        font-family: Futura, Futura;
        font-size: 20px;
      }

      .cls-7 {
        fill: #cad510;
      }

      .cls-8 {
        clip-path: url(#clippath);
      }
    </style>
    <clipPath id="clippath">
      <rect class="cls-1" y="0" width="702.64" height="414.17"/>
    </clipPath>
  </defs>
  <g id="section_groupe" data-name="section groupe">
    <g class="cls-8">
      <path class="cls-7" d="M272.04,163.05l-1.22-52.21c-.02-.78.25-1.54.74-2.13l5.63-6.75c.85-1.02.99-2.46.34-3.62l-3.96-7.13c-.71-1.29-.47-2.89.6-3.9l7.6-7.18c1.07-1.01,1.32-2.63.6-3.92l-10.87-19.36c-.45-.8-.54-1.76-.24-2.62l6.1-17.7h-.01s-30.82-17.09-30.82-17.09c-1.81-1-4.09-.06-4.65,1.93l-4.32,15.11c-.78,2.72-4.44,3.19-5.87.74l-13.18-22.49c-.68-1.17-2.03-1.78-3.36-1.54l-52.61,9.67c-1.67.31-3.29-.74-3.7-2.38l-.69-2.77c-.42-1.69-2.12-2.74-3.83-2.36l-68.07,15.26c-.86.19-1.61.73-2.06,1.49l-16.95,28.36c-.3.5-.46,1.07-.46,1.65v20.31c0,1.88,1.6,3.36,3.47,3.21l67.2-5.34c3.5-.28,4.85,4.45,1.74,6.06l-14.18,7.35c-2.41,1.25-2.28,4.75.22,5.82l13.37,5.72c3.55,1.52,1.91,6.85-1.88,6.12l-29-5.65c-1.32-.26-2.34-1.3-2.56-2.63l-.67-4.01c-.45-2.71-3.88-3.64-5.64-1.54l-7.62,9.11c-1.21,1.45-.92,3.63.64,4.71l3.76,2.6c.91.63,1.43,1.68,1.38,2.79l-.5,11.21c-.13,2.89,3.32,4.47,5.42,2.48l9.12-8.61c1.14-1.08,2.89-1.17,4.14-.24l21.58,16.19c.78.59,1.26,1.5,1.29,2.48l.48,16.29c.05,1.85-1.46,3.36-3.31,3.31l-71.63-2.03c-1.29-.04-2.48.7-3.02,1.88l-1.29,2.8c-.71,1.55-.09,3.38,1.41,4.18l21.29,11.32c.47.25.98.38,1.51.38h7.77c1.25,0,2.39.72,2.91,1.85l20.7,44.29c.56,1.19.33,2.6-.56,3.56l-3.83,4.09c-1.68,1.79-.81,4.73,1.58,5.32l24.32,6.02c1.17.29,2.41-.1,3.2-1.01l13.5-15.5c1.15-1.32,3.15-1.48,4.5-.35l10.38,8.72c1.49,1.25,3.74.9,4.79-.74l3.46-5.45c1.26-1.98,4.15-1.99,5.42-.02l16.96,26.35c.4.63,1.01,1.09,1.72,1.32l47.15,15.23c1.57.51,3.26-.25,3.93-1.76l4.78-10.76c.34-.77.97-1.37,1.75-1.68l18.11-7.19c1.17-.46,1.96-1.57,2.03-2.82l1.02-19.68c.07-1.38-.75-2.66-2.04-3.16l-35.22-13.81c-1.04-.41-1.79-1.33-1.99-2.42l-6.02-33.36c-.3-1.68.75-3.3,2.41-3.7l35.79-8.66h0Z"/>
      <path class="cls-3" d="M272.04,163.05l-1.22-52.21c-.02-.78.25-1.54.74-2.13l5.63-6.75c.85-1.02.99-2.46.34-3.62l-3.96-7.13c-.71-1.29-.47-2.89.6-3.9l7.6-7.18c1.07-1.01,1.32-2.63.6-3.92l-10.87-19.36c-.45-.8-.54-1.76-.24-2.62l6.1-17.7h-.01s-30.82-17.09-30.82-17.09c-1.81-1-4.09-.06-4.65,1.93l-4.32,15.11c-.78,2.72-4.44,3.19-5.87.74l-13.18-22.49c-.68-1.17-2.03-1.78-3.36-1.54l-52.61,9.67c-1.67.31-3.29-.74-3.7-2.38l-.69-2.77c-.42-1.69-2.12-2.74-3.83-2.36l-68.07,15.26c-.86.19-1.61.73-2.06,1.49l-16.95,28.36c-.3.5-.46,1.07-.46,1.65v20.31c0,1.88,1.6,3.36,3.47,3.21l67.2-5.34c3.5-.28,4.85,4.45,1.74,6.06l-14.18,7.35c-2.41,1.25-2.28,4.75.22,5.82l13.37,5.72c3.55,1.52,1.91,6.85-1.88,6.12l-29-5.65c-1.32-.26-2.34-1.3-2.56-2.63l-.67-4.01c-.45-2.71-3.88-3.64-5.64-1.54l-7.62,9.11c-1.21,1.45-.92,3.63.64,4.71l3.76,2.6c.91.63,1.43,1.68,1.38,2.79l-.5,11.21c-.13,2.89,3.32,4.47,5.42,2.48l9.12-8.61c1.14-1.08,2.89-1.17,4.14-.24l21.58,16.19c.78.59,1.26,1.5,1.29,2.48l.48,16.29c.05,1.85-1.46,3.36-3.31,3.31l-71.63-2.03c-1.29-.04-2.48.7-3.02,1.88l-1.29,2.8c-.71,1.55-.09,3.38,1.41,4.18l21.29,11.32c.47.25.98.38,1.51.38h7.77c1.25,0,2.39.72,2.91,1.85l20.7,44.29c.56,1.19.33,2.6-.56,3.56l-3.83,4.09c-1.68,1.79-.81,4.73,1.58,5.32l24.32,6.02c1.17.29,2.41-.1,3.2-1.01l13.5-15.5c1.15-1.32,3.15-1.48,4.5-.35l10.38,8.72c1.49,1.25,3.74.9,4.79-.74l3.46-5.45c1.26-1.98,4.15-1.99,5.42-.02l16.96,26.35c.4.63,1.01,1.09,1.72,1.32l47.15,15.23c1.57.51,3.26-.25,3.93-1.76l4.78-10.76c.34-.77.97-1.37,1.75-1.68l18.11-7.19c1.17-.46,1.96-1.57,2.03-2.82l1.02-19.68c.07-1.38-.75-2.66-2.04-3.16l-35.22-13.81c-1.04-.41-1.79-1.33-1.99-2.42l-6.02-33.36c-.3-1.68.75-3.3,2.41-3.7l35.79-8.66h0Z"/>
      <path class="cls-4" d="M281.89,79.88l-7.61,7.19c-1.07,1.01-1.31,2.61-.6,3.89l3.97,7.14c.64,1.16.51,2.6-.34,3.61l-5.63,6.76c-.5.6-.76,1.35-.74,2.13l1.18,50.48c.03,1.08.59,2.08,1.51,2.65l11.3,7.04c.59.36,1.04.91,1.29,1.55l1.25,3.17c.55,1.4,2,2.23,3.49,2l10.99-1.75c.79-.12,1.59.05,2.25.48l16.61,10.81c1.09.71,2.5.69,3.57-.05l15.42-10.61c.55-.38,1.21-.58,1.88-.56l9.96.19c.62.01,1.23.21,1.74.56l46.63,31.75c1.08.74,2.5.74,3.59.02l4.71-3.14c1.46-.97,3.43-.59,4.42.85l8.56,12.42c.91,1.32,2.66,1.77,4.1,1.04l11.06-5.62c.77-.39,1.34-1.07,1.61-1.89l2.24-7.04c.39-1.21,1.45-2.08,2.71-2.22l12.78-1.38c1.46-.16,2.84.69,3.35,2.07l4.85,12.98c.5,1.34,1.82,2.18,3.24,2.08l15.81-1.16c.95-.07,1.82-.55,2.37-1.33l16.71-23.22c.28-.4.65-.72,1.08-.95,3.58-1.93,20.75-11.16,21.38-11.37.52-.17,11.31,2.77,16.78,4.28,1.73.48,3.5-.55,3.96-2.28l10.7-40.89c.12-.47.14-.96.05-1.43l-2.77-14.15.02.26-10.81-32.43c-.44-1.33-1.71-2.22-3.11-2.19l-11.14.23c-.95.02-1.84.46-2.43,1.2l-6.39,7.94c-1.43,1.77-4.19,1.54-5.3-.45l-14.04-25.12c-.82-1.46-2.62-2.05-4.14-1.35l-67.27,30.89c-1.58.72-3.44.06-4.21-1.49L375.03,4.01c-.62-1.24-1.96-1.95-3.33-1.75l-50.98,7.33c-.7.1-1.42-.03-2.03-.38l-14.32-8.07c-1.15-.65-2.59-.52-3.61.31l-8.96,7.35c-.94.77-1.36,2-1.1,3.18l2.52,11.24c.29,1.29-.24,2.63-1.34,3.37l-13.52,9.1c-.58.39-1.02.96-1.24,1.62l-5.75,16.69c-.3.87-.21,1.82.24,2.62l10.88,19.36c.72,1.28.48,2.89-.6,3.91"/>
      <path class="cls-3" d="M281.89,79.88l-7.61,7.19c-1.07,1.01-1.31,2.61-.6,3.89l3.97,7.14c.64,1.16.51,2.6-.34,3.61l-5.63,6.76c-.5.6-.76,1.35-.74,2.13l1.18,50.48c.03,1.08.59,2.08,1.51,2.65l11.3,7.04c.59.36,1.04.91,1.29,1.55l1.25,3.17c.55,1.4,2,2.23,3.49,2l10.99-1.75c.79-.12,1.59.05,2.25.48l16.61,10.81c1.09.71,2.5.69,3.57-.05l15.42-10.61c.55-.38,1.21-.58,1.88-.56l9.96.19c.62.01,1.23.21,1.74.56l46.63,31.75c1.08.74,2.5.74,3.59.02l4.71-3.14c1.46-.97,3.43-.59,4.42.85l8.56,12.42c.91,1.32,2.66,1.77,4.1,1.04l11.06-5.62c.77-.39,1.34-1.07,1.61-1.89l2.24-7.04c.39-1.21,1.45-2.08,2.71-2.22l12.78-1.38c1.46-.16,2.84.69,3.35,2.07l4.85,12.98c.5,1.34,1.82,2.18,3.24,2.08l15.81-1.16c.95-.07,1.82-.55,2.37-1.33l16.71-23.22c.28-.4.65-.72,1.08-.95,3.58-1.93,20.75-11.16,21.38-11.37.52-.17,11.31,2.77,16.78,4.28,1.73.48,3.5-.55,3.96-2.28l10.7-40.89c.12-.47.14-.96.05-1.43l-2.77-14.15.02.26-10.81-32.43c-.44-1.33-1.71-2.22-3.11-2.19l-11.14.23c-.95.02-1.84.46-2.43,1.2l-6.39,7.94c-1.43,1.77-4.19,1.54-5.3-.45l-14.04-25.12c-.82-1.46-2.62-2.05-4.14-1.35l-67.27,30.89c-1.58.72-3.44.06-4.21-1.49L375.03,4.01c-.62-1.24-1.96-1.95-3.33-1.75l-50.98,7.33c-.7.1-1.42-.03-2.03-.38l-14.32-8.07c-1.15-.65-2.59-.52-3.61.31l-8.96,7.35c-.94.77-1.36,2-1.1,3.18l2.52,11.24c.29,1.29-.24,2.63-1.34,3.37l-13.52,9.1c-.58.39-1.02.96-1.24,1.62l-5.75,16.69c-.3.87-.21,1.82.24,2.62l10.88,19.36c.72,1.28.48,2.89-.6,3.91Z"/>
      <path class="cls-4" d="M484.66,217.46l-.03.03-9.69,33.39c-.48,1.64.41,3.37,2.02,3.94l21.43,7.6c.93.33,1.65,1.06,1.97,1.99l4.23,12.3c.27.79.23,1.65-.12,2.4l-5.01,10.86c-.79,1.72.05,3.75,1.83,4.39l3.27,1.18c2.14.77,2.83,3.45,1.33,5.16l-12.55,14.37c-.34.39-.58.85-.7,1.35l-3.3,13.41c-.17.69-.11,1.41.17,2.06l7.13,16.44c.62,1.43,2.16,2.21,3.68,1.86l37.15-8.47c.82-.19,1.69-.05,2.4.4l7.17,4.4c.88.54,1.95.62,2.9.24l62.34-25.35c.91-.37,1.95-.31,2.81.18l26.63,15.06c1.6.91,3.64.29,4.47-1.35l21.99-43.42c.52-1.03,1.56-1.71,2.72-1.77l14.43-.71c1.59-.08,2.88-1.3,3.05-2.88l13.52-126.14c.15-1.39-.61-2.72-1.89-3.29l-27.73-12.48c-.87-.39-1.87-.38-2.73.04l-24.09,11.65c-1.64.79-3.6.08-4.35-1.58l-20.62-45.76c-.5-1.12-1.6-1.86-2.83-1.9l-38.87-1.36c-1.99-.07-3.44-1.91-3.05-3.86l3.05-15.24c.44-2.18-1.41-4.14-3.61-3.83l-21.57,3.01c-1.68.24-2.89,1.73-2.77,3.42l2.57,36.84c0,.13.03.26.05.4l2.73,13.95c.09.48.08.97-.05,1.44l-10.7,40.87c-.46,1.74-2.24,2.78-3.98,2.3-5.48-1.52-16.24-4.45-16.77-4.28-.63.21-17.78,9.43-21.37,11.36-.43.23-.8.56-1.09.96l-17.58,24.43Z"/>
      <path class="cls-3" d="M484.66,217.46l-.03.03-9.69,33.39c-.48,1.64.41,3.37,2.02,3.94l21.43,7.6c.93.33,1.65,1.06,1.97,1.99l4.23,12.3c.27.79.23,1.65-.12,2.4l-5.01,10.86c-.79,1.72.05,3.75,1.83,4.39l3.27,1.18c2.14.77,2.83,3.45,1.33,5.16l-12.55,14.37c-.34.39-.58.85-.7,1.35l-3.3,13.41c-.17.69-.11,1.41.17,2.06l7.13,16.44c.62,1.43,2.16,2.21,3.68,1.86l37.15-8.47c.82-.19,1.69-.05,2.4.4l7.17,4.4c.88.54,1.95.62,2.9.24l62.34-25.35c.91-.37,1.95-.31,2.81.18l26.63,15.06c1.6.91,3.64.29,4.47-1.35l21.99-43.42c.52-1.03,1.56-1.71,2.72-1.77l14.43-.71c1.59-.08,2.88-1.3,3.05-2.88l13.52-126.14c.15-1.39-.61-2.72-1.89-3.29l-27.73-12.48c-.87-.39-1.87-.38-2.73.04l-24.09,11.65c-1.64.79-3.6.08-4.35-1.58l-20.62-45.76c-.5-1.12-1.6-1.86-2.83-1.9l-38.87-1.36c-1.99-.07-3.44-1.91-3.05-3.86l3.05-15.24c.44-2.18-1.41-4.14-3.61-3.83l-21.57,3.01c-1.68.24-2.89,1.73-2.77,3.42l2.57,36.84c0,.13.03.26.05.4l2.73,13.95c.09.48.08.97-.05,1.44l-10.7,40.87c-.46,1.74-2.24,2.78-3.98,2.3-5.48-1.52-16.24-4.45-16.77-4.28-.63.21-17.78,9.43-21.37,11.36-.43.23-.8.56-1.09.96l-17.58,24.43Z"/>
      <path class="cls-7" d="M493.23,315.09l12.57-14.39c1.48-1.7.8-4.36-1.32-5.13l-3.31-1.2c-1.77-.64-2.61-2.65-1.82-4.36l5.03-10.89c.35-.75.39-1.61.12-2.39l-4.23-12.31c-.32-.92-1.04-1.65-1.96-1.98l-21.46-7.61c-1.6-.57-2.48-2.29-2.01-3.92l9.7-33.41.02-.03-17.31,1.27c-1.42.1-2.74-.74-3.24-2.08l-4.85-12.98c-.51-1.37-1.89-2.23-3.35-2.07l-12.78,1.38c-1.26.14-2.33,1.01-2.71,2.22l-2.24,7.04c-.26.82-.84,1.5-1.6,1.89l-11.06,5.62c-1.43.73-3.18.28-4.1-1.04l-8.56-12.43c-.99-1.44-2.96-1.82-4.42-.85l-4.71,3.14c-1.09.72-2.51.72-3.59-.02l-46.63-31.75c-.52-.35-1.12-.54-1.74-.56l-9.96-.2c-.67-.01-1.33.18-1.88.56l-15.42,10.61c-1.07.74-2.48.75-3.57.05l-16.61-10.81c-.67-.43-1.47-.6-2.25-.48l-11,1.75c-1.49.24-2.94-.59-3.49-2l-1.25-3.17c-.25-.64-.7-1.19-1.29-1.55l-12.77-7.96h0s-35.8,8.66-35.8,8.66c-1.65.4-2.71,2.02-2.4,3.69l6.02,33.37c.2,1.1.95,2.01,1.99,2.42l35.23,13.81c1.29.5,2.11,1.77,2.03,3.15l-1.02,19.69c-.07,1.25-.85,2.35-2.02,2.82l-18.11,7.19c-.78.31-1.41.91-1.75,1.68l-5.37,12.09c-.37.84-.37,1.79,0,2.62l7.74,17.18c.71,1.58,2.55,2.31,4.15,1.65l14.99-6.21c3.16-1.31,5.9,2.57,3.62,5.11l-1.68,1.87c-1.36,1.51-.99,3.88.76,4.91l14.12,8.29c1.28.75,2.9.53,3.93-.54l12.18-12.62c1.56-1.62,4.27-1.17,5.22.88l2.62,5.64c.85,1.84-.19,4-2.16,4.47l-10.83,2.61c-1.86.45-2.91,2.41-2.26,4.21l6.6,18.28c.2.55.24,1.15.13,1.73l-5.61,27.77c-.4,1.99,1.12,3.84,3.15,3.84h4.79c1.87,0,3.35-1.59,3.2-3.46l-1.56-19.85c-.17-2.2,1.87-3.91,4.01-3.36l18.83,4.92c2.11.55,4.15-1.11,4.01-3.29-.44-7.3-1.09-20.94.29-19.33,1.45,1.69,6.85,12.4,9.2,17.13.66,1.32,2.12,2.02,3.56,1.7l24.54-5.39c.91-.2,1.87,0,2.61.57l6.24,4.68c1.42,1.07,1.71,3.08.64,4.5l-9.16,12.13c-.84,1.11-2.29,1.55-3.6,1.1l-16.95-5.78c-2.72-.93-5.19,1.91-3.91,4.47l5.92,11.85c.54,1.09,1.65,1.77,2.87,1.77h49.62c.38,0,.75.07,1.11.2l7.2,2.64c3.37,1.24,2.48,6.22-1.11,6.22-1.99,0-3.5,1.8-3.16,3.76l1.38,7.95c.27,1.54,1.6,2.66,3.16,2.66h20.45c.97,0,1.88-.44,2.49-1.19l6.84-8.44c.92-1.14,2.5-1.51,3.83-.89l14.93,6.87c1.44.66,3.14.18,4.01-1.14l22.69-34.08c.6-.91.71-2.06.27-3.05l-7.5-17.31c-.28-.64-.34-1.36-.17-2.04l3.3-13.42c.12-.5.36-.96.7-1.34"/>
      <path class="cls-3" d="M493.23,315.09l12.57-14.39c1.48-1.7.8-4.36-1.32-5.13l-3.31-1.2c-1.77-.64-2.61-2.65-1.82-4.36l5.03-10.89c.35-.75.39-1.61.12-2.39l-4.23-12.31c-.32-.92-1.04-1.65-1.96-1.98l-21.46-7.61c-1.6-.57-2.48-2.29-2.01-3.92l9.7-33.41.02-.03-17.31,1.27c-1.42.1-2.74-.74-3.24-2.08l-4.85-12.98c-.51-1.37-1.89-2.23-3.35-2.07l-12.78,1.38c-1.26.14-2.33,1.01-2.71,2.22l-2.24,7.04c-.26.82-.84,1.5-1.6,1.89l-11.06,5.62c-1.43.73-3.18.28-4.1-1.04l-8.56-12.43c-.99-1.44-2.96-1.82-4.42-.85l-4.71,3.14c-1.09.72-2.51.72-3.59-.02l-46.63-31.75c-.52-.35-1.12-.54-1.74-.56l-9.96-.2c-.67-.01-1.33.18-1.88.56l-15.42,10.61c-1.07.74-2.48.75-3.57.05l-16.61-10.81c-.67-.43-1.47-.6-2.25-.48l-11,1.75c-1.49.24-2.94-.59-3.49-2l-1.25-3.17c-.25-.64-.7-1.19-1.29-1.55l-12.77-7.96h0s-35.8,8.66-35.8,8.66c-1.65.4-2.71,2.02-2.4,3.69l6.02,33.37c.2,1.1.95,2.01,1.99,2.42l35.23,13.81c1.29.5,2.11,1.77,2.03,3.15l-1.02,19.69c-.07,1.25-.85,2.35-2.02,2.82l-18.11,7.19c-.78.31-1.41.91-1.75,1.68l-5.37,12.09c-.37.84-.37,1.79,0,2.62l7.74,17.18c.71,1.58,2.55,2.31,4.15,1.65l14.99-6.21c3.16-1.31,5.9,2.57,3.62,5.11l-1.68,1.87c-1.36,1.51-.99,3.88.76,4.91l14.12,8.29c1.28.75,2.9.53,3.93-.54l12.18-12.62c1.56-1.62,4.27-1.17,5.22.88l2.62,5.64c.85,1.84-.19,4-2.16,4.47l-10.83,2.61c-1.86.45-2.91,2.41-2.26,4.21l6.6,18.28c.2.55.24,1.15.13,1.73l-5.61,27.77c-.4,1.99,1.12,3.84,3.15,3.84h4.79c1.87,0,3.35-1.59,3.2-3.46l-1.56-19.85c-.17-2.2,1.87-3.91,4.01-3.36l18.83,4.92c2.11.55,4.15-1.11,4.01-3.29-.44-7.3-1.09-20.94.29-19.33,1.45,1.69,6.85,12.4,9.2,17.13.66,1.32,2.12,2.02,3.56,1.7l24.54-5.39c.91-.2,1.87,0,2.61.57l6.24,4.68c1.42,1.07,1.71,3.08.64,4.5l-9.16,12.13c-.84,1.11-2.29,1.55-3.6,1.1l-16.95-5.78c-2.72-.93-5.19,1.91-3.91,4.47l5.92,11.85c.54,1.09,1.65,1.77,2.87,1.77h49.62c.38,0,.75.07,1.11.2l7.2,2.64c3.37,1.24,2.48,6.22-1.11,6.22-1.99,0-3.5,1.8-3.16,3.76l1.38,7.95c.27,1.54,1.6,2.66,3.16,2.66h20.45c.97,0,1.88-.44,2.49-1.19l6.84-8.44c.92-1.14,2.5-1.51,3.83-.89l14.93,6.87c1.44.66,3.14.18,4.01-1.14l22.69-34.08c.6-.91.71-2.06.27-3.05l-7.5-17.31c-.28-.64-.34-1.36-.17-2.04l3.3-13.42c.12-.5.36-.96.7-1.34Z"/>
      <path class="cls-5" d="M167.64,76.31c0,4.7-3.81,8.52-8.52,8.52s-8.52-3.81-8.52-8.52,3.81-8.52,8.52-8.52,8.52,3.81,8.52,8.52"/>
      <path class="cls-2" d="M167.64,76.31c0,4.7-3.81,8.52-8.52,8.52s-8.52-3.81-8.52-8.52,3.81-8.52,8.52-8.52,8.52,3.81,8.52,8.52Z"/>
      <path class="cls-5" d="M345.92,261.54c0,4.7-3.81,8.52-8.52,8.52s-8.52-3.81-8.52-8.52,3.81-8.52,8.52-8.52,8.52,3.81,8.52,8.52"/>
      <path class="cls-2" d="M345.92,261.54c0,4.7-3.81,8.52-8.52,8.52s-8.52-3.81-8.52-8.52,3.81-8.52,8.52-8.52,8.52,3.81,8.52,8.52Z"/>
    </g>
    <text class="cls-6" transform="translate(155.98 114.27)"><tspan x="0" y="0">Landerneau</tspan></text>
    <text class="cls-6" transform="translate(333.92 296.79)"><tspan x="0" y="0">Camors</tspan></text>
  </g>
</svg>