<?xml version="1.0" encoding="UTF-8"?>
<svg id="Calque_2" data-name="Calque 2" xmlns="http://www.w3.org/2000/svg" viewBox="0 0 45 45">
  <defs>
    <style>
      .cls-1 {
        fill: #4b5859;
      }
    </style>
  </defs>
  <g id="section_home" data-name="section home">
    <path class="cls-1" d="M33.67,0H11.33C5.07,0,0,5.07,0,11.33v22.34c0,6.26,5.07,11.33,11.33,11.33h22.34c6.26,0,11.33-5.07,11.33-11.33V11.33c0-6.26-5.07-11.33-11.33-11.33ZM30.17,12.94h-2.26c-2.23,0-2.92,1.38-2.92,2.8v3.37h4.98l-.8,5.19h-4.18v12.54h-5.61v-12.54h-4.56v-5.19h4.56v-3.95c0-4.5,2.68-6.98,6.78-6.98,1.96,0,4.02.35,4.02.35v4.42Z"/>
  </g>
</svg>