<?xml version="1.0" encoding="UTF-8"?>
<svg id="Calque_2" data-name="Calque 2" xmlns="http://www.w3.org/2000/svg" viewBox="0 0 283.48 144.42">
  <defs>
    <style>
      .cls-1 {
        fill: #fff;
      }

      .cls-2 {
        fill: #4e5859;
      }

      .cls-3 {
        fill: #cad500;
      }
    </style>
  </defs>
  <g id="section_home" data-name="section home">
    <g>
      <rect class="cls-2" x="0" width="283.48" height="105.24"/>
      <g>
        <rect class="cls-1" x=".98" y="104.72" width="281.53" height="38.72"/>
        <path class="cls-2" d="M281.53,105.7v36.76H1.95v-36.76h279.57M283.48,103.74H0v40.67h283.48v-40.67h0Z"/>
      </g>
      <path class="cls-1" d="M152.64,11.89c1.81,0,3.55.27,5.22.81,1.67.54,3.21,1.29,4.63,2.25,1.47,1.02,2.77,2.21,3.91,3.57,1.13,1.36,2.04,2.86,2.72,4.5.96,2.26,1.44,4.64,1.44,7.13v24.79c0,3.91-1.05,7.33-3.14,10.27-.96,1.47-2.14,2.77-3.52,3.91-1.39,1.13-2.9,2.04-4.54,2.72-2.21.96-4.58,1.44-7.13,1.44h-23.77c-3.91,0-7.33-1.05-10.27-3.14-1.47-.96-2.77-2.14-3.91-3.52-1.13-1.39-2.04-2.9-2.72-4.54-.96-2.26-1.44-4.64-1.44-7.13,0-1.87.28-3.66.85-5.39.57-1.73,1.33-3.32,2.29-4.8,1.98-3,4.67-5.21,8.07-6.62,1.13-.45,2.28-.82,3.44-1.1,1.16-.28,2.39-.42,3.69-.42h30.31v-6.45c0-1.24-.37-2.43-1.1-3.57-.62-.85-1.37-1.54-2.25-2.08-.88-.54-1.85-.81-2.93-.81h-34.73c-1.64,0-3.04-.58-4.2-1.74-1.16-1.16-1.74-2.56-1.74-4.2s.58-3.03,1.74-4.16c1.16-1.13,2.56-1.7,4.2-1.7h34.9ZM128.44,48.48c-1.36,0-2.58.37-3.65,1.1-.79.57-1.46,1.3-2,2.21-.54.91-.81,1.87-.81,2.89,0,1.64.37,2.94,1.1,3.91.62.85,1.36,1.54,2.21,2.08.85.54,1.81.81,2.89.81h24.03c1.36,0,2.56-.37,3.61-1.1,1.05-.73,1.8-1.56,2.25-2.46.45-.9.68-1.9.68-2.97v-6.45h-30.31Z"/>
      <path class="cls-1" d="M220.15,73.36c-2.49,0-4.81-.48-6.96-1.44-2.15-.96-4.05-2.28-5.69-3.95-1.64-1.67-2.93-3.61-3.86-5.82s-1.4-4.56-1.4-7.05v-24.79c0-3.85,1.02-7.27,3.06-10.27,1.75-2.55,3.98-4.53,6.67-5.94,2.69-1.41,5.56-2.12,8.62-2.12h23.18c2.55,0,4.94.48,7.17,1.44,2.24.96,4.19,2.26,5.86,3.91,1.67,1.64,2.97,3.58,3.91,5.82.93,2.24,1.4,4.63,1.4,7.17,0,2.38-.47,4.67-1.4,6.88-.93,2.21-2.21,4.16-3.82,5.86-1.61,1.7-3.55,3.06-5.82,4.08-2.26,1.02-4.7,1.53-7.3,1.53h-29.72v6.45c0,1.3.37,2.49,1.1,3.57.62.85,1.37,1.54,2.25,2.08.88.54,1.85.81,2.93.81h35.83c1.64,0,3.04.58,4.2,1.74,1.16,1.16,1.74,2.56,1.74,4.2s-.58,3.03-1.74,4.16c-1.16,1.13-2.56,1.7-4.2,1.7h-36ZM243.75,36.76c.96,0,1.84-.18,2.63-.55.79-.37,1.47-.85,2.04-1.44.57-.59,1-1.26,1.32-2,.31-.73.47-1.47.47-2.21,0-1.7-.37-3-1.1-3.91-.62-.85-1.36-1.54-2.21-2.08-.85-.54-1.81-.81-2.89-.81h-23.43c-1.87,0-3.43.65-4.67,1.95-1.25,1.3-1.87,2.83-1.87,4.58v6.45h29.72Z"/>
      <path class="cls-1" d="M51.6,73.36c-4.25,0-8.24-.81-11.97-2.42-3.74-1.61-6.99-3.81-9.76-6.58-2.77-2.77-4.97-6.03-6.58-9.76-1.61-3.74-2.42-7.73-2.42-11.97s.81-8.24,2.42-11.97c1.61-3.74,3.81-6.99,6.58-9.76,2.77-2.77,6.03-4.97,9.76-6.58,3.74-1.61,7.73-2.42,11.97-2.42h20.97c1.64,0,3.03.58,4.16,1.74,1.13,1.16,1.7,2.56,1.7,4.2s-.57,3.04-1.7,4.2c-1.13,1.16-2.52,1.74-4.16,1.74h-20.97c-2.6,0-5.05.5-7.34,1.49-2.29.99-4.29,2.33-5.99,4.03-1.7,1.7-3.04,3.69-4.03,5.99-.99,2.29-1.49,4.74-1.49,7.34s.49,5.05,1.49,7.34c.99,2.29,2.33,4.29,4.03,5.99,1.7,1.7,3.69,3.04,5.99,4.03,2.29.99,4.74,1.49,7.34,1.49h15.03v-18.85c0-1.64.58-3.04,1.74-4.2,1.16-1.16,2.56-1.74,4.2-1.74s3.03.58,4.16,1.74c1.13,1.16,1.7,2.56,1.7,4.2v24.79c0,1.64-.57,3.03-1.7,4.16-1.13,1.19-2.52,1.78-4.16,1.78h-20.97Z"/>
      <circle class="cls-1" cx="186.4" cy="67.42" r="5.93"/>
      <circle class="cls-1" cx="95.49" cy="67.42" r="5.93"/>
      <g>
        <g>
          <path class="cls-2" d="M22.78,119.68h5.14v1.09h-3.95v2.68h3.83v1.09h-3.83v3.62h3.95v1.09h-5.14v-9.57ZM26.65,116.86l-2.08,1.89-.56-.34,1.59-2.11,1.05.56Z"/>
          <path class="cls-2" d="M36.53,128.16h2.91v1.09h-4.1v-9.57h1.19v8.48Z"/>
          <path class="cls-2" d="M46.16,119.68h5.14v1.09h-3.95v2.68h3.83v1.09h-3.83v3.62h3.95v1.09h-5.14v-9.57Z"/>
          <path class="cls-2" d="M65.68,121.5c-.69-.61-1.62-.94-2.53-.94-2.15,0-3.78,1.79-3.78,3.91s1.62,3.88,3.76,3.88c.94,0,1.84-.36,2.55-.99v1.41c-.74.43-1.68.67-2.51.67-2.73,0-4.99-2.17-4.99-4.94s2.27-5.04,5.09-5.04c.84,0,1.69.2,2.41.65v1.38Z"/>
          <path class="cls-2" d="M75.62,129.25h-1.19v-8.48h-2.27v-1.09h5.74v1.09h-2.27v8.48Z"/>
          <path class="cls-2" d="M90.73,129.25h-1.45l-2.82-4.05h-.5v4.05h-1.19v-9.57h1.45c.85,0,1.76.01,2.53.44.8.47,1.26,1.37,1.26,2.29,0,1.37-.91,2.51-2.3,2.68l3.02,4.16ZM85.97,124.21h.38c1.22,0,2.54-.23,2.54-1.75s-1.42-1.71-2.6-1.71h-.32v3.47Z"/>
          <path class="cls-2" d="M98.76,129.25h-1.19v-9.57h1.19v9.57Z"/>
          <path class="cls-2" d="M113.46,121.5c-.69-.61-1.62-.94-2.53-.94-2.15,0-3.78,1.79-3.78,3.91s1.62,3.88,3.76,3.88c.94,0,1.84-.36,2.55-.99v1.41c-.74.43-1.68.67-2.51.67-2.73,0-4.99-2.17-4.99-4.94s2.27-5.04,5.09-5.04c.84,0,1.69.2,2.41.65v1.38Z"/>
          <path class="cls-2" d="M121.98,129.25h-1.19v-9.57h1.19v9.57Z"/>
          <path class="cls-2" d="M132.29,129.25h-1.19v-8.48h-2.27v-1.09h5.74v1.09h-2.27v8.48Z"/>
          <path class="cls-2" d="M141.44,119.68h5.14v1.09h-3.95v2.68h3.83v1.09h-3.83v3.62h3.95v1.09h-5.14v-9.57ZM145.31,116.86l-2.08,1.89-.56-.34,1.59-2.11,1.05.56Z"/>
          <path class="cls-2" d="M174.39,120.77v2.69h3.33v1.09h-3.33v4.7h-1.19v-9.57h4.63v1.09h-3.44Z"/>
          <path class="cls-2" d="M186.53,126.85l-1.09,2.4h-1.28l4.57-9.98,4.57,9.98h-1.28l-1.09-2.4h-4.39ZM188.72,121.89l-1.7,3.87h3.4l-1.7-3.87Z"/>
          <path class="cls-2" d="M207,121.5c-.69-.61-1.62-.94-2.53-.94-2.15,0-3.78,1.79-3.78,3.91s1.62,3.88,3.76,3.88c.94,0,1.84-.36,2.55-.99v1.41c-.74.43-1.68.67-2.51.67-2.73,0-4.99-2.17-4.99-4.94s2.27-5.04,5.09-5.04c.84,0,1.69.2,2.41.65v1.38Z"/>
          <path class="cls-2" d="M215.52,129.25h-1.19v-9.57h1.19v9.57Z"/>
          <path class="cls-2" d="M224.44,128.16h2.91v1.09h-4.1v-9.57h1.19v8.48Z"/>
          <path class="cls-2" d="M235.23,129.25h-1.19v-9.57h1.19v9.57Z"/>
          <path class="cls-2" d="M245.54,129.25h-1.19v-8.48h-2.27v-1.09h5.74v1.09h-2.27v8.48Z"/>
          <path class="cls-2" d="M253.7,119.68h1.37l2.35,4.09,2.35-4.09h1.37l-3.12,5.41v4.16h-1.19v-4.16l-3.12-5.41Z"/>
        </g>
        <rect class="cls-3" x="160.41" y="117.6" width="1.41" height="12.96" rx=".58" ry=".58"/>
      </g>
      <g>
        <path class="cls-3" d="M26.2,95.46c-.66,0-1.29-.13-1.87-.38-.58-.25-1.09-.6-1.53-1.03-.43-.43-.78-.94-1.03-1.53-.25-.59-.38-1.21-.38-1.87s.13-1.29.38-1.87.6-1.09,1.03-1.53c.43-.43.94-.78,1.53-1.03.58-.25,1.21-.38,1.87-.38h3.28c.26,0,.47.09.65.27.18.18.27.4.27.66s-.09.48-.27.66c-.18.18-.39.27-.65.27h-3.28c-.41,0-.79.08-1.15.23-.36.16-.67.37-.94.63-.27.27-.48.58-.63.94-.16.36-.23.74-.23,1.15s.08.79.23,1.15c.16.36.37.67.63.94.27.27.58.48.94.63.36.16.74.23,1.15.23h2.35v-2.17c0-.26.09-.48.27-.66.18-.18.4-.27.66-.27s.47.09.65.27c.18.18.27.4.27.66v3.1c0,.26-.09.47-.27.65-.18.19-.39.28-.65.28h-3.28Z"/>
        <path class="cls-3" d="M34.18,86.32c.23-.15.48-.27.74-.36.27-.09.55-.13.85-.13h4.56c.26,0,.48.09.66.27.18.18.27.4.27.66s-.09.48-.27.66c-.18.18-.4.27-.66.27h-4.56c-.16,0-.32.04-.47.11-.16.08-.28.18-.37.33-.12.19-.17.38-.17.57v5.82c0,.26-.09.48-.27.66-.18.18-.4.27-.66.27s-.47-.09-.65-.27c-.18-.18-.27-.4-.27-.66v-5.82c0-.39.08-.76.23-1.12.22-.53.57-.95,1.04-1.26Z"/>
        <path class="cls-3" d="M44.98,94.69c-.79-.53-1.37-1.24-1.76-2.13-.12-.28-.22-.58-.29-.9-.07-.31-.1-.64-.1-.98,0-.51.07-.99.22-1.44.15-.46.35-.88.6-1.26.27-.39.58-.73.94-1.03.36-.3.76-.54,1.19-.72.29-.12.6-.22.91-.29.31-.07.64-.1.98-.1.51,0,.98.07,1.44.22.45.15.87.35,1.26.62.39.26.73.57,1.03.92.3.36.53.76.71,1.19.26.59.39,1.22.39,1.89,0,.51-.07.98-.22,1.44-.15.45-.35.87-.6,1.26-.26.39-.57.73-.93,1.03-.36.3-.76.53-1.2.71-.59.26-1.22.39-1.88.39-.49,0-.96-.07-1.42-.21-.46-.14-.88-.35-1.28-.61ZM46.01,88.21c-.5.33-.86.77-1.09,1.32-.15.35-.23.74-.23,1.16,0,.31.04.6.13.88.09.28.21.54.37.78.16.23.35.44.58.62.23.19.47.34.74.45.35.15.74.23,1.16.23.31,0,.61-.04.88-.13.28-.09.54-.21.78-.37.23-.16.44-.35.62-.57.19-.22.34-.47.45-.73.15-.37.23-.76.23-1.16,0-.31-.04-.61-.13-.89-.09-.28-.21-.54-.37-.77-.34-.5-.77-.86-1.3-1.09-.37-.15-.76-.23-1.16-.23-.31,0-.61.04-.89.13-.28.09-.54.21-.77.37Z"/>
        <path class="cls-3" d="M57.02,86.75v3.88c0,.31.04.6.13.88.09.28.21.54.37.78.33.49.76.85,1.3,1.08.18.07.36.13.56.17.2.04.39.07.6.07h2.98v-6.86c0-.26.09-.48.27-.66.18-.18.4-.27.66-.27s.47.09.65.27c.18.18.27.4.27.66v7.78c0,.27-.09.49-.27.66-.18.18-.39.27-.65.27h-3.91c-.51,0-.98-.07-1.44-.22-.45-.15-.87-.35-1.26-.6-.39-.26-.73-.57-1.03-.92-.3-.36-.54-.76-.72-1.2-.25-.59-.37-1.22-.37-1.87v-3.88c0-.26.09-.48.27-.66.18-.18.4-.27.66-.27s.48.09.66.27c.18.18.27.4.27.66Z"/>
        <path class="cls-3" d="M67.67,94.53v-7.75c0-.26.09-.47.27-.65.19-.19.41-.28.66-.28h4.57c.36,0,.71.05,1.04.16.33.11.63.25.9.44.57.38.99.89,1.26,1.53.18.43.27.87.27,1.34,0,.36-.05.71-.15,1.04-.1.33-.25.63-.43.9-.38.57-.89.99-1.53,1.26-.43.18-.88.27-1.36.27h-3.64v1.74c0,.26-.09.48-.27.66-.18.18-.4.27-.66.27s-.48-.09-.66-.27c-.18-.18-.27-.4-.27-.66ZM73.18,90.92c.35,0,.65-.09.9-.27.23-.15.41-.34.53-.58.12-.23.19-.49.19-.76,0-.33-.09-.62-.28-.89-.19-.27-.42-.47-.7-.6-.2-.08-.42-.12-.64-.12h-3.64v3.22h3.64Z"/>
        <path class="cls-3" d="M81.87,95.44c-.28,0-.56-.04-.82-.13-.26-.08-.5-.2-.72-.35-.23-.16-.43-.35-.61-.56s-.32-.45-.43-.7c-.15-.35-.23-.73-.23-1.12v-3.88c0-.61.16-1.15.49-1.61.15-.23.33-.43.55-.61.22-.18.45-.32.71-.43.35-.15.72-.23,1.12-.23h3.46c.61,0,1.15.16,1.61.49.23.15.43.33.61.55.18.22.32.45.43.71.15.35.23.73.23,1.12,0,.29-.04.57-.13.84-.09.27-.21.52-.36.75-.31.47-.73.82-1.26,1.04-.18.07-.36.13-.54.17-.18.04-.37.07-.58.07h-4.48v1.01c0,.2.06.39.17.56.1.13.21.24.35.33.14.08.29.13.46.13h5.44c.26,0,.48.09.66.27.18.18.27.4.27.66s-.09.47-.27.65c-.18.18-.4.27-.66.27h-5.46ZM85.4,89.71c.2,0,.39-.06.57-.17.12-.09.23-.2.31-.35.08-.14.13-.29.13-.45,0-.26-.06-.46-.17-.61-.1-.13-.21-.24-.35-.33-.13-.08-.28-.13-.45-.13h-3.5c-.21,0-.4.06-.56.17-.16.12-.29.27-.38.45-.02.06-.04.13-.05.19-.02.07-.03.14-.03.21v1.01h4.48Z"/>
        <path class="cls-3" d="M108.67,85.83c.28,0,.56.04.82.13.26.08.5.2.72.35.23.16.43.35.61.56.18.21.32.45.43.7.15.35.23.73.23,1.12v3.88c0,.61-.16,1.15-.49,1.61-.15.23-.33.43-.55.61-.22.18-.45.32-.71.43-.35.15-.72.23-1.12.23h-3.46c-.61,0-1.15-.16-1.61-.49-.23-.15-.43-.33-.61-.55-.18-.22-.32-.45-.43-.71-.15-.35-.23-.73-.23-1.12,0-.29.04-.57.13-.84.09-.27.21-.52.36-.75.31-.47.73-.82,1.26-1.04.18-.07.36-.13.54-.17.18-.04.37-.07.58-.07h4.48v-1.01c0-.19-.06-.38-.17-.56-.1-.13-.22-.24-.35-.33-.14-.08-.29-.13-.46-.13h-5.44c-.26,0-.48-.09-.66-.27-.18-.18-.27-.4-.27-.66s.09-.47.27-.65c.18-.18.4-.27.66-.27h5.46ZM105.14,91.56c-.21,0-.4.06-.57.17-.12.09-.23.2-.31.35-.08.14-.13.29-.13.45,0,.26.06.46.17.61.1.13.21.24.35.33.13.08.28.13.45.13h3.5c.21,0,.4-.06.57-.17.16-.12.29-.27.38-.45.02-.06.04-.13.05-.19.02-.07.03-.14.03-.21v-1.01h-4.48Z"/>
        <path class="cls-3" d="M115.46,94.97c-.47-.31-.82-.73-1.04-1.26-.15-.35-.23-.73-.23-1.12v-5.82c0-.26.09-.48.27-.66.18-.18.39-.27.65-.27s.48.09.66.27c.18.18.27.4.27.66v5.82c0,.2.06.39.17.57.09.14.21.25.37.33.16.08.31.11.47.11h4.56c.26,0,.48.09.66.27.18.18.27.4.27.66s-.09.48-.27.66c-.18.18-.4.27-.66.27h-4.56c-.3,0-.58-.04-.85-.13-.27-.09-.51-.21-.74-.36Z"/>
        <path class="cls-3" d="M126.34,94.97c-.47-.31-.82-.73-1.04-1.26-.15-.35-.23-.73-.23-1.12v-5.82c0-.26.09-.48.27-.66.18-.18.39-.27.65-.27s.48.09.66.27c.18.18.27.4.27.66v5.82c0,.2.06.39.17.57.09.14.21.25.37.33.16.08.31.11.47.11h4.56c.26,0,.48.09.66.27.18.18.27.4.27.66s-.09.48-.27.66c-.18.18-.4.27-.66.27h-4.56c-.3,0-.58-.04-.85-.13-.27-.09-.51-.21-.74-.36Z"/>
        <path class="cls-3" d="M142.35,85.83c.28,0,.56.04.82.13.26.08.5.2.72.35.23.16.43.35.61.56.18.21.32.45.43.7.15.35.23.73.23,1.12v3.88c0,.61-.16,1.15-.49,1.61-.15.23-.33.43-.55.61-.22.18-.45.32-.71.43-.35.15-.72.23-1.12.23h-3.46c-.61,0-1.15-.16-1.61-.49-.23-.15-.43-.33-.61-.55-.18-.22-.32-.45-.43-.71-.15-.35-.23-.73-.23-1.12,0-.29.04-.57.13-.84.09-.27.21-.52.36-.75.31-.47.73-.82,1.26-1.04.18-.07.36-.13.54-.17.18-.04.37-.07.58-.07h4.48v-1.01c0-.19-.06-.38-.17-.56-.1-.13-.22-.24-.35-.33-.14-.08-.29-.13-.46-.13h-5.44c-.26,0-.48-.09-.66-.27-.18-.18-.27-.4-.27-.66s.09-.47.27-.65c.18-.18.4-.27.66-.27h5.46ZM138.82,91.56c-.21,0-.4.06-.57.17-.12.09-.23.2-.31.35-.08.14-.13.29-.13.45,0,.26.06.46.17.61.1.13.21.24.35.33.13.08.28.13.45.13h3.5c.21,0,.4-.06.57-.17.16-.12.29-.27.38-.45.02-.06.04-.13.05-.19.02-.07.03-.14.03-.21v-1.01h-4.48Z"/>
        <path class="cls-3" d="M155.71,94.53v-3.88c0-.31-.04-.6-.13-.88-.09-.28-.21-.54-.37-.78-.33-.49-.76-.85-1.3-1.08-.18-.07-.36-.13-.56-.17-.2-.04-.39-.07-.6-.07h-2.98v6.86c0,.26-.09.48-.27.66-.18.18-.4.27-.66.27s-.47-.09-.65-.27c-.18-.18-.27-.4-.27-.66v-7.78c0-.27.09-.49.27-.66s.39-.27.65-.27h3.91c.51,0,.98.07,1.44.22s.87.35,1.26.6c.39.26.73.57,1.03.92.3.36.54.76.72,1.2.25.59.37,1.22.37,1.87v3.88c0,.26-.09.48-.27.66-.18.18-.4.27-.66.27s-.48-.09-.66-.27c-.18-.18-.27-.4-.27-.66Z"/>
        <path class="cls-3" d="M160.51,94.53v-7.75c0-.26.09-.48.27-.66.18-.18.4-.27.66-.27s.47.09.65.27c.18.18.27.4.27.66v7.75c0,.26-.09.48-.27.66-.18.18-.39.27-.65.27s-.48-.09-.66-.27c-.18-.18-.27-.4-.27-.66Z"/>
        <path class="cls-3" d="M167.37,94.63c-.66-.43-1.17-1-1.55-1.7-.38-.7-.57-1.45-.57-2.25,0-.52.07-1.01.21-1.47.14-.46.34-.88.6-1.26.26-.39.57-.73.92-1.03.36-.3.76-.53,1.19-.71.59-.26,1.22-.39,1.87-.39h3.28c.26,0,.48.09.66.27.18.18.27.4.27.66s-.09.48-.27.66c-.18.18-.4.27-.66.27h-3.28c-.31,0-.6.04-.88.13-.27.09-.53.21-.77.37-.41.27-.73.63-.96,1.06-.23.43-.35.89-.35,1.39,0,.3.04.59.13.86.09.27.21.53.37.77.16.24.35.45.57.64.22.19.47.34.73.45.35.15.74.23,1.14.23h3.28c.26,0,.48.09.66.27.18.18.27.4.27.66s-.09.48-.27.66c-.18.18-.4.27-.66.27h-3.28c-.51,0-.99-.07-1.43-.22s-.86-.35-1.26-.6Z"/>
        <path class="cls-3" d="M191.32,95.44c-.28,0-.56-.04-.82-.13-.26-.08-.5-.2-.72-.35-.23-.16-.43-.35-.61-.56s-.32-.45-.43-.7c-.15-.35-.23-.73-.23-1.12v-3.88c0-.61.16-1.15.49-1.61.15-.23.33-.43.55-.61.22-.18.45-.32.71-.43.35-.15.72-.23,1.12-.23h3.46c.61,0,1.15.16,1.61.49.23.15.43.33.61.55.18.22.32.45.43.71.15.35.23.73.23,1.12,0,.29-.04.57-.13.84-.09.27-.21.52-.36.75-.31.47-.73.82-1.26,1.04-.18.07-.36.13-.54.17-.18.04-.37.07-.58.07h-4.48v1.01c0,.2.06.39.17.56.1.13.21.24.35.33.14.08.29.13.46.13h5.44c.26,0,.48.09.66.27.18.18.27.4.27.66s-.09.47-.27.65c-.18.18-.4.27-.66.27h-5.46ZM194.84,89.71c.2,0,.39-.06.57-.17.12-.09.23-.2.31-.35.08-.14.13-.29.13-.45,0-.26-.06-.46-.17-.61-.1-.13-.21-.24-.35-.33-.13-.08-.28-.13-.45-.13h-3.5c-.21,0-.4.06-.56.17-.16.12-.29.27-.38.45-.02.06-.04.13-.05.19-.02.07-.03.14-.03.21v1.01h4.48Z"/>
        <path class="cls-3" d="M208.27,94.53v-3.88c0-.31-.04-.6-.13-.88-.09-.28-.21-.54-.37-.78-.33-.49-.76-.85-1.3-1.08-.18-.07-.36-.13-.56-.17-.2-.04-.39-.07-.6-.07h-2.98v6.86c0,.26-.09.48-.27.66-.18.18-.4.27-.66.27s-.47-.09-.65-.27c-.18-.18-.27-.4-.27-.66v-7.78c0-.27.09-.49.27-.66s.39-.27.65-.27h3.91c.51,0,.98.07,1.44.22s.87.35,1.26.6c.39.26.73.57,1.03.92.3.36.54.76.72,1.2.25.59.37,1.22.37,1.87v3.88c0,.26-.09.48-.27.66-.18.18-.4.27-.66.27s-.48-.09-.66-.27c-.18-.18-.27-.4-.27-.66Z"/>
        <path class="cls-3" d="M215.89,95.44c-.28,0-.56-.04-.82-.13-.26-.08-.5-.2-.72-.35-.23-.16-.43-.35-.61-.56s-.32-.45-.43-.7c-.15-.35-.23-.73-.23-1.12v-3.88c0-.61.16-1.15.49-1.61.15-.23.33-.43.55-.61.22-.18.45-.32.71-.43.35-.15.72-.23,1.12-.23h3.46c.61,0,1.15.16,1.61.49.23.15.43.33.61.55.18.22.32.45.43.71.15.35.23.73.23,1.12,0,.29-.04.57-.13.84-.09.27-.21.52-.36.75-.31.47-.73.82-1.26,1.04-.18.07-.36.13-.54.17-.18.04-.37.07-.58.07h-4.48v1.01c0,.2.06.39.17.56.1.13.21.24.35.33.14.08.29.13.46.13h5.44c.26,0,.48.09.66.27.18.18.27.4.27.66s-.09.47-.27.65c-.18.18-.4.27-.66.27h-5.46ZM219.41,89.71c.2,0,.39-.06.57-.17.12-.09.23-.2.31-.35.08-.14.13-.29.13-.45,0-.26-.06-.46-.17-.61-.1-.13-.21-.24-.35-.33-.13-.08-.28-.13-.45-.13h-3.5c-.21,0-.4.06-.56.17-.16.12-.29.27-.38.45-.02.06-.04.13-.05.19-.02.07-.03.14-.03.21v1.01h4.48Z"/>
        <path class="cls-3" d="M226.27,86.32c.23-.15.48-.27.74-.36.27-.09.55-.13.85-.13h4.56c.26,0,.48.09.66.27.18.18.27.4.27.66s-.09.48-.27.66c-.18.18-.4.27-.66.27h-4.56c-.16,0-.32.04-.47.11-.16.08-.28.18-.37.33-.12.19-.17.38-.17.57v5.82c0,.26-.09.48-.27.66-.18.18-.4.27-.66.27s-.47-.09-.65-.27c-.18-.18-.27-.4-.27-.66v-5.82c0-.39.08-.76.23-1.12.22-.53.57-.95,1.04-1.26Z"/>
        <path class="cls-3" d="M240.46,95.46c-.66,0-1.29-.13-1.87-.38-.58-.25-1.09-.6-1.53-1.03-.43-.43-.78-.94-1.03-1.53-.25-.59-.38-1.21-.38-1.87s.13-1.29.38-1.87.6-1.09,1.03-1.53c.43-.43.94-.78,1.53-1.03.58-.25,1.21-.38,1.87-.38h3.28c.26,0,.47.09.65.27.18.18.27.4.27.66s-.09.48-.27.66c-.18.18-.39.27-.65.27h-3.28c-.41,0-.79.08-1.15.23-.36.16-.67.37-.94.63-.27.27-.48.58-.63.94-.16.36-.23.74-.23,1.15s.08.79.23,1.15c.16.36.37.67.63.94.27.27.58.48.94.63.36.16.74.23,1.15.23h2.35v-2.17c0-.26.09-.48.27-.66.18-.18.4-.27.66-.27s.47.09.65.27c.18.18.27.4.27.66v3.1c0,.26-.09.47-.27.65-.18.19-.39.28-.65.28h-3.28Z"/>
        <path class="cls-3" d="M247.32,94.53v-7.75c0-.26.09-.48.27-.66.18-.18.4-.27.66-.27s.47.09.65.27c.18.18.27.4.27.66v7.75c0,.26-.09.48-.27.66-.18.18-.39.27-.65.27s-.48-.09-.66-.27c-.18-.18-.27-.4-.27-.66Z"/>
        <path class="cls-3" d="M255.35,95.44c-.28,0-.56-.04-.82-.13-.26-.08-.5-.2-.72-.35-.23-.16-.43-.35-.61-.56s-.32-.45-.43-.7c-.15-.35-.23-.73-.23-1.12v-3.88c0-.61.16-1.15.49-1.61.15-.23.33-.43.55-.61.22-.18.45-.32.71-.43.35-.15.72-.23,1.12-.23h3.46c.61,0,1.15.16,1.61.49.23.15.43.33.61.55.18.22.32.45.43.71.15.35.23.73.23,1.12,0,.29-.04.57-.13.84-.09.27-.21.52-.36.75-.31.47-.73.82-1.26,1.04-.18.07-.36.13-.54.17-.18.04-.37.07-.58.07h-4.48v1.01c0,.2.06.39.17.56.1.13.21.24.35.33.14.08.29.13.46.13h5.44c.26,0,.48.09.66.27.18.18.27.4.27.66s-.09.47-.27.65c-.18.18-.4.27-.66.27h-5.46ZM258.88,89.71c.2,0,.39-.06.57-.17.12-.09.23-.2.31-.35.08-.14.13-.29.13-.45,0-.26-.06-.46-.17-.61-.1-.13-.21-.24-.35-.33-.13-.08-.28-.13-.45-.13h-3.5c-.21,0-.4.06-.56.17-.16.12-.29.27-.38.45-.02.06-.04.13-.05.19-.02.07-.03.14-.03.21v1.01h4.48Z"/>
      </g>
    </g>
  </g>
</svg>