<?xml version="1.0" encoding="UTF-8"?>
<svg id="Calque_2" data-name="Calque 2" xmlns="http://www.w3.org/2000/svg" viewBox="0 0 45 45">
  <defs>
    <style>
      .cls-1 {
        fill: #4c5859;
      }
    </style>
  </defs>
  <g id="section_home" data-name="section home">
    <path class="cls-1" d="M33.67,0H11.33C5.07,0,0,5.07,0,11.33v22.34c0,6.26,5.07,11.33,11.33,11.33h22.34c6.26,0,11.33-5.07,11.33-11.33V11.33c0-6.26-5.07-11.33-11.33-11.33ZM17.35,29.51h-3.87v-12.43h3.87v12.43ZM15.42,15.39c-1.24,0-2.24-1.01-2.24-2.24s1-2.24,2.24-2.24,2.24,1,2.24,2.24-1,2.24-2.24,2.24ZM31.82,29.51h-3.86v-6.04c0-1.44-.03-3.29-2.01-3.29s-2.32,1.57-2.32,3.19v6.15h-3.86v-12.43h3.7v1.7h.05c.52-.98,1.78-2.01,3.66-2.01,3.91,0,4.63,2.57,4.63,5.92v6.81Z"/>
  </g>
</svg>