<?xml version="1.0" encoding="UTF-8"?>
<svg id="Calque_2" data-name="Calque 2" xmlns="http://www.w3.org/2000/svg" viewBox="0 0 45 45">
  <defs>
    <style>
      .cls-1 {
        fill: #4c5859;
      }
    </style>
  </defs>
  <g id="section_home" data-name="section home">
    <g>
      <path class="cls-1" d="M27.55,12.23h-10.1c-2.88,0-5.22,2.34-5.22,5.22v10.1c0,2.88,2.34,5.22,5.22,5.22h10.1c2.88,0,5.22-2.34,5.22-5.22v-10.1c0-2.88-2.34-5.22-5.22-5.22ZM22.6,28.73c-3.44,0-6.23-2.8-6.23-6.23s2.8-6.23,6.23-6.23,6.23,2.8,6.23,6.23-2.8,6.23-6.23,6.23ZM29.2,17.33c-.82,0-1.48-.66-1.48-1.48s.66-1.48,1.48-1.48,1.48.66,1.48,1.48-.67,1.48-1.48,1.48Z"/>
      <path class="cls-1" d="M22.6,18.51c-2.2,0-3.99,1.79-3.99,3.99s1.79,3.99,3.99,3.99,3.99-1.79,3.99-3.99-1.79-3.99-3.99-3.99Z"/>
      <path class="cls-1" d="M33.67,0H11.33C5.07,0,0,5.07,0,11.33v22.34c0,6.26,5.07,11.33,11.33,11.33h22.34c6.26,0,11.33-5.07,11.33-11.33V11.33c0-6.26-5.07-11.33-11.33-11.33ZM35.15,27.55c0,4.19-3.41,7.6-7.6,7.6h-10.1c-4.19,0-7.6-3.41-7.6-7.6v-10.1c0-4.19,3.41-7.6,7.6-7.6h10.1c4.19,0,7.6,3.41,7.6,7.6v10.1Z"/>
    </g>
  </g>
</svg>