<?xml version="1.0" encoding="UTF-8"?>
<svg id="Calque_2" data-name="Calque 2" xmlns="http://www.w3.org/2000/svg" viewBox="0 0 45 45">
  <defs>
    <style>
      .cls-1 {
        fill: #4c5859;
      }
    </style>
  </defs>
  <g id="section_home" data-name="section home">
    <g>
      <polygon class="cls-1" points="22.69 20.86 17.6 13.58 14.88 13.58 21.19 22.6 21.98 23.74 21.98 23.74 27.39 31.46 30.1 31.46 23.48 21.99 22.69 20.86"/>
      <path class="cls-1" d="M33.67,0H11.33C5.07,0,0,5.07,0,11.33v22.34c0,6.26,5.07,11.33,11.33,11.33h22.34c6.26,0,11.33-5.07,11.33-11.33V11.33c0-6.26-5.07-11.33-11.33-11.33ZM26.55,32.73l-5.47-7.95-6.84,7.95h-1.77l7.83-9.1-7.83-11.39h5.97l5.18,7.53,6.48-7.53h1.77l-7.46,8.67,8.12,11.81h-5.97Z"/>
    </g>
  </g>
</svg>